# Made in Blockbench 4.12.4
mtllib materials.mtl

o water
v 0.125 0.03125 0.125
v 0.125 0.03125 -0.125
v -0.125 0.03125 0.125
v -0.125 0.03125 -0.125
vt 0.25 0.75
vt 0.25 1
vt 0 1
vt 0 0.75
vn 0 1 0
usemtl m_5103603e-634d-397b-935c-736d75b8f70b
f 1/1/1 2/2/1 4/3/1 3/4/1
o dirt
v 0.125 -0.0625 0.125
v 0.125 -0.0625 -0.125
v -0.125 -0.0625 0.125
v -0.125 -0.0625 -0.125
vt 0.25 0.484375
vt 0.25 0.734375
vt 0 0.734375
vt 0 0.484375
vn 0 1 0
usemtl m_5103603e-634d-397b-935c-736d75b8f70b
f 5/5/2 6/6/2 8/7/2 7/8/2