# Made in Blockbench 4.12.4
mtllib materials.mtl

o grass
v 0.125 0.0625 0.125
v 0.125 0.0625 -0.125
v 0.125 0 0.125
v 0.125 0 -0.125
v -0.125 0.0625 0.125
v -0.125 0.0625 -0.125
v -0.125 0 0.125
v -0.125 0 -0.125
vt 0.0234375 0.9903846153846154
vt 0.0078125 0.9903846153846154
vt 0.0078125 0.9711538461538461
vt 0.0234375 0.9711538461538461
vt 0.0546875 0.9903846153846154
vt 0.0390625 0.9903846153846154
vt 0.0390625 0.9711538461538461
vt 0.0546875 0.9711538461538461
vt 0.0859375 0.9903846153846154
vt 0.0703125 0.9903846153846154
vt 0.0703125 0.9711538461538461
vt 0.0859375 0.9711538461538461
vt 0.1171875 0.9903846153846154
vt 0.1015625 0.9903846153846154
vt 0.1015625 0.9711538461538461
vt 0.1171875 0.9711538461538461
vt 0.1484375 0.9903846153846154
vt 0.1328125 0.9903846153846154
vt 0.1328125 0.9711538461538461
vt 0.1484375 0.9711538461538461
vt 0.1796875 0.9903846153846154
vt 0.1640625 0.9903846153846154
vt 0.1640625 0.9711538461538461
vt 0.1796875 0.9711538461538461
vn 1 0 0
vn -1 0 0
vn 0 1 0
vn 0 -1 0
vn 0 0 1
vn 0 0 -1
usemtl m_a3fecb24-46cb-7434-8962-6219775e74ee
f 2/1/1 1/2/1 3/3/1 4/4/1
f 7/5/2 5/6/2 6/7/2 8/8/2
f 5/9/3 1/10/3 2/11/3 6/12/3
f 4/13/4 3/14/4 7/15/4 8/16/4
f 3/17/5 1/18/5 5/19/5 7/20/5
f 6/21/6 2/22/6 4/23/6 8/24/6
o cylinder
v -0.078125 0.0625 0.078125
v -0.078125 0.078125 0.078125
v -0.0703125 0.0625 0.0859375
v -0.0703125 0.078125 0.0859375
v -0.0703125 0.0625 0.0703125
v -0.0703125 0.078125 0.0703125
v -0.0859375 0.0625 0.0703125
v -0.0859375 0.078125 0.0703125
v -0.0859375 0.0625 0.0859375
v -0.0859375 0.078125 0.0859375
vt 0.5854821875 0.9409342307692308
vt 0.5844253125 0.9409342307692308
vt 0.5844253125 0.9392857692307692
vt 0.5875959375 0.9409342307692308
vt 0.5865390625 0.9409342307692308
vt 0.5865390625 0.9392857692307692
vt 0.5875959375 0.9392857692307692
vt 0.5897096875 0.9409342307692308
vt 0.5886528125 0.9409342307692308
vt 0.5886528125 0.9392857692307692
vt 0.5918234375 0.9409342307692308
vt 0.5907665625 0.9409342307692308
vt 0.5907665625 0.9392857692307692
vt 0.593936875 0.9409342307692308
vt 0.59288 0.9409342307692308
vt 0.59288 0.9392857692307692
vt 0.593936875 0.9392857692307692
vt 0.596050625 0.9409342307692308
vt 0.59499375 0.9409342307692308
vt 0.59499375 0.9392857692307692
vt 0.598164375 0.9409342307692308
vt 0.5971075 0.9409342307692308
vt 0.5971075 0.9392857692307692
vt 0.600278125 0.9409342307692308
vt 0.59922125 0.9409342307692308
vt 0.59922125 0.9392857692307692
vt 0.600278125 0.9392857692307692
vt 0.6023915625 0.9409342307692308
vt 0.601335 0.9409342307692308
vt 0.601335 0.9392857692307692
vt 0.6045053125 0.9409342307692308
vt 0.6034484375 0.9409342307692308
vt 0.6034484375 0.9392857692307692
vt 0.6066190625 0.9409342307692308
vt 0.6055621875 0.9409342307692308
vt 0.6055621875 0.9392857692307692
vt 0.6066190625 0.9392857692307692
vt 0.6087328125 0.9409342307692308
vt 0.6076759375 0.9409342307692308
vt 0.6076759375 0.9392857692307692
vn 0 -1 0
vn 1 0 0
vn 0 1 0
vn 0 -1 0
vn 0 0 -1
vn 0 1 0
vn 0 -1 0
vn -1 0 0
vn 0 1 0
vn 0 -1 0
vn 0 0 1
vn 0 1 0
usemtl m_a3fecb24-46cb-7434-8962-6219775e74ee
f 13/25/7 11/26/7 9/27/7
f 11/28/8 13/29/8 14/30/8 12/31/8
f 12/32/9 14/33/9 10/34/9
f 15/35/10 13/36/10 9/37/10
f 13/38/11 15/39/11 16/40/11 14/41/11
f 14/42/12 16/43/12 10/44/12
f 17/45/13 15/46/13 9/47/13
f 15/48/14 17/49/14 18/50/14 16/51/14
f 16/52/15 18/53/15 10/54/15
f 11/55/16 17/56/16 9/57/16
f 17/58/17 11/59/17 12/60/17 18/61/17
f 18/62/18 12/63/18 10/64/18
o cylinder
v 0.015625 0.0625 0.03125
v 0.015625 0.078125 0.03125
v 0.0234375 0.0625 0.0390625
v 0.0234375 0.078125 0.0390625
v 0.0234375 0.0625 0.0234375
v 0.0234375 0.078125 0.0234375
v 0.0078125 0.0625 0.0234375
v 0.0078125 0.078125 0.0234375
v 0.0078125 0.0625 0.0390625
v 0.0078125 0.078125 0.0390625
vt 0.5453221875 0.9409342307692308
vt 0.5442653125 0.9409342307692308
vt 0.6097896875 0.9392857692307692
vt 0.5474359375 0.9409342307692308
vt 0.5463790625 0.9409342307692308
vt 0.5463790625 0.9392857692307692
vt 0.5474359375 0.9392857692307692
vt 0.5495496875 0.9409342307692308
vt 0.5484928125 0.9409342307692308
vt 0.5484928125 0.9392857692307692
vt 0.5516634375 0.9409342307692308
vt 0.5506065625 0.9409342307692308
vt 0.616130625 0.9392857692307692
vt 0.519958125 0.9376373076923077
vt 0.51890125 0.9376373076923077
vt 0.51890125 0.9359888461538461
vt 0.519958125 0.9359888461538461
vt 0.522071875 0.9376373076923077
vt 0.521015 0.9376373076923077
vt 0.521015 0.9359888461538461
vt 0.5241853125 0.9376373076923077
vt 0.5231284375 0.9376373076923077
vt 0.5886528125 0.9359888461538461
vt 0.5262990625 0.9376373076923077
vt 0.5252421875 0.9376373076923077
vt 0.5252421875 0.9359888461538461
vt 0.5262990625 0.9359888461538461
vt 0.5284128125 0.9376373076923077
vt 0.5273559375 0.9376373076923077
vt 0.5273559375 0.9359888461538461
vt 0.5305265625 0.9376373076923077
vt 0.5294696875 0.9376373076923077
vt 0.59499375 0.9359888461538461
vt 0.53264 0.9376373076923077
vt 0.5315834375 0.9376373076923077
vt 0.5315834375 0.9359888461538461
vt 0.53264 0.9359888461538461
vt 0.53475375 0.9376373076923077
vt 0.533696875 0.9376373076923077
vt 0.533696875 0.9359888461538461
vn 0 -1 0
vn 1 0 0
vn 0 1 0
vn 0 -1 0
vn 0 0 -1
vn 0 1 0
vn 0 -1 0
vn -1 0 0
vn 0 1 0
vn 0 -1 0
vn 0 0 1
vn 0 1 0
usemtl m_a3fecb24-46cb-7434-8962-6219775e74ee
f 23/65/19 21/66/19 19/67/19
f 21/68/20 23/69/20 24/70/20 22/71/20
f 22/72/21 24/73/21 20/74/21
f 25/75/22 23/76/22 19/77/22
f 23/78/23 25/79/23 26/80/23 24/81/23
f 24/82/24 26/83/24 20/84/24
f 27/85/25 25/86/25 19/87/25
f 25/88/26 27/89/26 28/90/26 26/91/26
f 26/92/27 28/93/27 20/94/27
f 21/95/28 27/96/28 19/97/28
f 27/98/29 21/99/29 22/100/29 28/101/29
f 28/102/30 22/103/30 20/104/30
o cylinder
v -0.0625 0.0625 0
v -0.0625 0.078125 0
v -0.0546875 0.0625 0.0078125
v -0.0546875 0.078125 0.0078125
v -0.0546875 0.0625 -0.0078125
v -0.0546875 0.078125 -0.0078125
v -0.0703125 0.0625 -0.0078125
v -0.0703125 0.078125 -0.0078125
v -0.0703125 0.0625 0.0078125
v -0.0703125 0.078125 0.0078125
vt 0.6023915625 0.9376373076923077
vt 0.601335 0.9376373076923077
vt 0.601335 0.9359888461538461
vt 0.6045053125 0.9376373076923077
vt 0.6034484375 0.9376373076923077
vt 0.6034484375 0.9359888461538461
vt 0.6045053125 0.9359888461538461
vt 0.6066190625 0.9376373076923077
vt 0.6055621875 0.9376373076923077
vt 0.6055621875 0.9359888461538461
vt 0.6087328125 0.9376373076923077
vt 0.6076759375 0.9376373076923077
vt 0.6076759375 0.9359888461538461
vt 0.6108465625 0.9376373076923077
vt 0.6097896875 0.9376373076923077
vt 0.6097896875 0.9359888461538461
vt 0.6108465625 0.9359888461538461
vt 0.61296 0.9376373076923077
vt 0.6119034375 0.9376373076923077
vt 0.6119034375 0.9359888461538461
vt 0.61507375 0.9376373076923077
vt 0.614016875 0.9376373076923077
vt 0.614016875 0.9359888461538461
vt 0.6171875 0.9376373076923077
vt 0.616130625 0.9376373076923077
vt 0.616130625 0.9359888461538461
vt 0.6171875 0.9359888461538461
vt 0.5854821875 0.9343407692307693
vt 0.5844253125 0.9343407692307693
vt 0.5844253125 0.9326923076923077
vt 0.5875959375 0.9343407692307693
vt 0.5865390625 0.9343407692307693
vt 0.5865390625 0.9326923076923077
vt 0.5897096875 0.9343407692307693
vt 0.5886528125 0.9343407692307693
vt 0.5886528125 0.9326923076923077
vt 0.5897096875 0.9326923076923077
vt 0.5918234375 0.9343407692307693
vt 0.5907665625 0.9343407692307693
vt 0.5907665625 0.9326923076923077
vn 0 -1 0
vn 1 0 0
vn 0 1 0
vn 0 -1 0
vn 0 0 -1
vn 0 1 0
vn 0 -1 0
vn -1 0 0
vn 0 1 0
vn 0 -1 0
vn 0 0 1
vn 0 1 0
usemtl m_a3fecb24-46cb-7434-8962-6219775e74ee
f 33/105/31 31/106/31 29/107/31
f 31/108/32 33/109/32 34/110/32 32/111/32
f 32/112/33 34/113/33 30/114/33
f 35/115/34 33/116/34 29/117/34
f 33/118/35 35/119/35 36/120/35 34/121/35
f 34/122/36 36/123/36 30/124/36
f 37/125/37 35/126/37 29/127/37
f 35/128/38 37/129/38 38/130/38 36/131/38
f 36/132/39 38/133/39 30/134/39
f 31/135/40 37/136/40 29/137/40
f 37/138/41 31/139/41 32/140/41 38/141/41
f 38/142/42 32/143/42 30/144/42
o cylinder
v -0.078125 0.0625 -0.09375
v -0.078125 0.078125 -0.09375
v -0.0703125 0.0625 -0.0859375
v -0.0703125 0.078125 -0.0859375
v -0.0703125 0.0625 -0.1015625
v -0.0703125 0.078125 -0.1015625
v -0.0859375 0.0625 -0.1015625
v -0.0859375 0.078125 -0.1015625
v -0.0859375 0.0625 -0.0859375
v -0.0859375 0.078125 -0.0859375
vt 0.473034375 0.9519230769230769
vt 0.466481875 0.9519230769230769
vt 0.466481875 0.9491757692307692
vt 0.4861390625 0.9519230769230769
vt 0.4795865625 0.9519230769230769
vt 0.4795865625 0.9491757692307692
vt 0.4861390625 0.9491757692307692
vt 0.4992440625 0.9519230769230769
vt 0.4926915625 0.9519230769230769
vt 0.4926915625 0.9491757692307692
vt 0.51234875 0.9519230769230769
vt 0.50579625 0.9519230769230769
vt 0.50579625 0.9491757692307692
vt 0.52545375 0.9519230769230769
vt 0.51890125 0.9519230769230769
vt 0.51890125 0.9491757692307692
vt 0.52545375 0.9491757692307692
vt 0.5385584375 0.9519230769230769
vt 0.5320059375 0.9519230769230769
vt 0.5320059375 0.9491757692307692
vt 0.5516634375 0.9519230769230769
vt 0.5451109375 0.9519230769230769
vt 0.5451109375 0.9491757692307692
vt 0.564768125 0.9519230769230769
vt 0.558215625 0.9519230769230769
vt 0.558215625 0.9491757692307692
vt 0.564768125 0.9491757692307692
vt 0.577873125 0.9519230769230769
vt 0.571320625 0.9519230769230769
vt 0.571320625 0.9491757692307692
vt 0.5909778125 0.9519230769230769
vt 0.5844253125 0.9519230769230769
vt 0.5844253125 0.9491757692307692
vt 0.6040828125 0.9519230769230769
vt 0.5975303125 0.9519230769230769
vt 0.5975303125 0.9491757692307692
vt 0.6040828125 0.9491757692307692
vt 0.6171875 0.9519230769230769
vt 0.610635 0.9519230769230769
vt 0.610635 0.9491757692307692
vn 0 -1 0
vn 1 0 0
vn 0 1 0
vn 0 -1 0
vn 0 0 -1
vn 0 1 0
vn 0 -1 0
vn -1 0 0
vn 0 1 0
vn 0 -1 0
vn 0 0 1
vn 0 1 0
usemtl m_a3fecb24-46cb-7434-8962-6219775e74ee
f 43/145/43 41/146/43 39/147/43
f 41/148/44 43/149/44 44/150/44 42/151/44
f 42/152/45 44/153/45 40/154/45
f 45/155/46 43/156/46 39/157/46
f 43/158/47 45/159/47 46/160/47 44/161/47
f 44/162/48 46/163/48 40/164/48
f 47/165/49 45/166/49 39/167/49
f 45/168/50 47/169/50 48/170/50 46/171/50
f 46/172/51 48/173/51 40/174/51
f 41/175/52 47/176/52 39/177/52
f 47/178/53 41/179/53 42/180/53 48/181/53
f 48/182/54 42/183/54 40/184/54
o cylinder
v 0 0.0625 -0.0625
v 0 0.078125 -0.0625
v 0.0078125 0.0625 -0.0546875
v 0.0078125 0.078125 -0.0546875
v 0.0078125 0.0625 -0.0703125
v 0.0078125 0.078125 -0.0703125
v -0.0078125 0.0625 -0.0703125
v -0.0078125 0.078125 -0.0703125
v -0.0078125 0.0625 -0.0546875
v -0.0078125 0.078125 -0.0546875
vt 0.420615 0.9464284615384615
vt 0.4140625 0.9464284615384615
vt 0.4140625 0.9436811538461538
vt 0.4337196875 0.9464284615384615
vt 0.4271671875 0.9464284615384615
vt 0.4271671875 0.9436811538461538
vt 0.4337196875 0.9436811538461538
vt 0.4468246875 0.9464284615384615
vt 0.4402721875 0.9464284615384615
vt 0.4402721875 0.9436811538461538
vt 0.459929375 0.9464284615384615
vt 0.453376875 0.9464284615384615
vt 0.453376875 0.9436811538461538
vt 0.473034375 0.9464284615384615
vt 0.466481875 0.9464284615384615
vt 0.466481875 0.9436811538461538
vt 0.473034375 0.9436811538461538
vt 0.4861390625 0.9464284615384615
vt 0.4795865625 0.9464284615384615
vt 0.4795865625 0.9436811538461538
vt 0.4992440625 0.9464284615384615
vt 0.4926915625 0.9464284615384615
vt 0.4926915625 0.9436811538461538
vt 0.51234875 0.9464284615384615
vt 0.50579625 0.9464284615384615
vt 0.50579625 0.9436811538461538
vt 0.51234875 0.9436811538461538
vt 0.52545375 0.9464284615384615
vt 0.51890125 0.9464284615384615
vt 0.51890125 0.9436811538461538
vt 0.5385584375 0.9464284615384615
vt 0.5320059375 0.9464284615384615
vt 0.5320059375 0.9436811538461538
vt 0.5516634375 0.9464284615384615
vt 0.5451109375 0.9464284615384615
vt 0.5451109375 0.9436811538461538
vt 0.5516634375 0.9436811538461538
vt 0.564768125 0.9464284615384615
vt 0.558215625 0.9464284615384615
vt 0.558215625 0.9436811538461538
vn 0 -1 0
vn 1 0 0
vn 0 1 0
vn 0 -1 0
vn 0 0 -1
vn 0 1 0
vn 0 -1 0
vn -1 0 0
vn 0 1 0
vn 0 -1 0
vn 0 0 1
vn 0 1 0
usemtl m_a3fecb24-46cb-7434-8962-6219775e74ee
f 53/185/55 51/186/55 49/187/55
f 51/188/56 53/189/56 54/190/56 52/191/56
f 52/192/57 54/193/57 50/194/57
f 55/195/58 53/196/58 49/197/58
f 53/198/59 55/199/59 56/200/59 54/201/59
f 54/202/60 56/203/60 50/204/60
f 57/205/61 55/206/61 49/207/61
f 55/208/62 57/209/62 58/210/62 56/211/62
f 56/212/63 58/213/63 50/214/63
f 51/215/64 57/216/64 49/217/64
f 57/218/65 51/219/65 52/220/65 58/221/65
f 58/222/66 52/223/66 50/224/66
o cylinder
v 0.09375 0.0625 0
v 0.09375 0.078125 0
v 0.1015625 0.0625 0.0078125
v 0.1015625 0.078125 0.0078125
v 0.1015625 0.0625 -0.0078125
v 0.1015625 0.078125 -0.0078125
v 0.0859375 0.0625 -0.0078125
v 0.0859375 0.078125 -0.0078125
v 0.0859375 0.0625 0.0078125
v 0.0859375 0.078125 0.0078125
vt 0.52545375 0.9409342307692308
vt 0.51890125 0.9409342307692308
vt 0.51890125 0.9381869230769231
vt 0.5385584375 0.9409342307692308
vt 0.5320059375 0.9409342307692308
vt 0.5320059375 0.9381869230769231
vt 0.5385584375 0.9381869230769231
vt 0.5516634375 0.9409342307692308
vt 0.5451109375 0.9409342307692308
vt 0.5451109375 0.9381869230769231
vt 0.564768125 0.9409342307692308
vt 0.558215625 0.9409342307692308
vt 0.558215625 0.9381869230769231
vt 0.577873125 0.9409342307692308
vt 0.571320625 0.9409342307692308
vt 0.571320625 0.9381869230769231
vt 0.577873125 0.9381869230769231
vt 0.5909778125 0.9409342307692308
vt 0.5844253125 0.9409342307692308
vt 0.5844253125 0.9381869230769231
vt 0.6040828125 0.9409342307692308
vt 0.5975303125 0.9409342307692308
vt 0.5975303125 0.9381869230769231
vt 0.6171875 0.9409342307692308
vt 0.610635 0.9409342307692308
vt 0.610635 0.9381869230769231
vt 0.6171875 0.9381869230769231
vt 0.420615 0.9354396153846154
vt 0.4140625 0.9354396153846154
vt 0.4140625 0.9326923076923077
vt 0.4337196875 0.9354396153846154
vt 0.4271671875 0.9354396153846154
vt 0.4271671875 0.9326923076923077
vt 0.4468246875 0.9354396153846154
vt 0.4402721875 0.9354396153846154
vt 0.4402721875 0.9326923076923077
vt 0.4468246875 0.9326923076923077
vt 0.459929375 0.9354396153846154
vt 0.453376875 0.9354396153846154
vt 0.453376875 0.9326923076923077
vn 0 -1 0
vn 1 0 0
vn 0 1 0
vn 0 -1 0
vn 0 0 -1
vn 0 1 0
vn 0 -1 0
vn -1 0 0
vn 0 1 0
vn 0 -1 0
vn 0 0 1
vn 0 1 0
usemtl m_a3fecb24-46cb-7434-8962-6219775e74ee
f 63/225/67 61/226/67 59/227/67
f 61/228/68 63/229/68 64/230/68 62/231/68
f 62/232/69 64/233/69 60/234/69
f 65/235/70 63/236/70 59/237/70
f 63/238/71 65/239/71 66/240/71 64/241/71
f 64/242/72 66/243/72 60/244/72
f 67/245/73 65/246/73 59/247/73
f 65/248/74 67/249/74 68/250/74 66/251/74
f 66/252/75 68/253/75 60/254/75
f 61/255/76 67/256/76 59/257/76
f 67/258/77 61/259/77 62/260/77 68/261/77
f 68/262/78 62/263/78 60/264/78
o cylinder
v 0.078125 0.0625 -0.078125
v 0.078125 0.078125 -0.078125
v 0.0859375 0.0625 -0.0703125
v 0.0859375 0.078125 -0.0703125
v 0.0859375 0.0625 -0.0859375
v 0.0859375 0.078125 -0.0859375
v 0.0703125 0.0625 -0.0859375
v 0.0703125 0.078125 -0.0859375
v 0.0703125 0.0625 -0.0703125
v 0.0703125 0.078125 -0.0703125
vt 0.577873125 0.9464284615384615
vt 0.571320625 0.9464284615384615
vt 0.571320625 0.9436811538461538
vt 0.5909778125 0.9464284615384615
vt 0.5844253125 0.9464284615384615
vt 0.5844253125 0.9436811538461538
vt 0.5909778125 0.9436811538461538
vt 0.6040828125 0.9464284615384615
vt 0.5975303125 0.9464284615384615
vt 0.5975303125 0.9436811538461538
vt 0.6171875 0.9464284615384615
vt 0.610635 0.9464284615384615
vt 0.610635 0.9436811538461538
vt 0.420615 0.9409342307692308
vt 0.4140625 0.9409342307692308
vt 0.4140625 0.9381869230769231
vt 0.420615 0.9381869230769231
vt 0.4337196875 0.9409342307692308
vt 0.4271671875 0.9409342307692308
vt 0.4271671875 0.9381869230769231
vt 0.4468246875 0.9409342307692308
vt 0.4402721875 0.9409342307692308
vt 0.4402721875 0.9381869230769231
vt 0.459929375 0.9409342307692308
vt 0.453376875 0.9409342307692308
vt 0.453376875 0.9381869230769231
vt 0.459929375 0.9381869230769231
vt 0.473034375 0.9409342307692308
vt 0.466481875 0.9409342307692308
vt 0.466481875 0.9381869230769231
vt 0.4861390625 0.9409342307692308
vt 0.4795865625 0.9409342307692308
vt 0.4795865625 0.9381869230769231
vt 0.4992440625 0.9409342307692308
vt 0.4926915625 0.9409342307692308
vt 0.4926915625 0.9381869230769231
vt 0.4992440625 0.9381869230769231
vt 0.51234875 0.9409342307692308
vt 0.50579625 0.9409342307692308
vt 0.50579625 0.9381869230769231
vn 0 -1 0
vn 1 0 0
vn 0 1 0
vn 0 -1 0
vn 0 0 -1
vn 0 1 0
vn 0 -1 0
vn -1 0 0
vn 0 1 0
vn 0 -1 0
vn 0 0 1
vn 0 1 0
usemtl m_a3fecb24-46cb-7434-8962-6219775e74ee
f 73/265/79 71/266/79 69/267/79
f 71/268/80 73/269/80 74/270/80 72/271/80
f 72/272/81 74/273/81 70/274/81
f 75/275/82 73/276/82 69/277/82
f 73/278/83 75/279/83 76/280/83 74/281/83
f 74/282/84 76/283/84 70/284/84
f 77/285/85 75/286/85 69/287/85
f 75/288/86 77/289/86 78/290/86 76/291/86
f 76/292/87 78/293/87 70/294/87
f 71/295/88 77/296/88 69/297/88
f 77/298/89 71/299/89 72/300/89 78/301/89
f 78/302/90 72/303/90 70/304/90
o cylinder
v 0.0625 0.0625 0.09375
v 0.0625 0.078125 0.09375
v 0.0703125 0.0625 0.1015625
v 0.0703125 0.078125 0.1015625
v 0.0703125 0.0625 0.0859375
v 0.0703125 0.078125 0.0859375
v 0.0546875 0.0625 0.0859375
v 0.0546875 0.078125 0.0859375
v 0.0546875 0.0625 0.1015625
v 0.0546875 0.078125 0.1015625
vt 0.473034375 0.9354396153846154
vt 0.466481875 0.9354396153846154
vt 0.466481875 0.9326923076923077
vt 0.4861390625 0.9354396153846154
vt 0.4795865625 0.9354396153846154
vt 0.4795865625 0.9326923076923077
vt 0.4861390625 0.9326923076923077
vt 0.4992440625 0.9354396153846154
vt 0.4926915625 0.9354396153846154
vt 0.4926915625 0.9326923076923077
vt 0.51234875 0.9354396153846154
vt 0.50579625 0.9354396153846154
vt 0.50579625 0.9326923076923077
vt 0.52545375 0.9354396153846154
vt 0.51890125 0.9354396153846154
vt 0.51890125 0.9326923076923077
vt 0.52545375 0.9326923076923077
vt 0.5385584375 0.9354396153846154
vt 0.5320059375 0.9354396153846154
vt 0.5320059375 0.9326923076923077
vt 0.5516634375 0.9354396153846154
vt 0.5451109375 0.9354396153846154
vt 0.5451109375 0.9326923076923077
vt 0.564768125 0.9354396153846154
vt 0.558215625 0.9354396153846154
vt 0.558215625 0.9326923076923077
vt 0.564768125 0.9326923076923077
vt 0.577873125 0.9354396153846154
vt 0.571320625 0.9354396153846154
vt 0.571320625 0.9326923076923077
vt 0.5909778125 0.9354396153846154
vt 0.5844253125 0.9354396153846154
vt 0.5844253125 0.9326923076923077
vt 0.6040828125 0.9354396153846154
vt 0.5975303125 0.9354396153846154
vt 0.5975303125 0.9326923076923077
vt 0.6040828125 0.9326923076923077
vt 0.6171875 0.9354396153846154
vt 0.610635 0.9354396153846154
vt 0.610635 0.9326923076923077
vn 0 -1 0
vn 1 0 0
vn 0 1 0
vn 0 -1 0
vn 0 0 -1
vn 0 1 0
vn 0 -1 0
vn -1 0 0
vn 0 1 0
vn 0 -1 0
vn 0 0 1
vn 0 1 0
usemtl m_a3fecb24-46cb-7434-8962-6219775e74ee
f 83/305/91 81/306/91 79/307/91
f 81/308/92 83/309/92 84/310/92 82/311/92
f 82/312/93 84/313/93 80/314/93
f 85/315/94 83/316/94 79/317/94
f 83/318/95 85/319/95 86/320/95 84/321/95
f 84/322/96 86/323/96 80/324/96
f 87/325/97 85/326/97 79/327/97
f 85/328/98 87/329/98 88/330/98 86/331/98
f 86/332/99 88/333/99 80/334/99
f 81/335/100 87/336/100 79/337/100
f 87/338/101 81/339/101 82/340/101 88/341/101
f 88/342/102 82/343/102 80/344/102