# Made in Blockbench 4.12.5
mtllib materials.mtl

o grass
v 0.125 0.0625 0.125
v 0.125 0.0625 -0.125
v 0.125 0 0.125
v 0.125 0 -0.125
v -0.125 0.0625 0.125
v -0.125 0.0625 -0.125
v -0.125 0 0.125
v -0.125 0 -0.125
vt 0.65625 1
vt 0.40625 1
vt 0.40625 0.9375
vt 0.65625 0.9375
vt 0.65625 0.859375
vt 0.65625 0.921875
vt 0.40625 0.921875
vt 0.40625 0.859375
vt 0 0.484375
vt 0.25 0.484375
vt 0.25 0.734375
vt 0 0.734375
vt 0.25 0.484375
vt 0.25 0.734375
vt 0 0.734375
vt 0 0.484375
vt 0.65625 0.78125
vt 0.65625 0.84375
vt 0.40625 0.84375
vt 0.40625 0.78125
vt 0.65625 0.765625
vt 0.40625 0.765625
vt 0.40625 0.703125
vt 0.65625 0.703125
vn 1 0 0
vn -1 0 0
vn 0 1 0
vn 0 -1 0
vn 0 0 1
vn 0 0 -1
usemtl m_f4890b44-5021-8e3c-82f4-99291cf23399
f 2/1/1 1/2/1 3/3/1 4/4/1
f 7/5/2 5/6/2 6/7/2 8/8/2
f 5/9/3 1/10/3 2/11/3 6/12/3
f 4/13/4 3/14/4 7/15/4 8/16/4
f 3/17/5 1/18/5 5/19/5 7/20/5
f 6/21/6 2/22/6 4/23/6 8/24/6
o grass
v 0.125 0.0859375 0.125
v 0.125 0.0859375 -0.125
v 0.125 0.0625 0.125
v 0.125 0.0625 -0.125
v 0.0625 0.0859375 0.125
v 0.0625 0.0859375 -0.125
v 0.0625 0.0625 0.125
v 0.0625 0.0625 -0.125
vt 0.65625 1
vt 0.40625 1
vt 0.40625 0.9375
vt 0.65625 0.9375
vt 0.65625 0.859375
vt 0.65625 0.921875
vt 0.40625 0.921875
vt 0.40625 0.859375
vt 0 0.484375
vt 0.25 0.484375
vt 0.25 0.734375
vt 0 0.734375
vt 0.25 0.484375
vt 0.25 0.734375
vt 0 0.734375
vt 0 0.484375
vt 0.65625 0.78125
vt 0.65625 0.84375
vt 0.40625 0.84375
vt 0.40625 0.78125
vt 0.65625 0.765625
vt 0.40625 0.765625
vt 0.40625 0.703125
vt 0.65625 0.703125
vn 1 0 0
vn -1 0 0
vn 0 1 0
vn 0 -1 0
vn 0 0 1
vn 0 0 -1
usemtl m_f4890b44-5021-8e3c-82f4-99291cf23399
f 10/25/7 9/26/7 11/27/7 12/28/7
f 15/29/8 13/30/8 14/31/8 16/32/8
f 13/33/9 9/34/9 10/35/9 14/36/9
f 12/37/10 11/38/10 15/39/10 16/40/10
f 11/41/11 9/42/11 13/43/11 15/44/11
f 14/45/12 10/46/12 12/47/12 16/48/12
o grass
v -0.0625 0.0859375 0.125
v -0.0625 0.0859375 -0.125
v -0.0625 0.0625 0.125
v -0.0625 0.0625 -0.125
v -0.125 0.0859375 0.125
v -0.125 0.0859375 -0.125
v -0.125 0.0625 0.125
v -0.125 0.0625 -0.125
vt 0.65625 1
vt 0.40625 1
vt 0.40625 0.9375
vt 0.65625 0.9375
vt 0.65625 0.859375
vt 0.65625 0.921875
vt 0.40625 0.921875
vt 0.40625 0.859375
vt 0 0.484375
vt 0.25 0.484375
vt 0.25 0.734375
vt 0 0.734375
vt 0.25 0.484375
vt 0.25 0.734375
vt 0 0.734375
vt 0 0.484375
vt 0.65625 0.78125
vt 0.65625 0.84375
vt 0.40625 0.84375
vt 0.40625 0.78125
vt 0.65625 0.765625
vt 0.40625 0.765625
vt 0.40625 0.703125
vt 0.65625 0.703125
vn 1 0 0
vn -1 0 0
vn 0 1 0
vn 0 -1 0
vn 0 0 1
vn 0 0 -1
usemtl m_f4890b44-5021-8e3c-82f4-99291cf23399
f 18/49/13 17/50/13 19/51/13 20/52/13
f 23/53/14 21/54/14 22/55/14 24/56/14
f 21/57/15 17/58/15 18/59/15 22/60/15
f 20/61/16 19/62/16 23/63/16 24/64/16
f 19/65/17 17/66/17 21/67/17 23/68/17
f 22/69/18 18/70/18 20/71/18 24/72/18
o plane
v 0.0078125 0.0796875 0.109375
v 0.0078125 0.0796875 0.078125
v -0.0078125 0.0796875 0.109375
v -0.0078125 0.0796875 0.078125
vt 0.421875 0.53125
vt 0.421875 0.5625
vt 0.40625 0.5625
vt 0.40625 0.53125
vn 0 1 0
usemtl m_f4890b44-5021-8e3c-82f4-99291cf23399
f 25/73/19 26/74/19 28/75/19 27/76/19
o plane
v 0.0078125 0.0796875 -0.078125
v 0.0078125 0.0796875 -0.109375
v -0.0078125 0.0796875 -0.078125
v -0.0078125 0.0796875 -0.109375
vt 0.421875 0.53125
vt 0.421875 0.5625
vt 0.40625 0.5625
vt 0.40625 0.53125
vn 0 1 0
usemtl m_f4890b44-5021-8e3c-82f4-99291cf23399
f 29/77/20 30/78/20 32/79/20 31/80/20
o road
v 0.0625 0.078125 0.125
v 0.0625 0.078125 -0.125
v 0.0625 0.0625 0.125
v 0.0625 0.0625 -0.125
v -0.0625 0.078125 0.125
v -0.0625 0.078125 -0.125
v -0.0625 0.0625 0.125
v -0.0625 0.0625 -0.125
v 0.0625 0.078125 -0.0625
v 0.0625 0.0859375 -0.03125
v 0.0625 0.0859375 0.03125
v 0.0625 0.078125 0.0625
v -0.0625 0.078125 -0.0625
v -0.0625 0.0859375 -0.03125
v -0.0625 0.0859375 0.03125
v -0.0625 0.078125 0.0625
vt 0.390625 0.484375
vt 0.390625 0.734375
vt 0.265625 0.734375
vt 0.265625 0.484375
vt 0.53125 0.609375
vt 0.53125 0.625
vt 0.40625 0.625
vt 0.40625 0.609375
vt 0.53125 0.59375
vt 0.40625 0.59375
vt 0.40625 0.578125
vt 0.53125 0.578125
vt 0.49024507573567666 0.6875
vt 0.46098297836691876 0.6875
vt 0.40625 0.671875
vt 0.5474552830391096 0.6875
vt 0.49024507573567666 0.6875
vt 0.40625 0.671875
vt 0.5782700546025135 0.6875
vt 0.5474552830391096 0.6875
vt 0.65625 0.671875
vt 0.40625 0.6875
vt 0.40625 0.671875
vt 0.46098297836691876 0.6875
vt 0.40625 0.671875
vt 0.65625 0.671875
vt 0.5474552830391096 0.6875
vt 0.65625 0.671875
vt 0.65625 0.6875
vt 0.5782700546025135 0.6875
vt 0.65625 0.640625
vt 0.65625 0.65625
vt 0.5997191750725881 0.65625
vt 0.5171784624950643 0.65625
vt 0.4878278842973952 0.65625
vt 0.40625 0.640625
vt 0.5690915844787586 0.65625
vt 0.5171784624950643 0.65625
vt 0.65625 0.640625
vt 0.5997191750725881 0.65625
vt 0.5690915844787586 0.65625
vt 0.65625 0.640625
vt 0.40625 0.65625
vt 0.40625 0.640625
vt 0.4878278842973952 0.65625
vt 0.40625 0.640625
vt 0.65625 0.640625
vt 0.5171784624950643 0.65625
vt 0.265625 0.75
vt 0.390625 0.75
vt 0.390625 0.8047329783669188
vt 0.265625 0.8065308249274119
vt 0.390625 0.8912052830391097
vt 0.390625 0.9220200546025135
vt 0.265625 0.9184221157026048
vt 0.390625 0.8339950757356767
vt 0.390625 0.8912052830391097
vt 0.265625 0.8371584155212414
vt 0.390625 0.8047329783669188
vt 0.390625 0.8339950757356767
vt 0.265625 0.8065308249274119
vt 0.390625 0.9220200546025135
vt 0.390625 1
vt 0.265625 1
vt 0.265625 0.9184221157026048
vt 0.265625 0.8371584155212414
vt 0.265625 0.8065308249274119
vt 0.390625 0.8339950757356767
vt 0.265625 0.8890715375049356
vt 0.265625 0.8371584155212414
vt 0.390625 0.8912052830391097
vt 0.265625 0.9184221157026048
vt 0.265625 0.8890715375049356
vt 0.390625 0.8912052830391097
vn 0 -1 0
vn 0 0 1
vn 0 0 -1
vn 0 0 0
vn 1 0 0
vn 0 0 0
vn 1 0 0
vn 1 0 0
vn 1 0 0
vn -1 0 0
vn 0 0 0
vn -1 0 0
vn 0 0 0
vn -1 0 0
vn -1 0 0
vn 0 1 0
vn 0 0.9701425001453319 -0.24253562503633297
vn 0 1 0
vn 0 0.9701425001453319 0.24253562503633297
vn 0 1 0
vn 0 0.9701425001453319 0.24253562503633297
vn 0 1 0
vn 0 0.9701425001453319 -0.24253562503633297
usemtl m_f4890b44-5021-8e3c-82f4-99291cf23399
f 36/81/21 35/82/21 39/83/21 40/84/21
f 35/85/22 33/86/22 37/87/22 39/88/22
f 38/89/23 34/90/23 36/91/23 40/92/23
f 43/93/24 44/94/24 35/95/24
f 42/96/25 43/97/25 35/98/25
f 41/99/26 42/100/26 36/101/26
f 33/102/27 35/103/27 44/104/27
f 35/105/28 36/106/28 42/107/28
f 36/108/29 34/109/29 41/110/29
f 39/111/30 37/112/30 48/113/30
f 46/114/31 45/115/31 40/116/31
f 47/117/32 46/118/32 39/119/32
f 48/120/33 47/121/33 39/122/33
f 38/123/34 40/124/34 45/125/34
f 40/126/35 39/127/35 46/128/35
f 37/129/36 33/130/36 44/131/36 48/132/36
f 42/133/37 41/134/37 45/135/37
f 43/136/38 42/137/38 47/138/38
f 44/139/39 43/140/39 48/141/39
f 41/142/40 34/143/40 38/144/40 45/145/40
f 47/146/41 48/147/41 43/148/41
f 46/149/42 47/150/42 42/151/42
f 45/152/43 46/153/43 42/154/43
o plane
v 0.0078125 0.0875 0.015625
v 0.0078125 0.0875 -0.015625
v -0.0078125 0.0875 0.015625
v -0.0078125 0.0875 -0.015625
vt 0.421875 0.53125
vt 0.421875 0.5625
vt 0.40625 0.5625
vt 0.40625 0.53125
vn 0 1 0
usemtl m_f4890b44-5021-8e3c-82f4-99291cf23399
f 49/155/44 50/156/44 52/157/44 51/158/44
o plane
v 0.015625 0.0875 -0.03125
v 0.03125 0.0796875 -0.0625
v 0 0.0796875 -0.0625
vt 0.078125 0.90625
vt 0.078125 0.9375
vt 0.0625 0.9375
vn 0 0.9701425001453319 -0.24253562503633297
usemtl m_f4890b44-5021-8e3c-82f4-99291cf23399
f 53/159/45 54/160/45 55/161/45
o plane
v -0.015625 0.0875 -0.03125
v 0 0.0796875 -0.0625
v -0.03125 0.0796875 -0.0625
vt 0.078125 0.90625
vt 0.078125 0.9375
vt 0.0625 0.9375
vn 0 0.9701425001453319 -0.24253562503633297
usemtl m_f4890b44-5021-8e3c-82f4-99291cf23399
f 56/162/46 57/163/46 58/164/46
o plane
v -0.046875 0.0875 -0.03125
v -0.03125 0.0796875 -0.0625
v -0.0625 0.0796875 -0.0625
vt 0.078125 0.90625
vt 0.078125 0.9375
vt 0.0625 0.9375
vn 0 0.9701425001453319 -0.24253562503633297
usemtl m_f4890b44-5021-8e3c-82f4-99291cf23399
f 59/165/47 60/166/47 61/167/47
o plane
v 0.046875 0.0875 -0.03125
v 0.0625 0.0796875 -0.0625
v 0.03125 0.0796875 -0.0625
vt 0.078125 0.90625
vt 0.078125 0.9375
vt 0.0625 0.9375
vn 0 0.9701425001453319 -0.24253562503633297
usemtl m_f4890b44-5021-8e3c-82f4-99291cf23399
f 62/168/48 63/169/48 64/170/48
o plane
v 0.046875 0.0875 0.03125
v 0.03125 0.0796875 0.0625
v 0.0625 0.0796875 0.0625
vt 0.078125 0.90625
vt 0.078125 0.9375
vt 0.0625 0.9375
vn 2.970204768799478e-17 0.9701425001453319 0.24253562503633297
usemtl m_f4890b44-5021-8e3c-82f4-99291cf23399
f 65/171/49 66/172/49 67/173/49
o plane
v 0.015624999999999997 0.0875 0.03125
v 0 0.0796875 0.0625
v 0.03125 0.0796875 0.0625
vt 0.078125 0.90625
vt 0.078125 0.9375
vt 0.0625 0.9375
vn 2.970204768799478e-17 0.9701425001453319 0.24253562503633297
usemtl m_f4890b44-5021-8e3c-82f4-99291cf23399
f 68/174/50 69/175/50 70/176/50
o plane
v -0.015625000000000003 0.0875 0.03125
v -0.03125 0.0796875 0.0625
v 0 0.0796875 0.0625
vt 0.078125 0.90625
vt 0.078125 0.9375
vt 0.0625 0.9375
vn 2.970204768799478e-17 0.9701425001453319 0.24253562503633297
usemtl m_f4890b44-5021-8e3c-82f4-99291cf23399
f 71/177/51 72/178/51 73/179/51
o plane
v -0.046875 0.0875 0.03125
v -0.0625 0.0796875 0.0625
v -0.03125 0.0796875 0.0625
vt 0.078125 0.90625
vt 0.078125 0.9375
vt 0.0625 0.9375
vn 2.970204768799478e-17 0.9701425001453319 0.24253562503633297
usemtl m_f4890b44-5021-8e3c-82f4-99291cf23399
f 74/180/52 75/181/52 76/182/52