# Made in Blockbench 4.12.4
mtllib materials.mtl

o grass
v 0.125 0.0625 0.125
v 0.125 0.0625 -0.125
v 0.125 0 0.125
v 0.125 0 -0.125
v -0.125 0.0625 0.125
v -0.125 0.0625 -0.125
v -0.125 0 0.125
v -0.125 0 -0.125
vt 0.25 0.734375
vt 0 0.734375
vt 0 0.671875
vt 0.25 0.671875
vt 0.515625 0.9375
vt 0.515625 1
vt 0.265625 1
vt 0.265625 0.9375
vt 0 0.75
vt 0.25 0.75
vt 0.25 1
vt 0 1
vt 0.25 0.75
vt 0.25 1
vt 0 1
vt 0 0.75
vt 0.515625 0.859375
vt 0.515625 0.921875
vt 0.265625 0.921875
vt 0.265625 0.859375
vt 0.515625 0.84375
vt 0.265625 0.84375
vt 0.265625 0.78125
vt 0.515625 0.78125
vn 1 0 0
vn -1 0 0
vn 0 1 0
vn 0 -1 0
vn 0 0 1
vn 0 0 -1
usemtl m_ba76fd32-bc9a-4d9f-dd27-fc8c21b2f872
f 2/1/1 1/2/1 3/3/1 4/4/1
f 7/5/2 5/6/2 6/7/2 8/8/2
f 5/9/3 1/10/3 2/11/3 6/12/3
f 4/13/4 3/14/4 7/15/4 8/16/4
f 3/17/5 1/18/5 5/19/5 7/20/5
f 6/21/6 2/22/6 4/23/6 8/24/6
o cylinder
v 0 0.03125 0
v 0 0.46875 0
v 0.006472086912079611 0.03125 0.015625
v 0.006472086912079611 0.46875 0.015625
v 0.015625 0.03125 0.006472086912079612
v 0.015625 0.46875 0.006472086912079612
v 0.015625 0.03125 -0.00647208691207961
v 0.015625 0.46875 -0.00647208691207961
v 0.0064720869120796125 0.03125 -0.015625
v 0.0064720869120796125 0.46875 -0.015625
v -0.006472086912079609 0.03125 -0.015625000000000003
v -0.006472086912079609 0.46875 -0.015625000000000003
v -0.015624999999999997 0.03125 -0.00647208691207962
v -0.015624999999999997 0.46875 -0.00647208691207962
v -0.015624999999999998 0.03125 0.006472086912079614
v -0.015624999999999998 0.46875 0.006472086912079614
v -0.006472086912079621 0.03125 0.015624999999999997
v -0.006472086912079621 0.46875 0.015624999999999997
vt 0.016912297035459878 0.9880409232075154
vt 0.011958523039534628 1
vt 0 0.9880409232075154
vt 0.18750000000000078 0.203125
vt 0.24731875000000078 0.203125
vt 0.24731875000000078 0.671875
vt 0.18750000000000078 0.671875
vt 7.806255641895632e-18 0.9830877029645402
vt 0.011959076792484645 0.9880414769604654
vt 0 1
vt 0.015625 0.9870562499999992
vt 0.015625 0.9999999999999992
vt 0 0.9935281249999992
vt 0.18750000000000078 0.203125
vt 0.24731875000000078 0.203125
vt 0.24731875000000078 0.671875
vt 0.18750000000000078 0.671875
vt 0.015625 0.9870562499999992
vt 0.015625 0.9999999999999992
vt 0 0.9935281249999992
vt 7.806255641895632e-18 0.9830877029645402
vt 0.011959076792484645 0.9880414769604654
vt 0 1
vt 0.18750000000000078 0.203125
vt 0.2473187500000008 0.203125
vt 0.2473187500000008 0.671875
vt 0.18750000000000078 0.671875
vt 0.016912297035459878 0.9880409232075154
vt 0.011958523039534628 1
vt 0 0.9880409232075154
vt 7.927686285214008e-16 0.984375
vt 0.012943750000000793 0.984375
vt 0.006471875000000793 1
vt 0.18750000000000078 0.203125
vt 0.2473187500000008 0.203125
vt 0.2473187500000008 0.671875
vt 0.18750000000000078 0.671875
vt 0.012943750000000793 1
vt 7.927686285214008e-16 1
vt 0.006471875000000793 0.984375
vt 8.326672684688674e-16 1
vt 0.004953773995926083 0.9880409232075154
vt 0.01691229703546071 1
vt 0.20312500000000078 0.203125
vt 0.2473187500000008 0.203125
vt 0.2473187500000008 0.671875
vt 0.20312500000000078 0.671875
vt 0.011959076792484643 0.9999999999999991
vt 0 0.9950462260040739
vt 0.01195907679248464 0.9830877029645393
vt 0 0.9999999999999992
vt 0 0.9870562499999992
vt 0.015625 0.9935281249999992
vt 0.18750000000000078 0.203125
vt 0.2473187500000008 0.203125
vt 0.2473187500000008 0.671875
vt 0.18750000000000078 0.671875
vt 0 0.9999999999999992
vt 0 0.9870562499999992
vt 0.015625 0.9935281249999992
vt 0.011959076792484643 0.9999999999999991
vt 0 0.9950462260040739
vt 0.01195907679248464 0.9830877029645393
vt 0.18750000000000078 0.203125
vt 0.24731875000000078 0.203125
vt 0.24731875000000078 0.671875
vt 0.18750000000000078 0.671875
vt 8.326672684688674e-16 1
vt 0.004953773995926083 0.9880409232075154
vt 0.01691229703546071 1
vt 0.012943750000000793 1
vt 7.927686285214008e-16 1
vt 0.006471875000000793 0.984375
vt 0.20312500000000078 0.203125
vt 0.2473187500000008 0.203125
vt 0.2473187500000008 0.671875
vt 0.20312500000000078 0.671875
vt 7.927686285214008e-16 0.984375
vt 0.012943750000000793 0.984375
vt 0.006471875000000793 1
vn 0 -1 0
vn 0.7071067811865476 0 0.7071067811865476
vn 0 1 0
vn 0 -1 0
vn 1 0 0
vn 0 1 0
vn 0 -1 0
vn 0.7071067811865477 0 -0.7071067811865475
vn 0 1 0
vn 0 -1 0
vn 2.680315483308931e-16 0 -1
vn 0 1 0
vn 0 -1 0
vn -0.7071067811865474 0 -0.7071067811865477
vn 0 1 0
vn 0 -1 0
vn -1 0 -1.3401577416544643e-16
vn 0 1 0
vn 0 -1 0
vn -0.7071067811865477 0 0.7071067811865474
vn 0 1 0
vn 0 -1 0
vn -2.680315483308929e-16 0 1
vn 0 1 0
usemtl m_ba76fd32-bc9a-4d9f-dd27-fc8c21b2f872
f 13/25/7 11/26/7 9/27/7
f 11/28/8 13/29/8 14/30/8 12/31/8
f 12/32/9 14/33/9 10/34/9
f 15/35/10 13/36/10 9/37/10
f 13/38/11 15/39/11 16/40/11 14/41/11
f 14/42/12 16/43/12 10/44/12
f 17/45/13 15/46/13 9/47/13
f 15/48/14 17/49/14 18/50/14 16/51/14
f 16/52/15 18/53/15 10/54/15
f 19/55/16 17/56/16 9/57/16
f 17/58/17 19/59/17 20/60/17 18/61/17
f 18/62/18 20/63/18 10/64/18
f 21/65/19 19/66/19 9/67/19
f 19/68/20 21/69/20 22/70/20 20/71/20
f 20/72/21 22/73/21 10/74/21
f 23/75/22 21/76/22 9/77/22
f 21/78/23 23/79/23 24/80/23 22/81/23
f 22/82/24 24/83/24 10/84/24
f 25/85/25 23/86/25 9/87/25
f 23/88/26 25/89/26 26/90/26 24/91/26
f 24/92/27 26/93/27 10/94/27
f 11/95/28 25/96/28 9/97/28
f 25/98/29 11/99/29 12/100/29 26/101/29
f 26/102/30 12/103/30 10/104/30
o cuboid
v -0.022008010434079794 0.5 -0.012024335978317764
v 0.0019097040887383222 0.5 0.04571813480363766
v -0.022008010434079794 0.46875 -0.012024335978317764
v 0.0019097040887383222 0.46875 0.04571813480363766
v 0.006863224956897916 0.5 -0.02398319323972682
v 0.03078093947971603 0.5 0.0337592775422286
v 0.006863224956897916 0.46875 -0.02398319323972682
v 0.03078093947971603 0.46875 0.0337592775422286
vt 0.171875 0.609375
vt 0.109375 0.609375
vt 0.109375 0.515625
vt 0.171875 0.515625
vt 0.171875 0.515625
vt 0.171875 0.609375
vt 0.109375 0.609375
vt 0.109375 0.515625
vt 0.109375 0.546875
vt 0.171875 0.546875
vt 0.171875 0.609375
vt 0.109375 0.609375
vt 0.171875 0.546875
vt 0.171875 0.609375
vt 0.109375 0.609375
vt 0.109375 0.546875
vt 0.171875 0.515625
vt 0.171875 0.609375
vt 0.109375 0.609375
vt 0.109375 0.515625
vt 0.171875 0.609375
vt 0.109375 0.609375
vt 0.109375 0.515625
vt 0.171875 0.515625
vn -0.9238795325112867 0 0.3826834323650899
vn 0.9238795325112867 0 -0.3826834323650899
vn 0 1 0
vn 0 -1 0
vn -0.3826834323650899 0 -0.9238795325112867
vn 0.3826834323650899 0 0.9238795325112867
usemtl m_ba76fd32-bc9a-4d9f-dd27-fc8c21b2f872
f 28/105/31 27/106/31 29/107/31 30/108/31
f 33/109/32 31/110/32 32/111/32 34/112/32
f 31/113/33 27/114/33 28/115/33 32/116/33
f 30/117/34 29/118/34 33/119/34 34/120/34
f 29/121/35 27/122/35 31/123/35 33/124/35
f 32/125/36 28/126/36 30/127/36 34/128/36
o pyramid
v 0.11868210391458421 0.40625 -0.08721246756292465
v -0.005095632304511147 0.49790664693413184 -0.052854428630704525
v 0.006863224956897913 0.49790664693413184 -0.023983193239726818
v -0.019531249999999997 0.47084335306586816 -0.046875
v -0.0075723927385909365 0.47084335306586816 -0.018003764609022293
vt 0.140625 0.59375
vt 0.140625 0.625
vt 0.109375 0.625
vt 0.109375 0.59375
vt 0.109375 0.4679703125
vt 0.140625 0.4679703125
vt 0.125 0.625
vt 0.109375 0.4679703125
vt 0.140625 0.4679703125
vt 0.125 0.625
vt 0.109375 0.4679703125
vt 0.140625 0.4679703125
vt 0.125 0.625
vt 0.109375 0.4679703125
vt 0.140625 0.4679703125
vt 0.125 0.625
vn -0.8001031451912657 0.4999999999999998 0.33141357403559196
vn 0.5392604856082035 0.81197562492164 -0.22336900679081922
vn -0.30117100873354435 -0.04975185951049944 -0.9522713772731316
vn 0.4603974858274027 -0.04975185951049944 0.8863176109719665
vn -0.3800340085143451 -0.9114793439426389 0.15741524048965408
usemtl m_ba76fd32-bc9a-4d9f-dd27-fc8c21b2f872
f 37/129/37 36/130/37 38/131/37 39/132/37
f 36/133/38 37/134/38 35/135/38
f 38/136/39 36/137/39 35/138/39
f 37/139/40 39/140/40 35/141/40
f 39/142/41 38/143/41 35/144/41
o pyramid
v -0.013551821369295471 0.653125 -0.03243938230451114
v -0.03396686769548886 0.49687499999999996 -0.04089557136929547
v -0.022008010434079798 0.49687499999999996 -0.012024335978317757
v -0.005095632304511145 0.49687499999999996 -0.052854428630704525
v 0.006863224956897913 0.49687499999999996 -0.023983193239726815
vt 0.140625 0.59375
vt 0.140625 0.625
vt 0.109375 0.625
vt 0.109375 0.59375
vt 0.109375 0.4679703125
vt 0.140625 0.4679703125
vt 0.125 0.625
vt 0.109375 0.4679703125
vt 0.140625 0.4679703125
vt 0.125 0.625
vt 0.109375 0.4679703125
vt 0.140625 0.4679703125
vt 0.125 0.625
vt 0.109375 0.4679703125
vt 0.140625 0.4679703125
vt 0.125 0.625
vn 0 -1 0
vn -0.919294494122549 0.09950371902099892 0.3807842472804735
vn -0.3807842472804735 0.09950371902099892 -0.919294494122549
vn 0.3807842472804735 0.09950371902099892 0.919294494122549
vn 0.919294494122549 0.09950371902099892 -0.3807842472804735
usemtl m_ba76fd32-bc9a-4d9f-dd27-fc8c21b2f872
f 42/145/42 41/146/42 43/147/42 44/148/42
f 41/149/43 42/150/43 40/151/43
f 43/152/44 41/153/44 40/154/44
f 42/155/45 44/156/45 40/157/45
f 44/158/46 43/159/46 40/160/46
o pyramid
v -0.14578574665317515 0.40625 0.022333702953902364
v -0.019531250000000003 0.47084335306586816 -0.046875
v -0.007572392738590943 0.47084335306586816 -0.018003764609022286
v -0.03396686769548885 0.49790664693413184 -0.040895571369295475
v -0.02200801043407979 0.49790664693413184 -0.01202433597831776
vt 0.140625 0.59375
vt 0.140625 0.625
vt 0.109375 0.625
vt 0.109375 0.59375
vt 0.109375 0.4679703125
vt 0.140625 0.4679703125
vt 0.125 0.625
vt 0.109375 0.4679703125
vt 0.140625 0.4679703125
vt 0.125 0.625
vt 0.109375 0.4679703125
vt 0.140625 0.4679703125
vt 0.125 0.625
vt 0.109375 0.4679703125
vt 0.140625 0.4679703125
vt 0.125 0.625
vn 0.8001031451912657 0.4999999999999998 -0.33141357403559196
vn 0.3800340085143451 -0.9114793439426389 -0.15741524048965408
vn -0.4603974858274027 -0.04975185951049944 -0.8863176109719665
vn 0.30117100873354435 -0.04975185951049944 0.9522713772731316
vn -0.5392604856082035 0.81197562492164 0.22336900679081922
usemtl m_ba76fd32-bc9a-4d9f-dd27-fc8c21b2f872
f 47/161/47 46/162/47 48/163/47 49/164/47
f 46/165/48 47/166/48 45/167/48
f 48/168/49 46/169/49 45/170/49
f 47/171/50 49/172/50 45/173/50
f 49/174/51 48/175/51 45/176/51
o plane
v -0.03396686769548886 0.5 -0.040895571369295475
v -0.0050956323045111464 0.5 -0.05285442863070453
v -0.01953125 0.46875 -0.046875
vt 0.1875 0.5625
vt 0.125 0.625
vt 0.125 0.5625
vn 0.3826834323650899 2.220446049250313e-16 0.9238795325112867
usemtl m_ba76fd32-bc9a-4d9f-dd27-fc8c21b2f872
f 50/177/52 52/178/52 51/179/52