# Made in Blockbench 4.12.6
mtllib materials.mtl

o cuboid
v 0.375 0.375 0.5
v 0.375 0.375 -0.5
v 0.375 0.0625 0.5
v 0.375 0.0625 -0.5
v -0.375 0.375 0.5
v -0.375 0.375 -0.5
v -0.375 0.0625 0.5
v -0.375 0.0625 -0.5
vt 0.046875 0.984375
vt 0.015625 0.984375
vt 0.015625 0.953125
vt 0.046875 0.953125
vt 0.109375 0.984375
vt 0.078125 0.984375
vt 0.078125 0.953125
vt 0.109375 0.953125
vt 0.171875 0.984375
vt 0.140625 0.984375
vt 0.140625 0.953125
vt 0.171875 0.953125
vt 0.234375 0.984375
vt 0.203125 0.984375
vt 0.203125 0.953125
vt 0.234375 0.953125
vt 0.296875 0.984375
vt 0.265625 0.984375
vt 0.265625 0.953125
vt 0.296875 0.953125
vt 0.359375 0.984375
vt 0.328125 0.984375
vt 0.328125 0.953125
vt 0.359375 0.953125
vn 1 0 0
vn -1 0 0
vn 0 1 0
vn 0 -1 0
vn 0 0 1
vn 0 0 -1
usemtl m_02c1b47b-76b3-6942-0ba7-0b8c58bad313
f 2/1/1 1/2/1 3/3/1 4/4/1
f 7/5/2 5/6/2 6/7/2 8/8/2
f 5/9/3 1/10/3 2/11/3 6/12/3
f 4/13/4 3/14/4 7/15/4 8/16/4
f 3/17/5 1/18/5 5/19/5 7/20/5
f 6/21/6 2/22/6 4/23/6 8/24/6
o cuboid
v 0.359375 0.75 0.484375
v 0.359375 0.75 -0.109375
v 0.359375 0.375 0.484375
v 0.359375 0.375 -0.234375
v -0.359375 0.75 0.484375
v -0.359375 0.75 -0.109375
v -0.359375 0.375 0.484375
v -0.359375 0.375 -0.234375
vt 0.046875 0.984375
vt 0.015625 0.984375
vt 0.015625 0.953125
vt 0.046875 0.953125
vt 0.109375 0.984375
vt 0.078125 0.984375
vt 0.078125 0.953125
vt 0.109375 0.953125
vt 0.171875 0.984375
vt 0.140625 0.984375
vt 0.140625 0.953125
vt 0.171875 0.953125
vt 0.234375 0.984375
vt 0.203125 0.984375
vt 0.203125 0.953125
vt 0.234375 0.953125
vt 0.296875 0.984375
vt 0.265625 0.984375
vt 0.265625 0.953125
vt 0.296875 0.953125
vt 0.359375 0.984375
vt 0.328125 0.984375
vt 0.328125 0.953125
vt 0.359375 0.953125
vn 1 0 0
vn -1 0 0
vn 0 1 0
vn 0 -1 0
vn 0 0 1
vn 0 0.31622776601683794 -0.9486832980505139
usemtl m_69a2ee7d-2791-d4d2-3f8c-c9907d2ec1b9
f 10/25/7 9/26/7 11/27/7 12/28/7
f 15/29/8 13/30/8 14/31/8 16/32/8
f 13/33/9 9/34/9 10/35/9 14/36/9
f 12/37/10 11/38/10 15/39/10 16/40/10
f 11/41/11 9/42/11 13/43/11 15/44/11
f 14/45/12 10/46/12 12/47/12 16/48/12
o cylinder
v -0.4375 0.125 -0.3125
v -0.375 0.12500000000000003 -0.3125
v -0.4375 0.07322330470336312 -0.1875
v -0.375 0.07322330470336313 -0.1875
v -0.4375 0 -0.2607233047033631
v -0.375 1.3877787807814457e-17 -0.2607233047033631
v -0.4375 0 -0.36427669529663687
v -0.375 1.3877787807814457e-17 -0.36427669529663687
v -0.4375 0.0732233047033631 -0.4375
v -0.375 0.07322330470336312 -0.4375
v -0.4375 0.17677669529663687 -0.4375
v -0.375 0.1767766952966369 -0.4375
v -0.4375 0.24999999999999997 -0.364276695296637
v -0.375 0.25 -0.364276695296637
v -0.4375 0.25 -0.2607233047033631
v -0.375 0.25 -0.2607233047033631
v -0.4375 0.17677669529663698 -0.18750000000000003
v -0.375 0.17677669529663698 -0.18750000000000003
vt 0.046875 0.984375
vt 0.015625 0.984375
vt 0.015625 0.953125
vt 0.109375 0.984375
vt 0.078125 0.984375
vt 0.078125 0.953125
vt 0.109375 0.953125
vt 0.171875 0.984375
vt 0.140625 0.984375
vt 0.140625 0.953125
vt 0.234375 0.984375
vt 0.203125 0.984375
vt 0.203125 0.953125
vt 0.296875 0.984375
vt 0.265625 0.984375
vt 0.265625 0.953125
vt 0.296875 0.953125
vt 0.359375 0.984375
vt 0.328125 0.984375
vt 0.328125 0.953125
vt 0.421875 0.984375
vt 0.390625 0.984375
vt 0.390625 0.953125
vt 0.484375 0.984375
vt 0.453125 0.984375
vt 0.453125 0.953125
vt 0.484375 0.953125
vt 0.546875 0.984375
vt 0.515625 0.984375
vt 0.515625 0.953125
vt 0.609375 0.984375
vt 0.578125 0.984375
vt 0.578125 0.953125
vt 0.671875 0.984375
vt 0.640625 0.984375
vt 0.640625 0.953125
vt 0.671875 0.953125
vt 0.734375 0.984375
vt 0.703125 0.984375
vt 0.703125 0.953125
vt 0.796875 0.984375
vt 0.765625 0.984375
vt 0.765625 0.953125
vt 0.859375 0.984375
vt 0.828125 0.984375
vt 0.828125 0.953125
vt 0.859375 0.953125
vt 0.921875 0.984375
vt 0.890625 0.984375
vt 0.890625 0.953125
vt 0.984375 0.984375
vt 0.953125 0.984375
vt 0.953125 0.953125
vt 0.046875 0.921875
vt 0.015625 0.921875
vt 0.015625 0.890625
vt 0.046875 0.890625
vt 0.109375 0.921875
vt 0.078125 0.921875
vt 0.078125 0.890625
vt 0.171875 0.921875
vt 0.140625 0.921875
vt 0.140625 0.890625
vt 0.234375 0.921875
vt 0.203125 0.921875
vt 0.203125 0.890625
vt 0.234375 0.890625
vt 0.296875 0.921875
vt 0.265625 0.921875
vt 0.265625 0.890625
vt 0.359375 0.921875
vt 0.328125 0.921875
vt 0.328125 0.890625
vt 0.421875 0.921875
vt 0.390625 0.921875
vt 0.390625 0.890625
vt 0.421875 0.890625
vt 0.484375 0.921875
vt 0.453125 0.921875
vt 0.453125 0.890625
vn -1 -2.220446049250313e-16 0
vn 1.570092458683775e-16 -0.7071067811865475 0.7071067811865476
vn 1 2.220446049250313e-16 0
vn -1 -2.220446049250313e-16 0
vn 2.220446049250313e-16 -1 0
vn 1 2.220446049250313e-16 0
vn -1 -2.220446049250313e-16 0
vn 1.5700924586837752e-16 -0.7071067811865476 -0.7071067811865476
vn 1 2.220446049250313e-16 0
vn -1 -2.220446049250313e-16 0
vn 5.95149592565776e-32 -2.6803154833089315e-16 -1
vn 1 2.220446049250313e-16 0
vn -1 -2.220446049250313e-16 0
vn -1.5700924586837747e-16 0.7071067811865474 -0.7071067811865478
vn 1 2.220446049250313e-16 0
vn -1 -2.220446049250313e-16 0
vn -2.220446049250313e-16 1 -2.680315483308929e-16
vn 1 2.220446049250313e-16 0
vn -1 -2.220446049250313e-16 0
vn -1.5700924586837754e-16 0.7071067811865477 0.7071067811865474
vn 1 2.220446049250313e-16 0
vn -1 -2.220446049250313e-16 0
vn -5.951495925657755e-32 2.680315483308929e-16 1
vn 1 2.220446049250313e-16 0
usemtl m_eeb110d2-761e-59d1-91be-c1d2c18ab9dd
f 21/49/13 19/50/13 17/51/13
f 19/52/14 21/53/14 22/54/14 20/55/14
f 20/56/15 22/57/15 18/58/15
f 23/59/16 21/60/16 17/61/16
f 21/62/17 23/63/17 24/64/17 22/65/17
f 22/66/18 24/67/18 18/68/18
f 25/69/19 23/70/19 17/71/19
f 23/72/20 25/73/20 26/74/20 24/75/20
f 24/76/21 26/77/21 18/78/21
f 27/79/22 25/80/22 17/81/22
f 25/82/23 27/83/23 28/84/23 26/85/23
f 26/86/24 28/87/24 18/88/24
f 29/89/25 27/90/25 17/91/25
f 27/92/26 29/93/26 30/94/26 28/95/26
f 28/96/27 30/97/27 18/98/27
f 31/99/28 29/100/28 17/101/28
f 29/102/29 31/103/29 32/104/29 30/105/29
f 30/106/30 32/107/30 18/108/30
f 33/109/31 31/110/31 17/111/31
f 31/112/32 33/113/32 34/114/32 32/115/32
f 32/116/33 34/117/33 18/118/33
f 19/119/34 33/120/34 17/121/34
f 33/122/35 19/123/35 20/124/35 34/125/35
f 34/126/36 20/127/36 18/128/36
o cylinder
v -0.4375 0.125 0.3125
v -0.375 0.12500000000000003 0.3125
v -0.4375 0.07322330470336312 0.4375
v -0.375 0.07322330470336313 0.4375
v -0.4375 0 0.3642766952966369
v -0.375 1.3877787807814457e-17 0.3642766952966369
v -0.4375 0 0.26072330470336313
v -0.375 1.3877787807814457e-17 0.26072330470336313
v -0.4375 0.0732233047033631 0.18750000000000003
v -0.375 0.07322330470336312 0.18750000000000003
v -0.4375 0.17677669529663687 0.1875
v -0.375 0.1767766952966369 0.1875
v -0.4375 0.24999999999999997 0.260723304703363
v -0.375 0.25 0.260723304703363
v -0.4375 0.25 0.3642766952966369
v -0.375 0.25 0.3642766952966369
v -0.4375 0.17677669529663698 0.4375
v -0.375 0.17677669529663698 0.4375
vt 0.046875 0.984375
vt 0.015625 0.984375
vt 0.015625 0.953125
vt 0.109375 0.984375
vt 0.078125 0.984375
vt 0.078125 0.953125
vt 0.109375 0.953125
vt 0.171875 0.984375
vt 0.140625 0.984375
vt 0.140625 0.953125
vt 0.234375 0.984375
vt 0.203125 0.984375
vt 0.203125 0.953125
vt 0.296875 0.984375
vt 0.265625 0.984375
vt 0.265625 0.953125
vt 0.296875 0.953125
vt 0.359375 0.984375
vt 0.328125 0.984375
vt 0.328125 0.953125
vt 0.421875 0.984375
vt 0.390625 0.984375
vt 0.390625 0.953125
vt 0.484375 0.984375
vt 0.453125 0.984375
vt 0.453125 0.953125
vt 0.484375 0.953125
vt 0.546875 0.984375
vt 0.515625 0.984375
vt 0.515625 0.953125
vt 0.609375 0.984375
vt 0.578125 0.984375
vt 0.578125 0.953125
vt 0.671875 0.984375
vt 0.640625 0.984375
vt 0.640625 0.953125
vt 0.671875 0.953125
vt 0.734375 0.984375
vt 0.703125 0.984375
vt 0.703125 0.953125
vt 0.796875 0.984375
vt 0.765625 0.984375
vt 0.765625 0.953125
vt 0.859375 0.984375
vt 0.828125 0.984375
vt 0.828125 0.953125
vt 0.859375 0.953125
vt 0.921875 0.984375
vt 0.890625 0.984375
vt 0.890625 0.953125
vt 0.984375 0.984375
vt 0.953125 0.984375
vt 0.953125 0.953125
vt 0.046875 0.921875
vt 0.015625 0.921875
vt 0.015625 0.890625
vt 0.046875 0.890625
vt 0.109375 0.921875
vt 0.078125 0.921875
vt 0.078125 0.890625
vt 0.171875 0.921875
vt 0.140625 0.921875
vt 0.140625 0.890625
vt 0.234375 0.921875
vt 0.203125 0.921875
vt 0.203125 0.890625
vt 0.234375 0.890625
vt 0.296875 0.921875
vt 0.265625 0.921875
vt 0.265625 0.890625
vt 0.359375 0.921875
vt 0.328125 0.921875
vt 0.328125 0.890625
vt 0.421875 0.921875
vt 0.390625 0.921875
vt 0.390625 0.890625
vt 0.421875 0.890625
vt 0.484375 0.921875
vt 0.453125 0.921875
vt 0.453125 0.890625
vn -1 -2.220446049250313e-16 0
vn 1.570092458683775e-16 -0.7071067811865475 0.7071067811865476
vn 1 2.220446049250313e-16 0
vn -1 -2.220446049250313e-16 0
vn 2.220446049250313e-16 -1 0
vn 1 2.220446049250313e-16 0
vn -1 -2.220446049250313e-16 0
vn 1.5700924586837752e-16 -0.7071067811865476 -0.7071067811865476
vn 1 2.220446049250313e-16 0
vn -1 -2.220446049250313e-16 0
vn 5.95149592565776e-32 -2.6803154833089315e-16 -1
vn 1 2.220446049250313e-16 0
vn -1 -2.220446049250313e-16 0
vn -1.5700924586837747e-16 0.7071067811865474 -0.7071067811865478
vn 1 2.220446049250313e-16 0
vn -1 -2.220446049250313e-16 0
vn -2.220446049250313e-16 1 -2.680315483308929e-16
vn 1 2.220446049250313e-16 0
vn -1 -2.220446049250313e-16 0
vn -1.5700924586837754e-16 0.7071067811865477 0.7071067811865474
vn 1 2.220446049250313e-16 0
vn -1 -2.220446049250313e-16 0
vn -5.951495925657755e-32 2.680315483308929e-16 1
vn 1 2.220446049250313e-16 0
usemtl m_eeb110d2-761e-59d1-91be-c1d2c18ab9dd
f 39/129/37 37/130/37 35/131/37
f 37/132/38 39/133/38 40/134/38 38/135/38
f 38/136/39 40/137/39 36/138/39
f 41/139/40 39/140/40 35/141/40
f 39/142/41 41/143/41 42/144/41 40/145/41
f 40/146/42 42/147/42 36/148/42
f 43/149/43 41/150/43 35/151/43
f 41/152/44 43/153/44 44/154/44 42/155/44
f 42/156/45 44/157/45 36/158/45
f 45/159/46 43/160/46 35/161/46
f 43/162/47 45/163/47 46/164/47 44/165/47
f 44/166/48 46/167/48 36/168/48
f 47/169/49 45/170/49 35/171/49
f 45/172/50 47/173/50 48/174/50 46/175/50
f 46/176/51 48/177/51 36/178/51
f 49/179/52 47/180/52 35/181/52
f 47/182/53 49/183/53 50/184/53 48/185/53
f 48/186/54 50/187/54 36/188/54
f 51/189/55 49/190/55 35/191/55
f 49/192/56 51/193/56 52/194/56 50/195/56
f 50/196/57 52/197/57 36/198/57
f 37/199/58 51/200/58 35/201/58
f 51/202/59 37/203/59 38/204/59 52/205/59
f 52/206/60 38/207/60 36/208/60
o cylinder
v 0.375 0.125 -0.3125
v 0.4375 0.12500000000000003 -0.3125
v 0.375 0.07322330470336312 -0.1875
v 0.4375 0.07322330470336313 -0.1875
v 0.375 0 -0.2607233047033631
v 0.4375 1.3877787807814457e-17 -0.2607233047033631
v 0.375 0 -0.36427669529663687
v 0.4375 1.3877787807814457e-17 -0.36427669529663687
v 0.375 0.0732233047033631 -0.4375
v 0.4375 0.07322330470336312 -0.4375
v 0.375 0.17677669529663687 -0.4375
v 0.4375 0.1767766952966369 -0.4375
v 0.375 0.24999999999999997 -0.364276695296637
v 0.4375 0.25 -0.364276695296637
v 0.375 0.25 -0.2607233047033631
v 0.4375 0.25 -0.2607233047033631
v 0.375 0.17677669529663698 -0.18750000000000003
v 0.4375 0.17677669529663698 -0.18750000000000003
vt 0.046875 0.984375
vt 0.015625 0.984375
vt 0.015625 0.953125
vt 0.109375 0.984375
vt 0.078125 0.984375
vt 0.078125 0.953125
vt 0.109375 0.953125
vt 0.171875 0.984375
vt 0.140625 0.984375
vt 0.140625 0.953125
vt 0.234375 0.984375
vt 0.203125 0.984375
vt 0.203125 0.953125
vt 0.296875 0.984375
vt 0.265625 0.984375
vt 0.265625 0.953125
vt 0.296875 0.953125
vt 0.359375 0.984375
vt 0.328125 0.984375
vt 0.328125 0.953125
vt 0.421875 0.984375
vt 0.390625 0.984375
vt 0.390625 0.953125
vt 0.484375 0.984375
vt 0.453125 0.984375
vt 0.453125 0.953125
vt 0.484375 0.953125
vt 0.546875 0.984375
vt 0.515625 0.984375
vt 0.515625 0.953125
vt 0.609375 0.984375
vt 0.578125 0.984375
vt 0.578125 0.953125
vt 0.671875 0.984375
vt 0.640625 0.984375
vt 0.640625 0.953125
vt 0.671875 0.953125
vt 0.734375 0.984375
vt 0.703125 0.984375
vt 0.703125 0.953125
vt 0.796875 0.984375
vt 0.765625 0.984375
vt 0.765625 0.953125
vt 0.859375 0.984375
vt 0.828125 0.984375
vt 0.828125 0.953125
vt 0.859375 0.953125
vt 0.921875 0.984375
vt 0.890625 0.984375
vt 0.890625 0.953125
vt 0.984375 0.984375
vt 0.953125 0.984375
vt 0.953125 0.953125
vt 0.046875 0.921875
vt 0.015625 0.921875
vt 0.015625 0.890625
vt 0.046875 0.890625
vt 0.109375 0.921875
vt 0.078125 0.921875
vt 0.078125 0.890625
vt 0.171875 0.921875
vt 0.140625 0.921875
vt 0.140625 0.890625
vt 0.234375 0.921875
vt 0.203125 0.921875
vt 0.203125 0.890625
vt 0.234375 0.890625
vt 0.296875 0.921875
vt 0.265625 0.921875
vt 0.265625 0.890625
vt 0.359375 0.921875
vt 0.328125 0.921875
vt 0.328125 0.890625
vt 0.421875 0.921875
vt 0.390625 0.921875
vt 0.390625 0.890625
vt 0.421875 0.890625
vt 0.484375 0.921875
vt 0.453125 0.921875
vt 0.453125 0.890625
vn -1 -2.220446049250313e-16 0
vn 1.570092458683775e-16 -0.7071067811865475 0.7071067811865476
vn 1 2.220446049250313e-16 0
vn -1 -2.220446049250313e-16 0
vn 2.220446049250313e-16 -1 0
vn 1 2.220446049250313e-16 0
vn -1 -2.220446049250313e-16 0
vn 1.5700924586837752e-16 -0.7071067811865476 -0.7071067811865476
vn 1 2.220446049250313e-16 0
vn -1 -2.220446049250313e-16 0
vn 5.95149592565776e-32 -2.6803154833089315e-16 -1
vn 1 2.220446049250313e-16 0
vn -1 -2.220446049250313e-16 0
vn -1.5700924586837747e-16 0.7071067811865474 -0.7071067811865478
vn 1 2.220446049250313e-16 0
vn -1 -2.220446049250313e-16 0
vn -2.220446049250313e-16 1 -2.680315483308929e-16
vn 1 2.220446049250313e-16 0
vn -1 -2.220446049250313e-16 0
vn -1.5700924586837754e-16 0.7071067811865477 0.7071067811865474
vn 1 2.220446049250313e-16 0
vn -1 -2.220446049250313e-16 0
vn -5.951495925657755e-32 2.680315483308929e-16 1
vn 1 2.220446049250313e-16 0
usemtl m_eeb110d2-761e-59d1-91be-c1d2c18ab9dd
f 57/209/61 55/210/61 53/211/61
f 55/212/62 57/213/62 58/214/62 56/215/62
f 56/216/63 58/217/63 54/218/63
f 59/219/64 57/220/64 53/221/64
f 57/222/65 59/223/65 60/224/65 58/225/65
f 58/226/66 60/227/66 54/228/66
f 61/229/67 59/230/67 53/231/67
f 59/232/68 61/233/68 62/234/68 60/235/68
f 60/236/69 62/237/69 54/238/69
f 63/239/70 61/240/70 53/241/70
f 61/242/71 63/243/71 64/244/71 62/245/71
f 62/246/72 64/247/72 54/248/72
f 65/249/73 63/250/73 53/251/73
f 63/252/74 65/253/74 66/254/74 64/255/74
f 64/256/75 66/257/75 54/258/75
f 67/259/76 65/260/76 53/261/76
f 65/262/77 67/263/77 68/264/77 66/265/77
f 66/266/78 68/267/78 54/268/78
f 69/269/79 67/270/79 53/271/79
f 67/272/80 69/273/80 70/274/80 68/275/80
f 68/276/81 70/277/81 54/278/81
f 55/279/82 69/280/82 53/281/82
f 69/282/83 55/283/83 56/284/83 70/285/83
f 70/286/84 56/287/84 54/288/84
o cylinder
v 0.375 0.125 0.3125
v 0.4375 0.12500000000000003 0.3125
v 0.375 0.07322330470336312 0.4375
v 0.4375 0.07322330470336313 0.4375
v 0.375 0 0.3642766952966369
v 0.4375 1.3877787807814457e-17 0.3642766952966369
v 0.375 0 0.26072330470336313
v 0.4375 1.3877787807814457e-17 0.26072330470336313
v 0.375 0.0732233047033631 0.18750000000000003
v 0.4375 0.07322330470336312 0.18750000000000003
v 0.375 0.17677669529663687 0.1875
v 0.4375 0.1767766952966369 0.1875
v 0.375 0.24999999999999997 0.260723304703363
v 0.4375 0.25 0.260723304703363
v 0.375 0.25 0.3642766952966369
v 0.4375 0.25 0.3642766952966369
v 0.375 0.17677669529663698 0.4375
v 0.4375 0.17677669529663698 0.4375
vt 0.046875 0.984375
vt 0.015625 0.984375
vt 0.015625 0.953125
vt 0.109375 0.984375
vt 0.078125 0.984375
vt 0.078125 0.953125
vt 0.109375 0.953125
vt 0.171875 0.984375
vt 0.140625 0.984375
vt 0.140625 0.953125
vt 0.234375 0.984375
vt 0.203125 0.984375
vt 0.203125 0.953125
vt 0.296875 0.984375
vt 0.265625 0.984375
vt 0.265625 0.953125
vt 0.296875 0.953125
vt 0.359375 0.984375
vt 0.328125 0.984375
vt 0.328125 0.953125
vt 0.421875 0.984375
vt 0.390625 0.984375
vt 0.390625 0.953125
vt 0.484375 0.984375
vt 0.453125 0.984375
vt 0.453125 0.953125
vt 0.484375 0.953125
vt 0.546875 0.984375
vt 0.515625 0.984375
vt 0.515625 0.953125
vt 0.609375 0.984375
vt 0.578125 0.984375
vt 0.578125 0.953125
vt 0.671875 0.984375
vt 0.640625 0.984375
vt 0.640625 0.953125
vt 0.671875 0.953125
vt 0.734375 0.984375
vt 0.703125 0.984375
vt 0.703125 0.953125
vt 0.796875 0.984375
vt 0.765625 0.984375
vt 0.765625 0.953125
vt 0.859375 0.984375
vt 0.828125 0.984375
vt 0.828125 0.953125
vt 0.859375 0.953125
vt 0.921875 0.984375
vt 0.890625 0.984375
vt 0.890625 0.953125
vt 0.984375 0.984375
vt 0.953125 0.984375
vt 0.953125 0.953125
vt 0.046875 0.921875
vt 0.015625 0.921875
vt 0.015625 0.890625
vt 0.046875 0.890625
vt 0.109375 0.921875
vt 0.078125 0.921875
vt 0.078125 0.890625
vt 0.171875 0.921875
vt 0.140625 0.921875
vt 0.140625 0.890625
vt 0.234375 0.921875
vt 0.203125 0.921875
vt 0.203125 0.890625
vt 0.234375 0.890625
vt 0.296875 0.921875
vt 0.265625 0.921875
vt 0.265625 0.890625
vt 0.359375 0.921875
vt 0.328125 0.921875
vt 0.328125 0.890625
vt 0.421875 0.921875
vt 0.390625 0.921875
vt 0.390625 0.890625
vt 0.421875 0.890625
vt 0.484375 0.921875
vt 0.453125 0.921875
vt 0.453125 0.890625
vn -1 -2.220446049250313e-16 0
vn 1.570092458683775e-16 -0.7071067811865475 0.7071067811865476
vn 1 2.220446049250313e-16 0
vn -1 -2.220446049250313e-16 0
vn 2.220446049250313e-16 -1 0
vn 1 2.220446049250313e-16 0
vn -1 -2.220446049250313e-16 0
vn 1.5700924586837752e-16 -0.7071067811865476 -0.7071067811865476
vn 1 2.220446049250313e-16 0
vn -1 -2.220446049250313e-16 0
vn 5.95149592565776e-32 -2.6803154833089315e-16 -1
vn 1 2.220446049250313e-16 0
vn -1 -2.220446049250313e-16 0
vn -1.5700924586837747e-16 0.7071067811865474 -0.7071067811865478
vn 1 2.220446049250313e-16 0
vn -1 -2.220446049250313e-16 0
vn -2.220446049250313e-16 1 -2.680315483308929e-16
vn 1 2.220446049250313e-16 0
vn -1 -2.220446049250313e-16 0
vn -1.5700924586837754e-16 0.7071067811865477 0.7071067811865474
vn 1 2.220446049250313e-16 0
vn -1 -2.220446049250313e-16 0
vn -5.951495925657755e-32 2.680315483308929e-16 1
vn 1 2.220446049250313e-16 0
usemtl m_eeb110d2-761e-59d1-91be-c1d2c18ab9dd
f 75/289/85 73/290/85 71/291/85
f 73/292/86 75/293/86 76/294/86 74/295/86
f 74/296/87 76/297/87 72/298/87
f 77/299/88 75/300/88 71/301/88
f 75/302/89 77/303/89 78/304/89 76/305/89
f 76/306/90 78/307/90 72/308/90
f 79/309/91 77/310/91 71/311/91
f 77/312/92 79/313/92 80/314/92 78/315/92
f 78/316/93 80/317/93 72/318/93
f 81/319/94 79/320/94 71/321/94
f 79/322/95 81/323/95 82/324/95 80/325/95
f 80/326/96 82/327/96 72/328/96
f 83/329/97 81/330/97 71/331/97
f 81/332/98 83/333/98 84/334/98 82/335/98
f 82/336/99 84/337/99 72/338/99
f 85/339/100 83/340/100 71/341/100
f 83/342/101 85/343/101 86/344/101 84/345/101
f 84/346/102 86/347/102 72/348/102
f 87/349/103 85/350/103 71/351/103
f 85/352/104 87/353/104 88/354/104 86/355/104
f 86/356/105 88/357/105 72/358/105
f 73/359/106 87/360/106 71/361/106
f 87/362/107 73/363/107 74/364/107 88/365/107
f 88/366/108 74/367/108 72/368/108