# Made in Blockbench 4.12.4
mtllib materials.mtl

o grass
v 0.125 0.0625 0.125
v 0.125 0.0625 -0.125
v 0.125 0 0.125
v 0.125 0 -0.125
v -0.125 0.0625 0.125
v -0.125 0.0625 -0.125
v -0.125 0 0.125
v -0.125 0 -0.125
vt 0.65625 1
vt 0.40625 1
vt 0.40625 0.9375
vt 0.65625 0.9375
vt 0.65625 0.859375
vt 0.65625 0.921875
vt 0.40625 0.921875
vt 0.40625 0.859375
vt 0 0.484375
vt 0.25 0.484375
vt 0.25 0.734375
vt 0 0.734375
vt 0.25 0.484375
vt 0.25 0.734375
vt 0 0.734375
vt 0 0.484375
vt 0.65625 0.78125
vt 0.65625 0.84375
vt 0.40625 0.84375
vt 0.40625 0.78125
vt 0.65625 0.765625
vt 0.40625 0.765625
vt 0.40625 0.703125
vt 0.65625 0.703125
vn 1 0 0
vn -1 0 0
vn 0 1 0
vn 0 -1 0
vn 0 0 1
vn 0 0 -1
usemtl m_1b638453-6388-3d30-a286-ea921799987e
f 2/1/1 1/2/1 3/3/1 4/4/1
f 7/5/2 5/6/2 6/7/2 8/8/2
f 5/9/3 1/10/3 2/11/3 6/12/3
f 4/13/4 3/14/4 7/15/4 8/16/4
f 3/17/5 1/18/5 5/19/5 7/20/5
f 6/21/6 2/22/6 4/23/6 8/24/6
o plane
v 0.0078125 0.0796875 -0.078125
v 0.0078125 0.0796875 -0.109375
v -0.0078125 0.0796875 -0.078125
v -0.0078125 0.0796875 -0.109375
vt 0.421875 0.53125
vt 0.421875 0.5625
vt 0.40625 0.5625
vt 0.40625 0.53125
vn 0 1 0
usemtl m_1b638453-6388-3d30-a286-ea921799987e
f 9/25/7 10/26/7 12/27/7 11/28/7
o plane
v 0.0078125 0.0796875 0.109375
v 0.0078125 0.0796875 0.078125
v -0.0078125 0.0796875 0.109375
v -0.0078125 0.0796875 0.078125
vt 0.421875 0.53125
vt 0.421875 0.5625
vt 0.40625 0.5625
vt 0.40625 0.53125
vn 0 1 0
usemtl m_1b638453-6388-3d30-a286-ea921799987e
f 13/29/8 14/30/8 16/31/8 15/32/8
o plane
v 0.0078125 0.0796875 -0.015625
v 0.0078125 0.0796875 -0.046875
v -0.0078125 0.0796875 -0.015625
v -0.0078125 0.0796875 -0.046875
vt 0.421875 0.53125
vt 0.421875 0.5625
vt 0.40625 0.5625
vt 0.40625 0.53125
vn 0 1 0
usemtl m_1b638453-6388-3d30-a286-ea921799987e
f 17/33/9 18/34/9 20/35/9 19/36/9
o plane
v 0.0078125 0.0796875 0.046875
v 0.0078125 0.0796875 0.015625
v -0.0078125 0.0796875 0.046875
v -0.0078125 0.0796875 0.015625
vt 0.421875 0.53125
vt 0.421875 0.5625
vt 0.40625 0.5625
vt 0.40625 0.53125
vn 0 1 0
usemtl m_1b638453-6388-3d30-a286-ea921799987e
f 21/37/10 22/38/10 24/39/10 23/40/10
o plane
v -0.109375 0.0796875 0.007812500000000003
v -0.078125 0.0796875 0.0078124999999999965
v -0.109375 0.0796875 -0.0078124999999999965
v -0.078125 0.0796875 -0.007812500000000003
vt 0.421875 0.53125
vt 0.421875 0.5625
vt 0.40625 0.5625
vt 0.40625 0.53125
vn 0 1 0
usemtl m_1b638453-6388-3d30-a286-ea921799987e
f 25/41/11 26/42/11 28/43/11 27/44/11
o plane
v -0.046875 0.0796875 0.007812500000000003
v -0.015625 0.0796875 0.0078124999999999965
v -0.046875 0.0796875 -0.0078124999999999965
v -0.015625 0.0796875 -0.007812500000000003
vt 0.421875 0.53125
vt 0.421875 0.5625
vt 0.40625 0.5625
vt 0.40625 0.53125
vn 0 1 0
usemtl m_1b638453-6388-3d30-a286-ea921799987e
f 29/45/12 30/46/12 32/47/12 31/48/12
o plane
v 0.015625 0.0796875 0.007812500000000003
v 0.046875 0.0796875 0.0078124999999999965
v 0.015625 0.0796875 -0.0078124999999999965
v 0.046875 0.0796875 -0.007812500000000003
vt 0.421875 0.53125
vt 0.421875 0.5625
vt 0.40625 0.5625
vt 0.40625 0.53125
vn 0 1 0
usemtl m_1b638453-6388-3d30-a286-ea921799987e
f 33/49/13 34/50/13 36/51/13 35/52/13
o plane
v 0.078125 0.0796875 0.007812500000000003
v 0.109375 0.0796875 0.0078124999999999965
v 0.078125 0.0796875 -0.0078124999999999965
v 0.109375 0.0796875 -0.007812500000000003
vt 0.421875 0.53125
vt 0.421875 0.5625
vt 0.40625 0.5625
vt 0.40625 0.53125
vn 0 1 0
usemtl m_1b638453-6388-3d30-a286-ea921799987e
f 37/53/14 38/54/14 40/55/14 39/56/14
o road
v 0.0625 0.078125 0.125
v 0.0625 0.078125 -0.125
v 0.0625 0.0625 0.125
v 0.0625 0.0625 -0.125
v -0.0625 0.078125 0.125
v -0.0625 0.078125 -0.125
v -0.0625 0.0625 0.125
v -0.0625 0.0625 -0.125
vt 0.65625 0.6875
vt 0.40625 0.6875
vt 0.40625 0.671875
vt 0.65625 0.671875
vt 0.65625 0.640625
vt 0.65625 0.65625
vt 0.40625 0.65625
vt 0.40625 0.640625
vt 0.265625 0.75
vt 0.390625 0.75
vt 0.390625 1
vt 0.265625 1
vt 0.390625 0.484375
vt 0.390625 0.734375
vt 0.265625 0.734375
vt 0.265625 0.484375
vt 0.53125 0.609375
vt 0.53125 0.625
vt 0.40625 0.625
vt 0.40625 0.609375
vt 0.53125 0.59375
vt 0.40625 0.59375
vt 0.40625 0.578125
vt 0.53125 0.578125
vn 1 0 0
vn -1 0 0
vn 0 1 0
vn 0 -1 0
vn 0 0 1
vn 0 0 -1
usemtl m_1b638453-6388-3d30-a286-ea921799987e
f 42/57/15 41/58/15 43/59/15 44/60/15
f 47/61/16 45/62/16 46/63/16 48/64/16
f 45/65/17 41/66/17 42/67/17 46/68/17
f 44/69/18 43/70/18 47/71/18 48/72/18
f 43/73/19 41/74/19 45/75/19 47/76/19
f 46/77/20 42/78/20 44/79/20 48/80/20
o road
v -0.12499999999999999 0.078125 0.06250000000000003
v 0.125 0.078125 0.06249999999999997
v -0.12499999999999999 0.0625 0.06250000000000003
v 0.125 0.0625 0.06249999999999997
v -0.125 0.078125 -0.06249999999999997
v 0.12499999999999999 0.078125 -0.06250000000000003
v -0.125 0.0625 -0.06249999999999997
v 0.12499999999999999 0.0625 -0.06250000000000003
vt 0.65625 0.6875
vt 0.40625 0.6875
vt 0.40625 0.671875
vt 0.65625 0.671875
vt 0.65625 0.640625
vt 0.65625 0.65625
vt 0.40625 0.65625
vt 0.40625 0.640625
vt 0.265625 0.75
vt 0.390625 0.75
vt 0.390625 1
vt 0.265625 1
vt 0.390625 0.484375
vt 0.390625 0.734375
vt 0.265625 0.734375
vt 0.265625 0.484375
vt 0.53125 0.609375
vt 0.53125 0.625
vt 0.40625 0.625
vt 0.40625 0.609375
vt 0.53125 0.59375
vt 0.40625 0.59375
vt 0.40625 0.578125
vt 0.53125 0.578125
vn 2.220446049250313e-16 0 1
vn -2.220446049250313e-16 0 -1
vn 0 1 0
vn 0 -1 0
vn -1 0 2.220446049250313e-16
vn 1 0 -2.220446049250313e-16
usemtl m_1b638453-6388-3d30-a286-ea921799987e
f 50/81/21 49/82/21 51/83/21 52/84/21
f 55/85/22 53/86/22 54/87/22 56/88/22
f 53/89/23 49/90/23 50/91/23 54/92/23
f 52/93/24 51/94/24 55/95/24 56/96/24
f 51/97/25 49/98/25 53/99/25 55/100/25
f 54/101/26 50/102/26 52/103/26 56/104/26