# Made in Blockbench 4.12.5
mtllib materials.mtl

o grass
v 0.125 0.0625 0.125
v 0.125 0.0625 -0.125
v 0.125 0 0.125
v 0.125 0 -0.125
v -0.125 0.0625 0.125
v -0.125 0.0625 -0.125
v -0.125 0 0.125
v -0.125 0 -0.125
vt 0.65625 1
vt 0.40625 1
vt 0.40625 0.9375
vt 0.65625 0.9375
vt 0.65625 0.859375
vt 0.65625 0.921875
vt 0.40625 0.921875
vt 0.40625 0.859375
vt 0 0.484375
vt 0.25 0.484375
vt 0.25 0.734375
vt 0 0.734375
vt 0.25 0.484375
vt 0.25 0.734375
vt 0 0.734375
vt 0 0.484375
vt 0.65625 0.78125
vt 0.65625 0.84375
vt 0.40625 0.84375
vt 0.40625 0.78125
vt 0.65625 0.765625
vt 0.40625 0.765625
vt 0.40625 0.703125
vt 0.65625 0.703125
vn 1 0 0
vn -1 0 0
vn 0 1 0
vn 0 -1 0
vn 0 0 1
vn 0 0 -1
usemtl m_f4890b44-5021-8e3c-82f4-99291cf23399
f 2/1/1 1/2/1 3/3/1 4/4/1
f 7/5/2 5/6/2 6/7/2 8/8/2
f 5/9/3 1/10/3 2/11/3 6/12/3
f 4/13/4 3/14/4 7/15/4 8/16/4
f 3/17/5 1/18/5 5/19/5 7/20/5
f 6/21/6 2/22/6 4/23/6 8/24/6
o grass
v 0.125 0.0859375 0.125
v 0.125 0.0859375 -0.125
v 0.125 0.0625 0.125
v 0.125 0.0625 -0.125
v 0.0625 0.0859375 0.125
v -0.125 0.0859375 -0.0625
v 0.0625 0.0625 0.125
v -0.125 0.0625 -0.0625
v -0.03125 0.0859375 -0.0625
v -0.03125 0.0625 -0.0625
v 0.09375 0.0859375 0
v -0.125 0.0859375 -0.125
v -0.125 0.0625 -0.12500000000000003
v 0.0625 0.0859375 0.03125
v 0.0625 0.0625 0.03125
vt 0.65625 1
vt 0.40625 1
vt 0.40625 0.9375
vt 0.65625 0.9375
vt 0.65625 0.78125
vt 0.65625 0.84375
vt 0.40625 0.84375
vt 0.40625 0.78125
vt 0 0.611537226219445
vt 0 0.484375
vt 0.25 0.484375
vt 0.53125 0.921875
vt 0.40625 0.859375
vt 0.533412226219445 0.859375
vt 0.25 0.484375
vt 0.25 0.734375
vt 0.125 0.609375
vt 0.53125 0.921875
vt 0.40625 0.921875
vt 0.40625 0.859375
vt 0.02528540857078232 0.734375
vt 0 0.734375
vt 0 0.609375
vt 0.65625 0.765625
vt 0.6309645914292178 0.765625
vt 0.6329481452288199 0.7046680232133193
vt 0.65625 0.703125
vt 0.125 0.609375
vt 0.25 0.734375
vt 0 0.609375
vt 0.6329481452288199 0.7046680232133193
vt 0.6309645914292178 0.765625
vt 0.40625 0.765625
vt 0.40625 0.703125
vt 0 0.5241725804341284
vt 0 0.484375
vt 0.25 0.484375
vt 0.125 0.609375
vt 0.125 0.609375
vt 0 0.609375
vt 0 0.5241725804341284
vt 0 0.611537226219445
vt 0.25 0.484375
vt 0 0.6676308582514214
vt 0.25 0.734375
vt 0 0.734375
vt 0 0.6676308582514214
vt 0.533412226219445 0.859375
vt 0.6069100062948969 0.859375
vt 0.6041044407212705 0.921875
vt 0.53125 0.921875
vt 0.6069100062948969 0.859375
vt 0.65625 0.859375
vt 0.65625 0.921875
vt 0.6041044407212705 0.921875
vt 0 0.609375
vt 0.25 0.734375
vt 0.02528540857078232 0.734375
vt 0 0.6676308582514214
vt 0.25 0.484375
vt 0.25 0.734375
vn 1 0 0
vn 0 0 1
vn 0 -1 0
vn 0 0 1
vn 0 1 0
vn 0 0 1
vn 0 1 0
vn -1 0 0
vn 0 1 0
vn 0 1.1842378929335002e-15 -1
vn 0 1 0
vn 0 1 0
vn 0 -1 0
vn 0 -1 0
vn -0.7071067811865476 0 0.7071067811865476
vn -1 0 0
vn 0 1 0
vn 0 -1 0
usemtl m_f4890b44-5021-8e3c-82f4-99291cf23399
f 10/25/7 9/26/7 11/27/7 12/28/7
f 11/29/8 9/30/8 13/31/8 15/32/8
f 18/33/9 16/34/9 12/35/9
f 17/36/10 16/37/10 18/38/10
f 9/39/11 10/40/11 19/41/11
f 17/42/12 14/43/12 16/44/12
f 20/45/13 14/46/13 17/47/13
f 14/48/14 20/49/14 21/50/14 16/51/14
f 19/52/15 10/53/15 17/54/15
f 21/55/16 20/56/16 10/57/16 12/58/16
f 22/59/17 13/60/17 9/61/17 19/62/17
f 19/63/18 17/64/18 22/65/18
f 18/66/19 12/67/19 23/68/19
f 11/69/20 15/70/20 23/71/20
f 18/72/21 23/73/21 22/74/21 17/75/21
f 23/76/22 15/77/22 13/78/22 22/79/22
f 17/80/23 10/81/23 20/82/23
f 23/83/24 12/84/24 11/85/24
o grass
v -0.0625 0.0859375 0.125
v -0.0625 0.0859375 0.09375
v -0.0625 0.0625 0.125
v -0.0625 0.0625 0.09375
v -0.125 0.0859375 0.125
v -0.125 0.0859375 0.0625
v -0.125 0.0625 0.125
v -0.125 0.0625 0.0625
v -0.09375 0.0859375 0.0625
v -0.09375 0.0625 0.0625
v -0.0920405702801601 0.0859375 0.06833674589037009
vt 0.65625 1
vt 0.40625 1
vt 0.40625 0.9375
vt 0.65625 0.9375
vt 0.65625 0.859375
vt 0.65625 0.921875
vt 0.40625 0.921875
vt 0.40625 0.859375
vt 0.65625 0.78125
vt 0.65625 0.84375
vt 0.40625 0.84375
vt 0.40625 0.78125
vt 0.125 0.734375
vt 0 0.734375
vt 0 0.484375
vt 0.53125 0.765625
vt 0.40625 0.765625
vt 0.40625 0.703125
vt 0.125 0.484375
vt 0.25 0.484375
vt 0.25 0.734375
vt 0 0.734375
vt 0 0.734375
vt 0 0.484375
vt 0.125 0.484375
vt 0.65625 0.703125
vt 0.65625 0.765625
vt 0.53125 0.765625
vt 0.53125 0.703125
vt 0.53125 0.765625
vt 0.40625 0.703125
vt 0.53125 0.703125
vt 0.125 0.734375
vt 0 0.484375
vt 0.13183771887935958 0.7110280164385196
vt 0.13183771887935958 0.7110280164385196
vt 0 0.484375
vt 0.25 0.484375
vt 0.25 0.734375
vt 0.25 0.734375
vt 0.125 0.734375
vt 0.13183771887935958 0.7110280164385196
vn 1 0 0
vn -1 0 0
vn 0 0 1
vn 0 1 0
vn 0.7071067811865476 0 -0.7071067811865476
vn 0 -1 0
vn 0 -1 0
vn 0 0 -1
vn 0.7071067811865476 0 -0.7071067811865476
vn 0 1 0
vn 0 1 0
vn 0 1 0
usemtl m_f4890b44-5021-8e3c-82f4-99291cf23399
f 25/86/25 24/87/25 26/88/25 27/89/25
f 30/90/26 28/91/26 29/92/26 31/93/26
f 26/94/27 24/95/27 28/96/27 30/97/27
f 32/98/28 29/99/28 28/100/28
f 32/101/29 25/102/29 27/103/29
f 33/104/30 27/105/30 26/106/30 30/107/30
f 30/108/31 31/109/31 33/110/31
f 31/111/32 29/112/32 32/113/32 33/114/32
f 32/115/33 27/116/33 33/117/33
f 32/118/34 28/119/34 34/120/34
f 34/121/35 28/122/35 24/123/35 25/124/35
f 25/125/36 32/126/36 34/127/36
o road
v -0.12499999999999999 0.078125 0.06250000000000003
v -0.06249999999999997 0.078125 0.125
v -0.12499999999999999 0.0625 0.06250000000000003
v -0.06249999999999997 0.0625 0.125
v -0.125 0.078125 -0.06249999999999997
v 0.06250000000000003 0.078125 0.12499999999999999
v -0.125 0.0625 -0.06249999999999997
v 0.06250000000000003 0.0625 0.12499999999999999
v -0.06249999999999998 0.078125 0.09375000000000001
v -0.06249999999999998 0.0625 0.09375000000000001
v -0.031250000000000014 0.078125 -0.06249999999999999
v -0.031250000000000014 0.0625 -0.06249999999999999
v 0.0625 0.078125 0.031249999999999986
v 0.0625 0.0625 0.031249999999999986
v -0.09374999999999999 0.078125 0.06250000000000003
v -0.09374999999999999 0.0625 0.06250000000000003
vt 0.78125 0.28125
vt 0.78125 0.296875
vt 0.65625 0.296875
vt 0.65625 0.28125
vt 0.828125 0.4375
vt 0.703125 0.4375
vt 0.703125 0.421875
vt 0.828125 0.421875
vt 0.53125 0.46875
vt 0.5 0.46875
vt 0.5 0.453125
vt 0.53125 0.453125
vt 0.796875 0.359375
vt 0.796875 0.375
vt 0.703125 0.375
vt 0.703125 0.359375
vt 0.65625 0.609375
vt 0.5 0.671875
vt 0.5 0.578125
vt 0.65625 0.34375
vt 0.6875 0.34375
vt 0.6875 0.46875
vt 0.828125 0.40625
vt 0.703125 0.40625
vt 0.703125 0.390625
vt 0.828125 0.390625
vt 0.796875 0.34375
vt 0.703125 0.34375
vt 0.703125 0.328125
vt 0.796875 0.328125
vt 0.65625 0.609375
vt 0.5 0.578125
vt 0.59375 0.484375
vt 0.6875 0.609375
vt 0.59375 0.484375
vt 0.6875 0.484375
vt 0.6875 0.609375
vt 0.65625 0.34375
vt 0.6875 0.46875
vt 0.59375 0.46875
vt 0.59375 0.46875
vt 0.5 0.375
vt 0.65625 0.34375
vt 0.546875 0.5
vt 0.5 0.5
vt 0.5 0.484375
vt 0.546875 0.484375
vt 0.6875 0.671875
vt 0.65625 0.671875
vt 0.65625 0.65625
vt 0.6875 0.65625
vt 0.65625 0.609375
vt 0.625 0.640625
vt 0.5 0.671875
vt 0.625 0.640625
vt 0.625 0.671875
vt 0.5 0.671875
vt 0.5 0.28125
vt 0.625 0.28125
vt 0.625 0.3125
vt 0.5 0.375
vt 0.625 0.3125
vt 0.65625 0.34375
vt 0.5 0.375
vn -1 0 2.220446049250313e-16
vn 2.220446049250313e-16 0 1
vn -1 0 2.220446049250313e-16
vn -2.220446049250313e-16 0 -1
vn 0 -1 0
vn 0 1 0
vn 0.7071067811865475 0 -0.7071067811865477
vn 1 0 -2.220446049250313e-16
vn 0 -1 0
vn 0 -1 0
vn 0 1 0
vn 0 1 0
vn -0.7071067811865475 0 0.7071067811865477
vn 2.220446049250313e-16 0 1
vn 0 -1 0
vn 0 -1 0
vn 0 1 0
vn 0 1 0
usemtl m_f4890b44-5021-8e3c-82f4-99291cf23399
f 37/128/37 35/129/37 39/130/37 41/131/37
f 40/132/38 36/133/38 38/134/38 42/135/38
f 36/136/39 43/137/39 44/138/39 38/139/39
f 41/140/40 39/141/40 45/142/40 46/143/40
f 44/144/41 41/145/41 46/146/41
f 43/147/42 36/148/42 40/149/42
f 45/150/43 47/151/43 48/152/43 46/153/43
f 47/154/44 40/155/44 42/156/44 48/157/44
f 44/158/45 46/159/45 48/160/45 38/161/45
f 48/162/46 42/163/46 38/164/46
f 43/165/47 40/166/47 47/167/47
f 47/168/48 45/169/48 43/170/48
f 43/171/49 49/172/49 50/173/49 44/174/49
f 49/175/50 35/176/50 37/177/50 50/178/50
f 44/179/51 50/180/51 41/181/51
f 50/182/52 37/183/52 41/184/52
f 39/185/53 35/186/53 49/187/53 45/188/53
f 49/189/54 43/190/54 45/191/54
o plane
v -0.109375 0.0796875 0.007812500000000024
v -0.078125 0.0796875 0.007812500000000017
v -0.109375 0.0796875 -0.007812499999999976
v -0.078125 0.0796875 -0.007812499999999983
vt 0.4375 0.515625
vt 0.4375 0.546875
vt 0.421875 0.546875
vt 0.421875 0.515625
vn 0 1 0
usemtl m_f4890b44-5021-8e3c-82f4-99291cf23399
f 51/192/55 52/193/55 54/194/55 53/195/55
o plane
v -0.04715260864009951 0.0796875 0.0185834348159403
v -0.01724298616481959 0.0796875 0.04849305729122022
v -0.0361040651840597 0.0796875 0.007534891359900497
v -0.0061944427087797845 0.0796875 0.03744451383518041
vt 0.4375 0.5
vt 0.4375 0.53125
vt 0.421875 0.53125
vt 0.421875 0.5
vn 0 1 0
usemtl m_f4890b44-5021-8e3c-82f4-99291cf23399
f 55/196/56 56/197/56 58/198/56 57/199/56
o plane
v -0.00781249999999999 0.0796875 0.078125
v -0.007812499999999976 0.0796875 0.109375
v 0.00781250000000001 0.0796875 0.078125
v 0.007812500000000024 0.0796875 0.109375
vt 0.4375 0.515625
vt 0.4375 0.546875
vt 0.421875 0.546875
vt 0.421875 0.515625
vn 0 1 0
usemtl m_f4890b44-5021-8e3c-82f4-99291cf23399
f 59/200/57 60/201/57 62/202/57 61/203/57