# Made in Blockbench 4.12.4
mtllib materials.mtl

o water
v 0.125 0.03125 0.125
v 0.125 0.03125 -0.125
v -0.125 0.03125 0.125
v -0.125 0.03125 -0.125
vt 0.25 0.75
vt 0.25 1
vt 0 1
vt 0 0.75
vn 0 1 0
usemtl m_ee4f6df0-d071-f71a-a45e-d1355938bf45
f 1/1/1 2/2/1 4/3/1 3/4/1
o water
v 0.125 -0.0625 0.125
v 0.125 -0.0625 -0.125
v -0.125 -0.0625 0.125
v -0.125 -0.0625 -0.125
vt 0.25 0.484375
vt 0.25 0.734375
vt 0 0.734375
vt 0 0.484375
vn 0 1 0
usemtl m_ee4f6df0-d071-f71a-a45e-d1355938bf45
f 5/5/2 6/6/2 8/7/2 7/8/2
o grass
v 0.125 0.0625 -0.0625
v 0.125 0 0
v 0.0625 0.0625 -0.125
v 0.125 0.0625 -0.125
v 0 0 -0.125
v 0.125 0 -0.125
vt 0.59375 0.5625
vt 0.53125 0.5625
vt 0.46875 0.5
vt 0.59375 0.5
vt 0.59375 0.421875
vt 0.53125 0.484375
vt 0.46875 0.484375
vt 0.46875 0.421875
vt 0.390625 0.703125
vt 0.265625 0.578125
vt 0.390625 0.578125
vt 0.442403125 0.484375
vt 0.39820781250000004 0.5625
vt 0.30982031250000003 0.5625
vt 0.265625 0.484375
vt 0.265625 1
vt 0.328125 0.9375
vt 0.328125 1
vn 1 0 0
vn 0 0 -1
vn 0 -1 0
vn -0.5773502691896258 0.5773502691896258 0.5773502691896258
vn 0 1 0
usemtl m_ee4f6df0-d071-f71a-a45e-d1355938bf45
f 12/9/3 9/10/3 10/11/3 14/12/3
f 13/13/4 11/14/4 12/15/4 14/16/4
f 10/17/5 13/18/5 14/19/5
f 10/20/6 9/21/6 11/22/6 13/23/6
f 11/24/7 9/25/7 12/26/7
o grass
v 0.125 0 0
v 0.125 -0.0625 0.0625
v 0 0 -0.125
v 0.125 0 -0.125
v -0.0625 -0.0625 -0.125
v 0.125 -0.0625 -0.125
vt 0.65625 1
vt 0.53125 1
vt 0.46875 0.9375
vt 0.65625 0.9375
vt 0.65625 0.859375
vt 0.59375 0.921875
vt 0.46875 0.921875
vt 0.46875 0.859375
vt 0.453125 1
vt 0.265625 0.8125
vt 0.453125 0.8125
vt 0.5307906250000001 0.71875
vt 0.48659687500000004 0.796875
vt 0.30981875000000003 0.796875
vt 0.265625 0.71875
vt 0.40625 0.703125
vt 0.53125 0.578125
vt 0.53125 0.703125
vn 1 0 0
vn 0 0 -1
vn 0 -1 0
vn -0.5773502691896258 0.5773502691896258 0.5773502691896258
vn 0 1 0
usemtl m_ee4f6df0-d071-f71a-a45e-d1355938bf45
f 18/27/8 15/28/8 16/29/8 20/30/8
f 19/31/9 17/32/9 18/33/9 20/34/9
f 16/35/10 19/36/10 20/37/10
f 16/38/11 15/39/11 17/40/11 19/41/11
f 17/42/12 15/43/12 18/44/12