<svg width="480" height="480" xmlns="http://www.w3.org/2000/svg"><!--Crée par @nachtfalter par Natrix-Test 2.1.0-pre3--><path d="M0,0L120,0L0,120z" stroke="none" stroke-width="10" fill="#0a610a" stroke-linejoin="round"  ></path><path d="M480,480L0,480L0,120L120,0L480,0z" stroke="none" stroke-width="10" fill="#000"   ></path><path d="M150,210L210,150" stroke="#fff" stroke-width="15" fill="none"   ></path><path d="M390,479.999L390,420L420,390L480,390" stroke="#fff" stroke-width="15" fill="none"   ></path><path d="M30,479.999L30,150L150,30L480,30L480,0L120,0L0,120L0,480z" stroke="none" stroke-width="15" fill="#393936"   ></path><path d="M300,150L420,150" stroke="#fff" stroke-width="15" fill="none"   ></path><path d="M270,419.999L270,330" stroke="#fff" stroke-width="15" fill="none"   ></path><path d="M150,419.999L150,299.999" stroke="#fff" stroke-width="15" fill="none"   ></path><path d="M330,270L420,270" stroke="#fff" stroke-width="15" fill="none"   ></path></svg>