<svg width="480" height="480" xmlns="http://www.w3.org/2000/svg"><!--Crée par @nachtfalter par Natrix-Test 2.1.0-pre3--><path d="M0,0L480,0L480,480L0,480z" stroke="none" stroke-width="10" fill="#0a610a" stroke-linejoin="round"  ></path><path d="M0,0L120,120L480,120L480,360L120,360L0,480z" stroke="none" stroke-width="10" fill="#000"   ></path><path d="M450,240L390,240" stroke="#fff" stroke-width="15" fill="none"   ></path><path d="M210,240L0,240" stroke="#fff" stroke-width="15" fill="none"   ></path><path d="M330,240L270,240" stroke="#fff" stroke-width="15" fill="none"   ></path><path d="M375,420L375,390L390,375L405,375L435,390L435,420L420,435L390,435z" stroke="none" stroke-width="10" fill="#062e06"   ></path><path d="M165,450L165,435L180,405L210,405L225,420L225,450L210,465L180,465z" stroke="none" stroke-width="10" fill="#062e06"   ></path><path d="M180,90L180,60L195,45L225,45L240,75L240,90L225,105L195,105z" stroke="none" stroke-width="10" fill="#062e06"   ></path><path d="M345,75L345,45L360,30L390,30L405,45L405,75L390,90L375,90z" stroke="none" stroke-width="10" fill="#062e06"   ></path></svg>