<svg width="480" height="480" xmlns="http://www.w3.org/2000/svg"><!--Crée par @nachtfalter par Natrix-Test 2.1.0-pre3--><path d="M480,480L0,480L0,0L480,0z" stroke="none" stroke-width="10" fill="#000"   ></path><path d="M270,179.999L270,59.999" stroke="#fff" stroke-width="15" fill="none"   ></path><path d="M390,300L390,180" stroke="#fff" stroke-width="15" fill="none"   ></path><path d="M150,179.999L150,59.999" stroke="#fff" stroke-width="15" fill="none"   ></path><path d="M270,419.999L270,299.999" stroke="#fff" stroke-width="15" fill="none"   ></path><path d="M150,419.999L150,299.999" stroke="#fff" stroke-width="15" fill="none"   ></path><path d="M30,479.999L30,0L0,0L0,480z" stroke="none" stroke-width="15" fill="#393936"   ></path><path d="M390,90L390,30" stroke="#fff" stroke-width="15" fill="none"   ></path><path d="M390,150L390,180L450,240" stroke="#fff" stroke-width="15" fill="none"   ></path><path d="M390,330L390,300L450,240L480,240" stroke="#fff" stroke-width="15" fill="none"   ></path><path d="M390,450L390,390" stroke="#fff" stroke-width="15" fill="none"   ></path></svg>