# Made in Blockbench 4.12.5
mtllib materials.mtl

o grass
v 0.125 0.0625 0.125
v 0.125 0.0625 -0.125
v 0.125 0 0.125
v 0.125 0 -0.125
v -0.125 0.0625 0.125
v -0.125 0.0625 -0.125
v -0.125 0 0.125
v -0.125 0 -0.125
vt 0.65625 1
vt 0.40625 1
vt 0.40625 0.9375
vt 0.65625 0.9375
vt 0.65625 0.859375
vt 0.65625 0.921875
vt 0.40625 0.921875
vt 0.40625 0.859375
vt 0 0.484375
vt 0.25 0.484375
vt 0.25 0.734375
vt 0 0.734375
vt 0.25 0.484375
vt 0.25 0.734375
vt 0 0.734375
vt 0 0.484375
vt 0.65625 0.78125
vt 0.65625 0.84375
vt 0.40625 0.84375
vt 0.40625 0.78125
vt 0.65625 0.765625
vt 0.40625 0.765625
vt 0.40625 0.703125
vt 0.65625 0.703125
vn 1 0 0
vn -1 0 0
vn 0 1 0
vn 0 -1 0
vn 0 0 1
vn 0 0 -1
usemtl m_f4890b44-5021-8e3c-82f4-99291cf23399
f 2/1/1 1/2/1 3/3/1 4/4/1
f 7/5/2 5/6/2 6/7/2 8/8/2
f 5/9/3 1/10/3 2/11/3 6/12/3
f 4/13/4 3/14/4 7/15/4 8/16/4
f 3/17/5 1/18/5 5/19/5 7/20/5
f 6/21/6 2/22/6 4/23/6 8/24/6
o grass
v -0.0625 0.0859375 0.125
v -0.0625 0.0859375 -0.125
v -0.0625 0.0625 0.125
v -0.0625 0.0625 -0.125
v -0.125 0.0859375 0.125
v -0.125 0.0859375 -0.125
v -0.125 0.0625 0.125
v -0.125 0.0625 -0.125
v -0.09375 0.0859375 0.0625
v -0.09375 0.0859375 -0.0625
v -0.0625 0.078125 -0.046875
v -0.0625 0.078125 0.046875
v -0.078125 0.078125 -0.046875
v -0.078125 0.078125 0.046875
v -0.0625 0.0859375 0.0625
v -0.0625 0.0859375 -0.0625
vt 0.65625 0.859375
vt 0.65625 0.921875
vt 0.40625 0.921875
vt 0.40625 0.859375
vt 0.25 0.484375
vt 0.25 0.734375
vt 0 0.734375
vt 0 0.484375
vt 0.65625 0.78125
vt 0.65625 0.84375
vt 0.40625 0.84375
vt 0.40625 0.78125
vt 0.65625 0.765625
vt 0.40625 0.765625
vt 0.40625 0.703125
vt 0.65625 0.703125
vt 0.5782743493141758 1
vt 0.484453293029957 1
vt 0.65625 0.9375
vt 0 0.734375
vt 0 0.484375
vt 0.09920062929520412 0.564602408921789
vt 0.10512931267983139 0.6619466194914525
vt 0.5658689537913535 1
vt 0.4990709738007648 1
vt 0.40625 0.9375
vt 0.09920062929520412 0.564602408921789
vt 0.25 0.562578293029957
vt 0.17183177880475986 0.5778539928531929
vt 0.17183177880475986 0.5778539928531929
vt 0.25 0.562578293029957
vt 0.25 0.6563993493141758
vt 0.16811663364506302 0.6479343686771155
vt 0.25 0.6563993493141758
vt 0.10512931267983139 0.6619466194914525
vt 0.16811663364506302 0.6479343686771155
vt 0.16811663364506302 0.6479343686771155
vt 0.10512931267983139 0.6619466194914525
vt 0.09920062929520412 0.564602408921789
vt 0.17183177880475986 0.5778539928531929
vt 0.65625 0.9375
vt 0.5658689537913535 1
vt 0.40625 0.9375
vt 0.40625 1
vt 0.40625 0.9375
vt 0.47336822656835087 1
vt 0.40625 0.9375
vt 0.484453293029957 1
vt 0.47336822656835087 1
vt 0.22785760750992873 0.5532304305116239
vt 0.09920062929520412 0.564602408921789
vt 0 0.484375
vt 0.25 0.484375
vt 0.22785760750992873 0.5532304305116239
vt 0.25 0.562578293029957
vt 0.09920062929520412 0.564602408921789
vt 0.23413193018181977 0.6765361049376826
vt 0.25 0.734375
vt 0 0.734375
vt 0.10512931267983139 0.6619466194914525
vt 0.10512931267983139 0.6619466194914525
vt 0.25 0.6563993493141758
vt 0.23413193018181977 0.6765361049376826
vt 0.65625 0.9375
vt 0.65625 1
vt 0.58407470337484 1
vt 0.58407470337484 1
vt 0.5658689537913535 1
vt 0.65625 0.9375
vn -1 0 0
vn 0 -1 0
vn 0 0 1
vn 0 0 -1
vn 1 0 0
vn 0 1 0
vn 1 0 0
vn 0 0.8944271909999161 -0.44721359549995804
vn 0 1 0
vn 0 0.8944271909999161 0.44721359549995804
vn 0.44721359549995804 0.8944271909999161 0
vn 1 0 0
vn 1 0 0
vn 1 0 0
vn 0 1 0
vn 0 0.8944271909999161 -0.44721359549995804
vn 0 1 0
vn 0 0.8944271909999161 0.44721359549995804
vn 1 0 0
vn 1 0 0
usemtl m_f4890b44-5021-8e3c-82f4-99291cf23399
f 15/25/7 13/26/7 14/27/7 16/28/7
f 12/29/8 11/30/8 15/31/8 16/32/8
f 11/33/9 9/34/9 13/35/9 15/36/9
f 14/37/10 10/38/10 12/39/10 16/40/10
f 19/41/11 20/42/11 12/43/11
f 14/44/12 13/45/12 17/46/12 18/47/12
f 19/48/13 20/49/13 11/50/13
f 17/51/14 20/52/14 22/53/14
f 22/54/15 20/55/15 19/56/15 21/57/15
f 19/58/16 18/59/16 21/60/16
f 21/61/17 18/62/17 17/63/17 22/64/17
f 12/65/18 19/66/18 11/67/18
f 9/68/19 11/69/19 23/70/19
f 11/71/20 20/72/20 23/73/20
f 23/74/21 17/75/21 13/76/21 9/77/21
f 23/78/22 20/79/22 17/80/22
f 24/81/23 10/82/23 14/83/23 18/84/23
f 18/85/24 19/86/24 24/87/24
f 12/88/25 10/89/25 24/90/25
f 24/91/26 19/92/26 12/93/26
o road
v 0.0625 0.078125 0.125
v 0.0625 0.078125 -0.125
v 0.0625 0.0625 0.125
v 0.0625 0.0625 -0.125
v -0.0625 0.078125 0.125
v -0.0625 0.078125 -0.125
v -0.0625 0.0625 0.125
v -0.0625 0.0625 -0.125
vt 0.65625 0.6875
vt 0.40625 0.6875
vt 0.40625 0.671875
vt 0.65625 0.671875
vt 0.65625 0.640625
vt 0.65625 0.65625
vt 0.40625 0.65625
vt 0.40625 0.640625
vt 0.265625 0.75
vt 0.390625 0.75
vt 0.390625 1
vt 0.265625 1
vt 0.390625 0.484375
vt 0.390625 0.734375
vt 0.265625 0.734375
vt 0.265625 0.484375
vt 0.53125 0.609375
vt 0.53125 0.625
vt 0.40625 0.625
vt 0.40625 0.609375
vt 0.53125 0.59375
vt 0.40625 0.59375
vt 0.40625 0.578125
vt 0.53125 0.578125
vn 1 0 0
vn -1 0 0
vn 0 1 0
vn 0 -1 0
vn 0 0 1
vn 0 0 -1
usemtl m_f4890b44-5021-8e3c-82f4-99291cf23399
f 26/94/27 25/95/27 27/96/27 28/97/27
f 31/98/28 29/99/28 30/100/28 32/101/28
f 29/102/29 25/103/29 26/104/29 30/105/29
f 28/106/30 27/107/30 31/108/30 32/109/30
f 27/110/31 25/111/31 29/112/31 31/113/31
f 30/114/32 26/115/32 28/116/32 32/117/32
o plane
v 0.0078125 0.0796875 0.109375
v 0.0078125 0.0796875 0.078125
v -0.0078125 0.0796875 0.109375
v -0.0078125 0.0796875 0.078125
vt 0.421875 0.53125
vt 0.421875 0.5625
vt 0.40625 0.5625
vt 0.40625 0.53125
vn 0 1 0
usemtl m_f4890b44-5021-8e3c-82f4-99291cf23399
f 33/118/33 34/119/33 36/120/33 35/121/33
o plane
v 0.0078125 0.0796875 -0.078125
v 0.0078125 0.0796875 -0.109375
v -0.0078125 0.0796875 -0.078125
v -0.0078125 0.0796875 -0.109375
vt 0.421875 0.53125
vt 0.421875 0.5625
vt 0.40625 0.5625
vt 0.40625 0.53125
vn 0 1 0
usemtl m_f4890b44-5021-8e3c-82f4-99291cf23399
f 37/122/34 38/123/34 40/124/34 39/125/34
o plane
v -0.0390625 0.0796875 0.046875
v -0.0390625 0.0796875 -0.046875
v -0.0546875 0.0796875 0.046875
v -0.0546875 0.0796875 -0.046875
vt 0.421875 0.53125
vt 0.421875 0.5625
vt 0.40625 0.5625
vt 0.40625 0.53125
vn 0 1 0
usemtl m_f4890b44-5021-8e3c-82f4-99291cf23399
f 41/126/35 42/127/35 44/128/35 43/129/35
o plane
v -0.0078125 0.0796875 0.046875
v -0.0078125 0.0796875 -0.046875
v -0.0234375 0.0796875 0.046875
v -0.0234375 0.0796875 -0.046875
vt 0.421875 0.53125
vt 0.421875 0.5625
vt 0.40625 0.5625
vt 0.40625 0.53125
vn 0 1 0
usemtl m_f4890b44-5021-8e3c-82f4-99291cf23399
f 45/130/36 46/131/36 48/132/36 47/133/36
o plane
v 0.0234375 0.0796875 0.046875
v 0.0234375 0.0796875 -0.046875
v 0.0078125 0.0796875 0.046875
v 0.0078125 0.0796875 -0.046875
vt 0.421875 0.53125
vt 0.421875 0.5625
vt 0.40625 0.5625
vt 0.40625 0.53125
vn 0 1 0
usemtl m_f4890b44-5021-8e3c-82f4-99291cf23399
f 49/134/37 50/135/37 52/136/37 51/137/37
o plane
v 0.0546875 0.0796875 0.046875
v 0.0546875 0.0796875 -0.046875
v 0.0390625 0.0796875 0.046875
v 0.0390625 0.0796875 -0.046875
vt 0.421875 0.53125
vt 0.421875 0.5625
vt 0.40625 0.5625
vt 0.40625 0.53125
vn 0 1 0
usemtl m_f4890b44-5021-8e3c-82f4-99291cf23399
f 53/138/38 54/139/38 56/140/38 55/141/38
o grass
v 0.06249999999999997 0.0859375 -0.12499999999999999
v 0.06250000000000001 0.0859375 0.12500000000000003
v 0.06249999999999997 0.0625 -0.12499999999999999
v 0.06250000000000001 0.0625 0.12500000000000003
v 0.12499999999999999 0.0859375 -0.12499999999999999
v 0.125 0.0859375 0.125
v 0.12499999999999999 0.0625 -0.12499999999999999
v 0.125 0.0625 0.125
v 0.09374999999999999 0.0859375 -0.062499999999999986
v 0.09375000000000001 0.0859375 0.06250000000000001
v 0.0625 0.078125 0.046875000000000014
v 0.0625 0.078125 -0.046874999999999986
v 0.078125 0.078125 0.046875000000000014
v 0.078125 0.078125 -0.046874999999999986
v 0.0625 0.0859375 -0.062499999999999986
v 0.06250000000000001 0.0859375 0.06250000000000001
vt 0.65625 0.859375
vt 0.65625 0.921875
vt 0.40625 0.921875
vt 0.40625 0.859375
vt 0.25 0.484375
vt 0.25 0.734375
vt 0 0.734375
vt 0 0.484375
vt 0.65625 0.78125
vt 0.65625 0.84375
vt 0.40625 0.84375
vt 0.40625 0.78125
vt 0.65625 0.765625
vt 0.40625 0.765625
vt 0.40625 0.703125
vt 0.65625 0.703125
vt 0.5782743493141758 1
vt 0.484453293029957 1
vt 0.65625 0.9375
vt 0 0.734375
vt 0 0.484375
vt 0.09920062929520412 0.564602408921789
vt 0.10512931267983139 0.6619466194914525
vt 0.5658689537913535 1
vt 0.4990709738007648 1
vt 0.40625 0.9375
vt 0.09920062929520412 0.564602408921789
vt 0.25 0.562578293029957
vt 0.17183177880475986 0.5778539928531929
vt 0.17183177880475986 0.5778539928531929
vt 0.25 0.562578293029957
vt 0.25 0.6563993493141758
vt 0.16811663364506302 0.6479343686771155
vt 0.25 0.6563993493141758
vt 0.10512931267983139 0.6619466194914525
vt 0.16811663364506302 0.6479343686771155
vt 0.16811663364506302 0.6479343686771155
vt 0.10512931267983139 0.6619466194914525
vt 0.09920062929520412 0.564602408921789
vt 0.17183177880475986 0.5778539928531929
vt 0.65625 0.9375
vt 0.5658689537913535 1
vt 0.40625 0.9375
vt 0.40625 1
vt 0.40625 0.9375
vt 0.47336822656835087 1
vt 0.40625 0.9375
vt 0.484453293029957 1
vt 0.47336822656835087 1
vt 0.22785760750992873 0.5532304305116239
vt 0.09920062929520412 0.564602408921789
vt 0 0.484375
vt 0.25 0.484375
vt 0.22785760750992873 0.5532304305116239
vt 0.25 0.562578293029957
vt 0.09920062929520412 0.564602408921789
vt 0.23413193018181977 0.6765361049376826
vt 0.25 0.734375
vt 0 0.734375
vt 0.10512931267983139 0.6619466194914525
vt 0.10512931267983139 0.6619466194914525
vt 0.25 0.6563993493141758
vt 0.23413193018181977 0.6765361049376826
vt 0.65625 0.9375
vt 0.65625 1
vt 0.58407470337484 1
vt 0.58407470337484 1
vt 0.5658689537913535 1
vt 0.65625 0.9375
vn 1 0 -1.2246467991473532e-16
vn 0 -1 0
vn -1.2246467991473532e-16 0 -1
vn 1.2246467991473532e-16 0 1
vn -1 0 1.2246467991473532e-16
vn 0 1 0
vn -1 0 1.2246467991473532e-16
vn 5.4767869826420275e-17 0.8944271909999161 0.44721359549995804
vn 0 1 0
vn -5.4767869826420275e-17 0.8944271909999161 -0.44721359549995804
vn -0.44721359549995804 0.8944271909999161 5.4767869826420275e-17
vn -1 0 1.2246467991473532e-16
vn -1 0 1.2246467991473532e-16
vn -1 0 1.2246467991473532e-16
vn 0 1 0
vn 5.4767869826420275e-17 0.8944271909999161 0.44721359549995804
vn 0 1 0
vn -5.4767869826420275e-17 0.8944271909999161 -0.44721359549995804
vn -1 0 1.2246467991473532e-16
vn -1 0 1.2246467991473532e-16
usemtl m_f4890b44-5021-8e3c-82f4-99291cf23399
f 63/142/39 61/143/39 62/144/39 64/145/39
f 60/146/40 59/147/40 63/148/40 64/149/40
f 59/150/41 57/151/41 61/152/41 63/153/41
f 62/154/42 58/155/42 60/156/42 64/157/42
f 67/158/43 68/159/43 60/160/43
f 62/161/44 61/162/44 65/163/44 66/164/44
f 67/165/45 68/166/45 59/167/45
f 65/168/46 68/169/46 70/170/46
f 70/171/47 68/172/47 67/173/47 69/174/47
f 67/175/48 66/176/48 69/177/48
f 69/178/49 66/179/49 65/180/49 70/181/49
f 60/182/50 67/183/50 59/184/50
f 57/185/51 59/186/51 71/187/51
f 59/188/52 68/189/52 71/190/52
f 71/191/53 65/192/53 61/193/53 57/194/53
f 71/195/54 68/196/54 65/197/54
f 72/198/55 58/199/55 62/200/55 66/201/55
f 66/202/56 67/203/56 72/204/56
f 60/205/57 58/206/57 72/207/57
f 72/208/58 67/209/58 60/210/58