# Made in Blockbench 4.12.4
mtllib materials.mtl

o grass
v 0.5 0.25 0.5
v 0.5 0.25 -0.5
v 0.5 0 0.5
v 0.5 0 -0.5
v -0.5 0.25 0.5
v -0.5 0.25 -0.5
v -0.5 0 0.5
v -0.5 0 -0.5
vt 0.515625 0.59375
vt 0.265625 0.59375
vt 0.265625 0.53125
vt 0.515625 0.53125
vt 0.71875 0.9375
vt 0.71875 1
vt 0.46875 1
vt 0.46875 0.9375
vt 0 0.484375
vt 0.25 0.484375
vt 0.25 0.734375
vt 0 0.734375
vt 0.25 0.484375
vt 0.25 0.734375
vt 0 0.734375
vt 0 0.484375
vt 0.71875 0.859375
vt 0.71875 0.921875
vt 0.46875 0.921875
vt 0.46875 0.859375
vt 0.71875 0.84375
vt 0.46875 0.84375
vt 0.46875 0.78125
vt 0.71875 0.78125
vn 1 0 0
vn -1 0 0
vn 0 1 0
vn 0 -1 0
vn 0 0 1
vn 0 0 -1
usemtl m_84ea64b1-6383-bb0d-4d21-e68e5793995c
f 2/1/1 1/2/1 3/3/1 4/4/1
f 7/5/2 5/6/2 6/7/2 8/8/2
f 5/9/3 1/10/3 2/11/3 6/12/3
f 4/13/4 3/14/4 7/15/4 8/16/4
f 3/17/5 1/18/5 5/19/5 7/20/5
f 6/21/6 2/22/6 4/23/6 8/24/6
o road
v 0.25 0.3125 0.5
v 0.5 0.3125 0.25
v 0.25 0.25 0.5
v 0.5 0.25 0.25
v -0.25 0.3125 0.5
v 0.5 0.3125 -0.25
v -0.25 0.25 0.5
v 0.5 0.25 -0.25
v 0.375 0.3125 0.25
v 0.375 0.25 0.25
v -0.25 0.3125 0.125
v -0.25 0.25 0.125
v 0.125 0.3125 -0.25
v 0.125 0.25 -0.25
v 0.25 0.3125 0.375
v 0.25 0.25 0.375
vt 0.546875 0.609375
vt 0.546875 0.625
vt 0.421875 0.625
vt 0.421875 0.609375
vt 0.59375 0.765625
vt 0.46875 0.765625
vt 0.46875 0.75
vt 0.59375 0.75
vt 0.296875 0.796875
vt 0.265625 0.796875
vt 0.265625 0.78125
vt 0.296875 0.78125
vt 0.5625 0.6875
vt 0.5625 0.703125
vt 0.46875 0.703125
vt 0.46875 0.6875
vt 0.421875 0.9375
vt 0.265625 1
vt 0.265625 0.90625
vt 0.421875 0.671875
vt 0.453125 0.671875
vt 0.453125 0.796875
vt 0.59375 0.734375
vt 0.46875 0.734375
vt 0.46875 0.71875
vt 0.59375 0.71875
vt 0.5625 0.671875
vt 0.46875 0.671875
vt 0.46875 0.65625
vt 0.5625 0.65625
vt 0.421875 0.9375
vt 0.265625 0.90625
vt 0.359375 0.8125
vt 0.453125 0.9375
vt 0.359375 0.8125
vt 0.453125 0.8125
vt 0.453125 0.9375
vt 0.421875 0.671875
vt 0.453125 0.796875
vt 0.359375 0.796875
vt 0.359375 0.796875
vt 0.265625 0.703125
vt 0.421875 0.671875
vt 0.3125 0.828125
vt 0.265625 0.828125
vt 0.265625 0.8125
vt 0.3125 0.8125
vt 0.453125 1
vt 0.421875 1
vt 0.421875 0.984375
vt 0.453125 0.984375
vt 0.421875 0.9375
vt 0.390625 0.96875
vt 0.265625 1
vt 0.390625 0.96875
vt 0.390625 1
vt 0.265625 1
vt 0.265625 0.609375
vt 0.390625 0.609375
vt 0.390625 0.640625
vt 0.265625 0.703125
vt 0.390625 0.640625
vt 0.421875 0.671875
vt 0.265625 0.703125
vn 0 0 1
vn 1 0 0
vn 0 0 1
vn -1 0 0
vn 0 -1 0
vn 0 1 0
vn -0.7071067811865476 0 -0.7071067811865476
vn 0 0 -1
vn 0 -1 0
vn 0 -1 0
vn 0 1 0
vn 0 1 0
vn 0.7071067811865476 0 0.7071067811865476
vn 1 0 0
vn 0 -1 0
vn 0 -1 0
vn 0 1 0
vn 0 1 0
usemtl m_84ea64b1-6383-bb0d-4d21-e68e5793995c
f 11/25/7 9/26/7 13/27/7 15/28/7
f 14/29/8 10/30/8 12/31/8 16/32/8
f 10/33/9 17/34/9 18/35/9 12/36/9
f 15/37/10 13/38/10 19/39/10 20/40/10
f 18/41/11 15/42/11 20/43/11
f 17/44/12 10/45/12 14/46/12
f 19/47/13 21/48/13 22/49/13 20/50/13
f 21/51/14 14/52/14 16/53/14 22/54/14
f 18/55/15 20/56/15 22/57/15 12/58/15
f 22/59/16 16/60/16 12/61/16
f 17/62/17 14/63/17 21/64/17
f 21/65/18 19/66/18 17/67/18
f 17/68/19 23/69/19 24/70/19 18/71/19
f 23/72/20 9/73/20 11/74/20 24/75/20
f 18/76/21 24/77/21 15/78/21
f 24/79/22 11/80/22 15/81/22
f 13/82/23 9/83/23 23/84/23 19/85/23
f 23/86/24 17/87/24 19/88/24
o plane
v 0.03125 0.31875 0.4375
v 0.03125 0.31875 0.3125
v -0.03125 0.31875 0.4375
v -0.03125 0.31875 0.3125
vt 0.28125 0.484375
vt 0.28125 0.515625
vt 0.265625 0.515625
vt 0.265625 0.484375
vn 0 1 0
usemtl m_84ea64b1-6383-bb0d-4d21-e68e5793995c
f 25/89/25 26/90/25 28/91/25 27/92/25
o plane
v 0.3125 0.31875 0.03125000000000003
v 0.4375 0.31875 0.03125
v 0.3125 0.31875 -0.031249999999999972
v 0.4375 0.31875 -0.03125
vt 0.28125 0.484375
vt 0.28125 0.515625
vt 0.265625 0.515625
vt 0.265625 0.484375
vn 0 1 0
usemtl m_84ea64b1-6383-bb0d-4d21-e68e5793995c
f 29/93/26 30/94/26 32/95/26 31/96/26
o plane
v 0.07433373926376116 0.31875 0.18861043456039805
v 0.19397222916488083 0.31875 0.06897194465927839
v 0.030139565439601945 0.31875 0.1444162607362388
v 0.1497780553407216 0.31875 0.02477777083511916
vt 0.28125 0.484375
vt 0.28125 0.515625
vt 0.265625 0.515625
vt 0.265625 0.484375
vn 0 1 0
usemtl m_84ea64b1-6383-bb0d-4d21-e68e5793995c
f 33/97/27 34/98/27 36/99/27 35/100/27