<svg width="480" height="480" xmlns="http://www.w3.org/2000/svg"><!--Crée par @nachtfalter par Natrix-Test 2.1.0-pre3--><path d="M0,0L480,0L480,480L0,480z" stroke="none" stroke-width="10" fill="#0a610a" stroke-linejoin="round"  ></path><path d="M90,480L150,420L150,0L330,0L330,420L390,480z" stroke="none" stroke-width="10" fill="#043c8a"   ></path><path d="M45,105L45,75L75,60L90,60L105,75L105,105L90,120L60,120z" stroke="none" stroke-width="10" fill="#062e06"   ></path><path d="M390,255L390,225L405,210L420,210L450,225L450,255L435,270L405,270z" stroke="none" stroke-width="10" fill="#062e06"   ></path><path d="M390,75L390,45L405,30L420,30L450,45L450,75L435,90L405,90z" stroke="none" stroke-width="10" fill="#062e06"   ></path><path d="M45,420L45,405L60,375L90,375L105,390L105,420L90,435L60,435z" stroke="none" stroke-width="10" fill="#062e06"   ></path><path d="M405,450L405,420L420,405L435,405L465,420L465,450L450,465L420,465z" stroke="none" stroke-width="10" fill="#062e06"   ></path><path d="M60,240L60,225L75,210L105,210L120,225L120,255L105,270L75,270z" stroke="none" stroke-width="10" fill="#062e06"   ></path></svg>