# Made in Blockbench 4.12.5
mtllib materials.mtl

o grass
v 0.125 0.0625 0.125
v 0.125 0.0625 -0.125
v 0.125 0 0.125
v 0.125 0 -0.125
v -0.125 0.0625 0.125
v -0.125 0.0625 -0.125
v -0.125 0 0.125
v -0.125 0 -0.125
vt 0.65625 1
vt 0.40625 1
vt 0.40625 0.9375
vt 0.65625 0.9375
vt 0.65625 0.859375
vt 0.65625 0.921875
vt 0.40625 0.921875
vt 0.40625 0.859375
vt 0 0.484375
vt 0.25 0.484375
vt 0.25 0.734375
vt 0 0.734375
vt 0.25 0.484375
vt 0.25 0.734375
vt 0 0.734375
vt 0 0.484375
vt 0.65625 0.78125
vt 0.65625 0.84375
vt 0.40625 0.84375
vt 0.40625 0.78125
vt 0.65625 0.765625
vt 0.40625 0.765625
vt 0.40625 0.703125
vt 0.65625 0.703125
vn 1 0 0
vn -1 0 0
vn 0 1 0
vn 0 -1 0
vn 0 0 1
vn 0 0 -1
usemtl m_7d2a0f5e-963c-9936-e9ff-1cc86d2ba194
f 2/1/1 1/2/1 3/3/1 4/4/1
f 7/5/2 5/6/2 6/7/2 8/8/2
f 5/9/3 1/10/3 2/11/3 6/12/3
f 4/13/4 3/14/4 7/15/4 8/16/4
f 3/17/5 1/18/5 5/19/5 7/20/5
f 6/21/6 2/22/6 4/23/6 8/24/6
o plane
v 0.0078125 0.0796875 -0.015625
v 0.0078125 0.0796875 -0.046875
v -0.0078125 0.0796875 -0.015625
v -0.0078125 0.0796875 -0.046875
vt 0.421875 0.53125
vt 0.421875 0.5625
vt 0.40625 0.5625
vt 0.40625 0.53125
vn 0 1 0
usemtl m_7d2a0f5e-963c-9936-e9ff-1cc86d2ba194
f 9/25/7 10/26/7 12/27/7 11/28/7
o plane
v 0.0078125 0.0796875 0.046875
v 0.0078125 0.0796875 0.015625
v -0.0078125 0.0796875 0.046875
v -0.0078125 0.0796875 0.015625
vt 0.421875 0.53125
vt 0.421875 0.5625
vt 0.40625 0.5625
vt 0.40625 0.53125
vn 0 1 0
usemtl m_7d2a0f5e-963c-9936-e9ff-1cc86d2ba194
f 13/29/8 14/30/8 16/31/8 15/32/8
o plane
v 0.0078125 0.0796875 0.109375
v 0.0078125 0.0796875 0.078125
v -0.0078125 0.0796875 0.109375
v -0.0078125 0.0796875 0.078125
vt 0.421875 0.53125
vt 0.421875 0.5625
vt 0.40625 0.5625
vt 0.40625 0.53125
vn 0 1 0
usemtl m_7d2a0f5e-963c-9936-e9ff-1cc86d2ba194
f 17/33/9 18/34/9 20/35/9 19/36/9
o plane
v 0.0078125 0.0796875 -0.078125
v 0.0078125 0.0796875 -0.109375
v -0.0078125 0.0796875 -0.078125
v -0.0078125 0.0796875 -0.109375
vt 0.421875 0.53125
vt 0.421875 0.5625
vt 0.40625 0.5625
vt 0.40625 0.53125
vn 0 1 0
usemtl m_7d2a0f5e-963c-9936-e9ff-1cc86d2ba194
f 21/37/10 22/38/10 24/39/10 23/40/10
o plane
v -0.109375 0.0796875 0.007812500000000003
v -0.078125 0.0796875 0.0078124999999999965
v -0.109375 0.0796875 -0.0078124999999999965
v -0.078125 0.0796875 -0.007812500000000003
vt 0.421875 0.53125
vt 0.421875 0.5625
vt 0.40625 0.5625
vt 0.40625 0.53125
vn 0 1 0
usemtl m_7d2a0f5e-963c-9936-e9ff-1cc86d2ba194
f 25/41/11 26/42/11 28/43/11 27/44/11
o road
v 0.0625 0.078125 0.125
v 0.0625 0.078125 -0.125
v 0.0625 0.0625 0.125
v 0.0625 0.0625 -0.125
v -0.0625 0.078125 0.125
v -0.0625 0.078125 -0.125
v -0.0625 0.0625 0.125
v -0.0625 0.0625 -0.125
vt 0.65625 0.6875
vt 0.40625 0.6875
vt 0.40625 0.671875
vt 0.65625 0.671875
vt 0.65625 0.640625
vt 0.65625 0.65625
vt 0.40625 0.65625
vt 0.40625 0.640625
vt 0.265625 0.75
vt 0.390625 0.75
vt 0.390625 1
vt 0.265625 1
vt 0.390625 0.484375
vt 0.390625 0.734375
vt 0.265625 0.734375
vt 0.265625 0.484375
vt 0.53125 0.609375
vt 0.53125 0.625
vt 0.40625 0.625
vt 0.40625 0.609375
vt 0.53125 0.59375
vt 0.40625 0.59375
vt 0.40625 0.578125
vt 0.53125 0.578125
vn 1 0 0
vn -1 0 0
vn 0 1 0
vn 0 -1 0
vn 0 0 1
vn 0 0 -1
usemtl m_7d2a0f5e-963c-9936-e9ff-1cc86d2ba194
f 30/45/12 29/46/12 31/47/12 32/48/12
f 35/49/13 33/50/13 34/51/13 36/52/13
f 33/53/14 29/54/14 30/55/14 34/56/14
f 32/57/15 31/58/15 35/59/15 36/60/15
f 31/61/16 29/62/16 33/63/16 35/64/16
f 34/65/17 30/66/17 32/67/17 36/68/17
o road
v -0.12499999999999999 0.078125 0.06250000000000003
v 0.06250000000000001 0.078125 0.062499999999999986
v -0.12499999999999999 0.0625 0.06250000000000003
v 0.06250000000000001 0.0625 0.062499999999999986
v -0.125 0.078125 -0.06249999999999997
v 0.062499999999999986 0.078125 -0.06250000000000001
v -0.125 0.0625 -0.06249999999999997
v 0.062499999999999986 0.0625 -0.06250000000000001
vt 0.65625 0.6875
vt 0.40625 0.6875
vt 0.40625 0.671875
vt 0.65625 0.671875
vt 0.65625 0.640625
vt 0.65625 0.65625
vt 0.40625 0.65625
vt 0.40625 0.640625
vt 0.265625 0.75
vt 0.390625 0.75
vt 0.390625 1
vt 0.265625 1
vt 0.390625 0.484375
vt 0.390625 0.734375
vt 0.265625 0.734375
vt 0.265625 0.484375
vt 0.53125 0.609375
vt 0.53125 0.625
vt 0.40625 0.625
vt 0.40625 0.609375
vt 0.53125 0.59375
vt 0.40625 0.59375
vt 0.40625 0.578125
vt 0.53125 0.578125
vn 2.220446049250313e-16 0 1
vn -2.220446049250313e-16 0 -1
vn 0 1 0
vn 0 -1 0
vn -1 0 2.220446049250313e-16
vn 1 0 -2.220446049250313e-16
usemtl m_7d2a0f5e-963c-9936-e9ff-1cc86d2ba194
f 38/69/18 37/70/18 39/71/18 40/72/18
f 43/73/19 41/74/19 42/75/19 44/76/19
f 41/77/20 37/78/20 38/79/20 42/80/20
f 40/81/21 39/82/21 43/83/21 44/84/21
f 39/85/22 37/86/22 41/87/22 43/88/22
f 42/89/23 38/90/23 40/91/23 44/92/23