<svg width="480" height="480" xmlns="http://www.w3.org/2000/svg"><!-- @nachtfalter  Natrix 1.3.1-cool1--><path d="M0,0L480,0L480,480L0,480z" stroke="none" stroke-width="10" fill="#0a610a"   ></path><path d="M15,375L75,375L75,465L15,465z" stroke="none" stroke-width="10" fill="#0a0a6d"   ></path><path d="M15,15L75,15L75,105L15,105z" stroke="none" stroke-width="10" fill="#0a0a6d"   ></path><path d="M15,135L75,135L75,225L15,225z" stroke="none" stroke-width="10" fill="#0a0a6d"   ></path><path d="M15,255L75,255L75,345L15,345z" stroke="none" stroke-width="10" fill="#0a0a6d"   ></path><path d="M405,375L465,375L465,465L405,465z" stroke="none" stroke-width="10" fill="#0a0a6d"   ></path><path d="M405,255L465,255L465,345L405,345z" stroke="none" stroke-width="10" fill="#0a0a6d"   ></path><path d="M405,135L465,135L465,225L405,225z" stroke="none" stroke-width="10" fill="#0a0a6d"   ></path><path d="M405,15L465,15L465,105L405,105z" stroke="none" stroke-width="10" fill="#0a0a6d"   ></path><path d="M330,375L390,375L390,465L330,465z" stroke="none" stroke-width="10" fill="#0a0a6d"   ></path><path d="M330,255L390,255L390,345L330,345z" stroke="none" stroke-width="10" fill="#0a0a6d"   ></path><path d="M330,135L390,135L390,225L330,225z" stroke="none" stroke-width="10" fill="#0a0a6d"   ></path><path d="M330,15L390,15L390,105L330,105z" stroke="none" stroke-width="10" fill="#0a0a6d"   ></path><path d="M255,375L315,375L315,465L255,465z" stroke="none" stroke-width="10" fill="#0a0a6d"   ></path><path d="M255,255L315,255L315,345L255,345z" stroke="none" stroke-width="10" fill="#0a0a6d"   ></path><path d="M255,135L315,135L315,225L255,225z" stroke="none" stroke-width="10" fill="#0a0a6d"   ></path><path d="M255,15L315,15L315,105L255,105z" stroke="none" stroke-width="10" fill="#0a0a6d"   ></path><path d="M165,375L225,375L225,465L165,465z" stroke="none" stroke-width="10" fill="#0a0a6d"   ></path><path d="M165,255L225,255L225,345L165,345z" stroke="none" stroke-width="10" fill="#0a0a6d"   ></path><path d="M165,135L225,135L225,225L165,225z" stroke="none" stroke-width="10" fill="#0a0a6d"   ></path><path d="M165,15L225,15L225,105L165,105z" stroke="none" stroke-width="10" fill="#0a0a6d"   ></path><path d="M90,375L150,375L150,465L90,465z" stroke="none" stroke-width="10" fill="#0a0a6d"   ></path><path d="M90,255L150,255L150,345L90,345z" stroke="none" stroke-width="10" fill="#0a0a6d"   ></path><path d="M90,135L150,135L150,225L90,225z" stroke="none" stroke-width="10" fill="#0a0a6d"   ></path><path d="M90,15L150,15L150,105L90,105z" stroke="none" stroke-width="10" fill="#0a0a6d"   ></path></svg>