<svg width="480" height="480" xmlns="http://www.w3.org/2000/svg"><!--Crée par @nachtfalter par Natrix-Test 2.1.0-pre3--><path d="M0,0L480,0L480,480L0,480z" stroke="none" stroke-width="10" fill="#0a610a" stroke-linejoin="round"  ></path><path d="M0,480L30,360L90,300L90,240L150,180L150,0L330,0L330,180L390,240L390,300L450,360L480,480z" stroke="none" stroke-width="10" fill="#043c8a"   ></path><path d="M15,75L15,45L45,30L60,30L75,45L75,75L60,90L30,90z" stroke="none" stroke-width="10" fill="#062e06"   ></path><path d="M390,75L390,45L405,30L420,30L450,45L450,75L435,90L405,90z" stroke="none" stroke-width="10" fill="#062e06"   ></path><path d="M270,360L300,360L300,450L270,450z" stroke="none" stroke-width="10" fill="#393936"   ></path><path d="M0,450L480,450L480,480L0,480z" stroke="none" stroke-width="10" fill="#393936"   ></path><path d="M360,360L390,360L390,450L360,450z" stroke="none" stroke-width="10" fill="#393936"   ></path><path d="M180,360L210,360L210,450L180,450z" stroke="none" stroke-width="10" fill="#393936"   ></path><path d="M450,360L480,360L480,450L450,450z" stroke="none" stroke-width="10" fill="#393936"   ></path><path d="M90,360L120,360L120,450L90,450z" stroke="none" stroke-width="10" fill="#393936"   ></path><path d="M0,360L30,360L30,450L0,450z" stroke="none" stroke-width="10" fill="#393936"   ></path><path d="M15,270L15,255L30,225L60,225L75,240L75,270L60,285L30,285z" stroke="none" stroke-width="10" fill="#062e06"   ></path><path d="M405,210L405,180L420,165L435,165L465,180L465,210L450,225L420,225z" stroke="none" stroke-width="10" fill="#062e06"   ></path></svg>