<svg width="480" height="480" xmlns="http://www.w3.org/2000/svg"><!-- @nachtfalter  Natrix 1.3.1-fix1--><path d="M0,0L480,0L480,480L0,480z" stroke="none" stroke-width="10" fill="#2a2a2a"   ></path><path d="M240,30L240,390L30,390L30,30z" stroke="none" stroke-width="10" fill="#510d0d"   ></path><path d="M450,30L450,390L240,390L240,30z" stroke="none" stroke-width="10" fill="#810b0b"   ></path><path d="M390,390L420,390L420,450L390,450z" stroke="none" stroke-width="10" fill="#d86d3b"   ></path><path d="M330,390L360,390L360,450L330,450z" stroke="none" stroke-width="10" fill="#d86d3b"   ></path><path d="M270,390L300,390L300,450L270,450z" stroke="none" stroke-width="10" fill="#d86d3b"   ></path><path d="M210,390L240,390L240,450L210,450z" stroke="none" stroke-width="10" fill="#d86d3b"   ></path><path d="M150,390L180,390L180,450L150,450z" stroke="none" stroke-width="10" fill="#d86d3b"   ></path><path d="M90,390L120,390L120,450L90,450z" stroke="none" stroke-width="10" fill="#d86d3b"   ></path><path d="M30,390L60,390L60,450L30,450z" stroke="none" stroke-width="10" fill="#d86d3b"   ></path><path d="M420,390L450,390L450,450L420,450z" stroke="none" stroke-width="10" fill="#fff"   ></path><path d="M60,390L90,390L90,450L60,450z" stroke="none" stroke-width="10" fill="#fff"   ></path><path d="M120,390L150,390L150,450L120,450z" stroke="none" stroke-width="10" fill="#fff"   ></path><path d="M180,390L210,390L210,450L180,450z" stroke="none" stroke-width="10" fill="#fff"   ></path><path d="M240,390L270,390L270,450L240,450z" stroke="none" stroke-width="10" fill="#fff"   ></path><path d="M300,390L330,390L330,450L300,450z" stroke="none" stroke-width="10" fill="#fff"   ></path><path d="M360,390L390,390L390,450L360,450z" stroke="none" stroke-width="10" fill="#fff"   ></path><path d="M210,60L210,120L150,120L150,60z" stroke="none" stroke-width="10" fill="#810b0b"   ></path></svg>