<svg width="480" height="480" xmlns="http://www.w3.org/2000/svg"><!-- @nachtfalter  Natrix 1.3.1-fix1--><path d="M0,0L480,0L480,480L0,480z" stroke="none" stroke-width="10" fill="#2a2a2a"   ></path><path d="M360,480L120,480L120,360L360,360z" stroke="none" stroke-width="10" fill="#000"   ></path><path d="M240,449.999L240,390" stroke="#fff" stroke-width="15" fill="none"   ></path><path d="M240,0L240,420L0,420L0,0z" stroke="none" stroke-width="10" fill="#ba631f"   ></path><path d="M480,0L480,360L240,360L240,0z" stroke="none" stroke-width="10" fill="#cd7f12"   ></path><path d="M60,150L180,150L180,120L60,120z" stroke="none" stroke-width="10" fill="#45351f"   ></path><path d="M60,105L180,105L180,90L60,90z" stroke="none" stroke-width="10" fill="#d3bc0f"   ></path><path d="M60,120L180,120L180,105L60,105z" stroke="none" stroke-width="10" fill="#ff0303"   ></path><path d="M90,105L105,120L120,105L135,120L150,105L165,120L180,120L180,135L165,135L150,120L135,135L120,120L105,135L90,120L75,135L60,135L60,120L75,120z" stroke="none" stroke-width="10" fill="#57a810"   ></path><path d="M90,180L150,180L150,180L180,150L60,150z" stroke="none" stroke-width="10" fill="#714a24"   ></path><path d="M90,60L150,60L180,90L60,90z" stroke="none" stroke-width="10" fill="#714a24"   ></path><path d="M255,60L285,60L285,90L255,90z" stroke="none" stroke-width="10" fill="#ba631f"   ></path><path d="M255,15L285,15L285,45L255,45z" stroke="none" stroke-width="10" fill="#ba631f"   ></path></svg>