<svg width="480" height="480" xmlns="http://www.w3.org/2000/svg"><!-- @nachtfalter  Natrix 1.3.1-fix1--><path d="M0,0L480,0L480,240L0,240z" stroke="#0a610a" stroke-width="10" fill="#0a610a" stroke-linejoin="round"  ></path><path d="M0,240L120,240L150,210L150,0L330,0L330,210L360,240L480,240L480,480L0,480z" stroke="none" stroke-width="10" fill="#043c8a"   ></path><path d="M45,105L45,75L75,60L90,60L105,75L105,105L90,120L60,120z" stroke="none" stroke-width="10" fill="#062e06"   ></path><path d="M360,195L360,165L375,150L390,150L420,165L420,195L405,210L375,210z" stroke="none" stroke-width="10" fill="#062e06"   ></path><path d="M390,75L390,45L405,30L420,30L450,45L450,75L435,90L405,90z" stroke="none" stroke-width="10" fill="#062e06"   ></path></svg>