<svg width="480" height="480" xmlns="http://www.w3.org/2000/svg"><!-- @nachtfalter  Natrix 1.3.1-fix1--><path d="M0,0L480,0L480,480L0,480z" stroke="none" stroke-width="10" fill="#2a2a2a"   ></path><path d="M240,30L240,330L90,330L90,30z" stroke="none" stroke-width="10" fill="#510d0d"   ></path><path d="M390,30L390,330L240,330L240,30z" stroke="none" stroke-width="10" fill="#810b0b"   ></path><path d="M180,330L210,330L210,390L180,390z" stroke="none" stroke-width="10" fill="#fff"   ></path><path d="M240,330L270,330L270,390L240,390z" stroke="none" stroke-width="10" fill="#fff"   ></path><path d="M300,330L330,330L330,390L300,390z" stroke="none" stroke-width="10" fill="#fff"   ></path><path d="M360,330L390,330L390,390L360,390z" stroke="none" stroke-width="10" fill="#fff"   ></path><path d="M330,330L360,330L360,390L330,390z" stroke="none" stroke-width="10" fill="#bf6aab"   ></path><path d="M270,330L300,330L300,390L270,390z" stroke="none" stroke-width="10" fill="#bf6aab"   ></path><path d="M210,330L240,330L240,390L210,390z" stroke="none" stroke-width="10" fill="#bf6aab"   ></path><path d="M150,330L180,330L180,390L150,390z" stroke="none" stroke-width="10" fill="#bf6aab"   ></path><path d="M90,330L120,330L120,390L90,390z" stroke="none" stroke-width="10" fill="#bf6aab"   ></path><path d="M120,330L150,330L150,390L120,390z" stroke="none" stroke-width="10" fill="#fff"   ></path></svg>