<svg width="480" height="480" xmlns="http://www.w3.org/2000/svg"><!-- @nachtfalter  Natrix 1.3.1-fix1--><path d="M0,0L480,0L480,480L0,480z" stroke="none" stroke-width="10" fill="#0a610a"   ></path><path d="M465,465L465,15L15,15L15,465z" stroke="#1c1302" stroke-width="10" fill="none"   ></path><path d="M330,270L330,285L315,285L315,270z" stroke="none" stroke-width="10" fill="#ffd900"   ></path><path d="M75,135L90,150L75,165L60,150z" stroke="none" stroke-width="10" fill="#fff"   ></path><path d="M120,60L135,75L120,90L105,75z" stroke="none" stroke-width="10" fill="#fff"   ></path><path d="M225,75L240,90L225,105L210,90z" stroke="none" stroke-width="10" fill="#fff"   ></path><path d="M285,195L300,210L285,225L270,210z" stroke="none" stroke-width="10" fill="#fff"   ></path><path d="M255,300L270,315L255,330L240,315z" stroke="none" stroke-width="10" fill="#fff"   ></path><path d="M30,360L120,360L120,405L30,405z" stroke="none" stroke-width="10" fill="#810b0b"   ></path><path d="M225,390L240,405L225,420L210,405z" stroke="none" stroke-width="10" fill="#fff"   ></path><path d="M375,375L390,390L375,405L360,390z" stroke="none" stroke-width="10" fill="#fff"   ></path><path d="M405,285L420,300L405,315L390,300z" stroke="none" stroke-width="10" fill="#fff"   ></path><path d="M390,135L405,150L390,165L375,150z" stroke="none" stroke-width="10" fill="#fff"   ></path><path d="M180,225L195,240L180,255L165,240z" stroke="none" stroke-width="10" fill="#fff"   ></path><path d="M375,45L390,60L375,75L360,60z" stroke="none" stroke-width="10" fill="#fff"   ></path><path d="M285,135L285,150L270,150L270,135z" stroke="none" stroke-width="10" fill="#ffd900"   ></path><path d="M180,165L180,180L165,180L165,165z" stroke="none" stroke-width="10" fill="#ffd900"   ></path><path d="M90,255L90,270L75,270L75,255z" stroke="none" stroke-width="10" fill="#ffd900"   ></path><path d="M210,345L210,360L195,360L195,345z" stroke="none" stroke-width="10" fill="#ffd900"   ></path><path d="M300,390L300,405L285,405L285,390z" stroke="none" stroke-width="10" fill="#ffd900"   ></path><path d="M90,300L105,315L90,330L75,315z" stroke="none" stroke-width="10" fill="#fff"   ></path><path d="M30,405L120,405L120,450L30,450z" stroke="none" stroke-width="10" fill="#510d0d"   ></path></svg>