<svg width="480" height="480" xmlns="http://www.w3.org/2000/svg"><!-- @nachtfalter  Natrix 1.3.1-fix1--><path d="M0,0L480,0L480,480L0,480z" stroke="none" stroke-width="10" fill="#0a610a" stroke-linejoin="round"  ></path><path d="M270,390L270,360L285,345L315,345L330,360L330,390L315,405L300,405z" stroke="none" stroke-width="10" fill="#062e06"   ></path><path d="M30,435L30,405L45,390L60,390L90,405L90,435L75,450L45,450z" stroke="none" stroke-width="10" fill="#062e06"   ></path><path d="M390,420L390,405L405,390L435,390L450,405L450,435L435,450L405,450z" stroke="none" stroke-width="10" fill="#062e06"   ></path><path d="M390,75L390,45L420,30L435,30L450,45L450,75L435,90L405,90z" stroke="none" stroke-width="10" fill="#062e06"   ></path><path d="M300,165L300,135L315,120L345,120L360,150L360,165L345,180L315,180z" stroke="none" stroke-width="10" fill="#062e06"   ></path><path d="M345,270L345,255L360,225L390,225L405,240L405,270L390,285L360,285z" stroke="none" stroke-width="10" fill="#062e06"   ></path><path d="M150,315L150,285L165,270L180,270L210,285L210,315L195,330L165,330z" stroke="none" stroke-width="10" fill="#062e06"   ></path><path d="M330,60L60,330L0,330L0,120L120,0L330,0z" stroke="none" stroke-width="10" fill="#000"   ></path><path d="M0,60L60,0L120,0L0,120z" stroke="none" stroke-width="10" fill="#393936"   ></path></svg>