<svg width="480" height="480" xmlns="http://www.w3.org/2000/svg"><!-- @nachtfalter  Natrix 1.3.1-fix1--><path d="M0,0L480,0L480,480L0,480z" stroke="none" stroke-width="10" fill="#0a610a" stroke-linejoin="round"  ></path><path d="M0,330L0,120L480,120L480,330z" stroke="none" stroke-width="10" fill="#000"   ></path><path d="M0,60L60,120L420,120L480,60L480,120L450,150L30,150L0,120z" stroke="none" stroke-width="10" fill="#393936"   ></path><path d="M210,405L210,375L240,360L255,360L270,375L270,405L255,420L225,420z" stroke="none" stroke-width="10" fill="#062e06"   ></path><path d="M30,420L30,405L45,375L75,375L90,390L90,420L75,435L45,435z" stroke="none" stroke-width="10" fill="#062e06"   ></path><path d="M390,435L390,405L405,390L420,390L450,405L450,435L435,450L405,450z" stroke="none" stroke-width="10" fill="#062e06"   ></path><path d="M30,60L30,30L45,15L75,15L90,45L90,60L75,75L45,75z" stroke="none" stroke-width="10" fill="#062e06"   ></path><path d="M405,60L405,30L420,15L450,15L465,30L465,60L450,75L435,75z" stroke="none" stroke-width="10" fill="#062e06"   ></path><path d="M240,60L240,45L255,30L285,30L300,45L300,75L285,90L255,90z" stroke="none" stroke-width="10" fill="#062e06"   ></path></svg>