<svg width="480" height="480" xmlns="http://www.w3.org/2000/svg"><!-- @nachtfalter  Natrix 1.3.1-fix1--><path d="M0,0L480,0L480,480L0,480z" stroke="none" stroke-width="10" fill="#0a610a"   ></path><path d="M120,120L360,120L360,480L120,480z" stroke="none" stroke-width="10" fill="#000"   ></path><path d="M240,390L240,450" stroke="#fff" stroke-width="15" fill="none"   ></path><path d="M240,270L240,330" stroke="#fff" stroke-width="15" fill="none"   ></path><path d="M390,435L390,405L420,390L435,390L450,405L450,435L435,450L405,450z" stroke="none" stroke-width="10" fill="#062e06"   ></path><path d="M45,255L45,240L60,210L90,210L105,225L105,255L90,270L60,270z" stroke="none" stroke-width="10" fill="#062e06"   ></path><path d="M210,90L210,60L225,45L255,45L270,60L270,90L240,105L225,105z" stroke="none" stroke-width="10" fill="#062e06"   ></path><path d="M375,255L375,225L390,210L420,210L435,225L435,255L405,270L390,270z" stroke="none" stroke-width="10" fill="#062e06"   ></path><path d="M30,435L30,405L45,390L75,390L90,405L90,435L60,450L45,450z" stroke="none" stroke-width="10" fill="#062e06"   ></path><path d="M30,75L30,45L45,30L75,30L90,45L90,60L75,90L45,90z" stroke="none" stroke-width="10" fill="#062e06"   ></path><path d="M390,75L390,45L405,30L435,30L450,60L450,75L435,90L405,90z" stroke="none" stroke-width="10" fill="#062e06"   ></path></svg>