<svg width="480" height="480" xmlns="http://www.w3.org/2000/svg"><!-- @nachtfalter  Natrix 1.3.1-fix1--><path d="M0,0L480,0L480,480L0,480z" stroke="none" stroke-width="10" fill="#0a610a"   ></path><path d="M375,90L390,105L390,120L375,135L360,120L360,105z" stroke="none" stroke-width="10" fill="#322507"   ></path><path d="M345,150L360,135L390,135L405,150L405,195L390,210L360,210L345,195z" stroke="none" stroke-width="10" fill="#322507"   ></path><path d="M90,135L105,150L105,165L90,180L75,165L75,150z" stroke="none" stroke-width="10" fill="#fff"   ></path><path d="M60,195L75,180L105,180L120,195L120,240L105,255L75,255L60,240z" stroke="none" stroke-width="10" fill="#fff"   ></path><path d="M180,90L195,105L210,105L225,90L210,75L195,75z" stroke="none" stroke-width="10" fill="#fff"   ></path><path d="M240,60L225,75L225,105L240,120L285,120L300,105L300,75L285,60z" stroke="none" stroke-width="10" fill="#fff"   ></path><path d="M150,330L165,330L180,345L180,360L165,360L150,345z" stroke="none" stroke-width="10" fill="#fff"   ></path><path d="M165,390L165,375L195,345L210,345L255,390L255,405L225,435L210,435z" stroke="none" stroke-width="10" fill="#fff"   ></path><path d="M450,330L435,345L420,345L405,330L420,315L435,315z" stroke="none" stroke-width="10" fill="#fff"   ></path><path d="M390,300L405,315L405,345L390,360L345,360L330,345L330,315L345,300z" stroke="none" stroke-width="10" fill="#fff"   ></path></svg>