<svg width="480" height="480" xmlns="http://www.w3.org/2000/svg"><!-- @nachtfalter  Natrix 1.3.1-fix1--><path d="M0,0L480,0L480,480L0,480z" stroke="none" stroke-width="10" fill="#0a610a"   ></path><path d="M30,180L450,180L450,330L30,330z" stroke="none" stroke-width="10" fill="#510d0d"   ></path><path d="M30,30L450,30L450,180L30,180z" stroke="none" stroke-width="10" fill="#810b0b"   ></path><path d="M390,360L420,360L450,390L450,420L420,450L390,450L360,420L360,390z" stroke="none" stroke-width="10" fill="#202020"   ></path><path d="M30,390L90,390L90,420L30,420z" stroke="none" stroke-width="10" fill="#bdaa17"   ></path><path d="M30,360L120,360L120,390L30,390z" stroke="none" stroke-width="10" fill="#bdaa17"   ></path><path d="M135,60L195,60L195,150L135,150z" stroke="none" stroke-width="10" fill="#060645"   ></path><path d="M60,60L120,60L120,150L60,150z" stroke="none" stroke-width="10" fill="#060645"   ></path><path d="M360,60L420,60L420,150L360,150z" stroke="none" stroke-width="10" fill="#060645"   ></path><path d="M285,60L345,60L345,150L285,150z" stroke="none" stroke-width="10" fill="#060645"   ></path><path d="M210,60L270,60L270,150L210,150z" stroke="none" stroke-width="10" fill="#060645"   ></path></svg>