<svg width="480" height="480" xmlns="http://www.w3.org/2000/svg"><!-- @nachtfalter  Natrix 1.3.1-fix1--><path d="M0,0L480,0L480,480L0,480z" stroke="none" stroke-width="10" fill="#0a610a"   ></path><path d="M240,300L300,240L480,240L480,480L240,480z" stroke="none" stroke-width="10" fill="#043c8a" stroke-linejoin="round"  ></path><path d="M45,90L45,75L60,45L90,45L105,60L105,90L90,105L60,105z" stroke="none" stroke-width="10" fill="#062e06"   ></path><path d="M90,270L90,240L105,225L135,225L150,240L150,270L135,285L120,285z" stroke="none" stroke-width="10" fill="#062e06"   ></path><path d="M225,120L225,105L240,90L270,90L285,105L285,135L270,150L240,150z" stroke="none" stroke-width="10" fill="#062e06"   ></path><path d="M120,435L120,405L135,390L165,390L180,405L180,420L165,450L135,450z" stroke="none" stroke-width="10" fill="#062e06"   ></path><path d="M390,150L390,120L405,105L420,105L450,120L450,150L435,165L405,165z" stroke="none" stroke-width="10" fill="#062e06"   ></path></svg>