<svg width="480" height="480" xmlns="http://www.w3.org/2000/svg"><!-- @nachtfalter  Natrix 1.3.1-fix1--><path d="M0,0L480,0L480,480L0,480z" stroke="none" stroke-width="10" fill="#0a610a"   ></path><path d="M30,435L30,405L45,390L60,390L90,405L90,435L75,450L45,450z" stroke="none" stroke-width="10" fill="#062e06"   ></path><path d="M30,315L30,285L45,270L75,270L90,285L90,315L75,330L60,330z" stroke="none" stroke-width="10" fill="#062e06"   ></path><path d="M30,60L30,30L45,15L75,15L90,45L90,60L75,75L45,75z" stroke="none" stroke-width="10" fill="#062e06"   ></path><path d="M240,60L240,30L255,15L285,15L300,30L300,60L285,75L270,75z" stroke="none" stroke-width="10" fill="#062e06"   ></path><path d="M390,60L390,45L405,15L435,15L450,30L450,60L435,75L405,75z" stroke="none" stroke-width="10" fill="#062e06"   ></path><path d="M405,150L405,120L420,105L450,105L465,120L465,135L450,165L420,165z" stroke="none" stroke-width="10" fill="#062e06"   ></path><path d="M390,435L390,405L405,390L435,390L450,405L450,435L420,450L405,450z" stroke="none" stroke-width="10" fill="#062e06"   ></path><path d="M300,135L300,105L315,90L345,90L360,120L360,135L345,150L315,150z" stroke="none" stroke-width="10" fill="#062e06"   ></path><path d="M45,195L45,165L60,150L90,150L105,165L105,195L75,210L60,210z" stroke="none" stroke-width="10" fill="#062e06"   ></path><path d="M285,435L285,420L300,390L330,390L345,405L345,435L330,450L300,450z" stroke="none" stroke-width="10" fill="#062e06"   ></path><path d="M150,105L150,75L165,60L195,60L210,75L210,90L195,120L165,120z" stroke="none" stroke-width="10" fill="#062e06"   ></path><path d="M285,330L285,300L300,285L330,285L345,315L345,330L330,345L300,345z" stroke="none" stroke-width="10" fill="#062e06"   ></path><path d="M390,315L390,300L405,270L435,270L450,285L450,315L435,330L405,330z" stroke="none" stroke-width="10" fill="#062e06"   ></path><path d="M120,300L150,210L210,180L270,180L330,210L360,300L360,480L120,480z" stroke="none" stroke-width="10" fill="#000"   ></path><path d="M240,180L240,210" stroke="#fff" stroke-width="15" fill="none"   ></path><path d="M90,300L120,210L150,180L210,150L270,150L330,180L360,210L390,300L360,300L330,210L270,180L210,180L150,210L120,300z" stroke="none" stroke-width="10" fill="#393936"   ></path><path d="M240,390L240,450" stroke="#fff" stroke-width="15" fill="none"   ></path><path d="M240,270L240,330" stroke="#fff" stroke-width="15" fill="none"   ></path></svg>