<svg width="480" height="480" xmlns="http://www.w3.org/2000/svg"><!-- @nachtfalter  Natrix 1.3.1-fix1--><path d="M0,0L480,0L480,480L0,480z" stroke="none" stroke-width="10" fill="#0a610a"   ></path><path d="M255,330L255,315L270,300L300,300L315,315L315,345L300,360L270,360z" stroke="none" stroke-width="10" fill="#062e06"   ></path><path d="M225,240L225,210L255,195L270,195L285,210L285,240L270,255L240,255z" stroke="none" stroke-width="10" fill="#062e06"   ></path><path d="M285,435L285,420L300,390L330,390L345,405L345,435L330,450L300,450z" stroke="none" stroke-width="10" fill="#062e06"   ></path><path d="M180,450L180,420L195,405L225,405L240,420L240,435L225,465L195,465z" stroke="none" stroke-width="10" fill="#062e06"   ></path><path d="M30,435L30,405L45,390L60,390L90,405L90,435L75,450L45,450z" stroke="none" stroke-width="10" fill="#062e06"   ></path><path d="M30,315L30,285L45,270L75,270L90,285L90,315L75,330L60,330z" stroke="none" stroke-width="10" fill="#062e06"   ></path><path d="M30,60L30,30L45,15L75,15L90,45L90,60L75,75L45,75z" stroke="none" stroke-width="10" fill="#062e06"   ></path><path d="M150,75L150,45L165,30L195,30L210,45L210,60L195,90L165,90z" stroke="none" stroke-width="10" fill="#062e06"   ></path><path d="M240,60L240,30L255,15L285,15L300,30L300,60L285,75L270,75z" stroke="none" stroke-width="10" fill="#062e06"   ></path><path d="M390,60L390,45L405,15L435,15L450,30L450,60L435,75L405,75z" stroke="none" stroke-width="10" fill="#062e06"   ></path><path d="M405,150L405,120L420,105L450,105L465,120L465,135L450,165L420,165z" stroke="none" stroke-width="10" fill="#062e06"   ></path><path d="M390,330L390,315L405,285L435,285L450,300L450,330L435,345L405,345z" stroke="none" stroke-width="10" fill="#062e06"   ></path><path d="M390,435L390,405L405,390L435,390L450,405L450,435L420,450L405,450z" stroke="none" stroke-width="10" fill="#062e06"   ></path><path d="M135,375L135,345L150,330L180,330L195,360L195,375L180,390L150,390z" stroke="none" stroke-width="10" fill="#062e06"   ></path><path d="M300,135L300,105L315,90L345,90L360,120L360,135L345,150L315,150z" stroke="none" stroke-width="10" fill="#062e06"   ></path><path d="M45,135L45,105L60,90L90,90L105,105L105,135L75,150L60,150z" stroke="none" stroke-width="10" fill="#062e06"   ></path><path d="M15,225L15,195L30,180L45,180L75,195L75,225L60,240L30,240z" stroke="none" stroke-width="10" fill="#062e06"   ></path><path d="M165,165L165,135L180,120L210,120L225,135L225,165L210,180L195,180z" stroke="none" stroke-width="10" fill="#062e06"   ></path><path d="M120,255L120,225L135,210L150,210L180,225L180,255L165,270L135,270z" stroke="none" stroke-width="10" fill="#062e06"   ></path><path d="M345,225L345,195L360,180L390,180L405,195L405,225L390,240L375,240z" stroke="none" stroke-width="10" fill="#062e06"   ></path></svg>