<svg width="480" height="480" xmlns="http://www.w3.org/2000/svg"><!-- @nachtfalter  Natrix 1.3.1-fix1--><path d="M0,0L480,0L480,480L0,480z" stroke="none" stroke-width="10" fill="#0a610a"   ></path><path d="M225,240L225,210L255,195L270,195L285,210L285,240L270,255L240,255z" stroke="none" stroke-width="10" fill="#062e06"   ></path><path d="M180,450L180,420L195,405L225,405L240,420L240,435L225,465L195,465z" stroke="none" stroke-width="10" fill="#062e06"   ></path><path d="M30,435L30,405L45,390L60,390L90,405L90,435L75,450L45,450z" stroke="none" stroke-width="10" fill="#062e06"   ></path><path d="M30,315L30,285L45,270L75,270L90,285L90,315L75,330L60,330z" stroke="none" stroke-width="10" fill="#062e06"   ></path><path d="M30,60L30,30L45,15L75,15L90,45L90,60L75,75L45,75z" stroke="none" stroke-width="10" fill="#062e06"   ></path><path d="M240,60L240,30L255,15L285,15L300,30L300,60L285,75L270,75z" stroke="none" stroke-width="10" fill="#062e06"   ></path><path d="M390,60L390,45L405,15L435,15L450,30L450,60L435,75L405,75z" stroke="none" stroke-width="10" fill="#062e06"   ></path><path d="M405,150L405,120L420,105L450,105L465,120L465,135L450,165L420,165z" stroke="none" stroke-width="10" fill="#062e06"   ></path><path d="M390,435L390,405L405,390L435,390L450,405L450,435L420,450L405,450z" stroke="none" stroke-width="10" fill="#062e06"   ></path><path d="M330,105L330,75L345,60L375,60L390,90L390,105L375,120L345,120z" stroke="none" stroke-width="10" fill="#062e06"   ></path><path d="M45,135L45,105L60,90L90,90L105,105L105,135L75,150L60,150z" stroke="none" stroke-width="10" fill="#062e06"   ></path><path d="M75,225L75,195L90,180L105,180L135,195L135,225L120,240L90,240z" stroke="none" stroke-width="10" fill="#062e06"   ></path><path d="M90,375L90,345L105,330L120,330L150,345L150,375L135,390L105,390z" stroke="none" stroke-width="10" fill="#062e06"   ></path><path d="M345,225L345,195L360,180L390,180L405,195L405,225L390,240L375,240z" stroke="none" stroke-width="10" fill="#062e06"   ></path><path d="M180,0L300,0L300,150L330,180L480,180L480,300L300,300L300,480L180,480z" stroke="none" stroke-width="10" fill="#241e0e"   ></path><path d="M285,435L285,420L300,390L330,390L345,405L345,435L330,450L300,450z" stroke="none" stroke-width="10" fill="#062e06"   ></path><path d="M150,105L150,75L165,60L195,60L210,75L210,90L195,120L165,120z" stroke="none" stroke-width="10" fill="#062e06"   ></path><path d="M285,330L285,300L300,285L330,285L345,315L345,330L330,345L300,345z" stroke="none" stroke-width="10" fill="#062e06"   ></path><path d="M390,315L390,300L405,270L435,270L450,285L450,315L435,330L405,330z" stroke="none" stroke-width="10" fill="#062e06"   ></path></svg>