# Made in Blockbench 4.12.5
mtllib materials.mtl

o grass
v 0.125 0.0625 0.125
v 0.125 0.0625 -0.125
v 0.125 0 0.125
v 0.125 0 -0.125
v -0.125 0.0625 0.125
v -0.125 0.0625 -0.125
v -0.125 0 0.125
v -0.125 0 -0.125
vt 0.65625 1
vt 0.40625 1
vt 0.40625 0.9375
vt 0.65625 0.9375
vt 0.65625 0.859375
vt 0.65625 0.921875
vt 0.40625 0.921875
vt 0.40625 0.859375
vt 0 0.484375
vt 0.25 0.484375
vt 0.25 0.734375
vt 0 0.734375
vt 0.25 0.484375
vt 0.25 0.734375
vt 0 0.734375
vt 0 0.484375
vt 0.65625 0.78125
vt 0.65625 0.84375
vt 0.40625 0.84375
vt 0.40625 0.78125
vt 0.65625 0.765625
vt 0.40625 0.765625
vt 0.40625 0.703125
vt 0.65625 0.703125
vn 1 0 0
vn -1 0 0
vn 0 1 0
vn 0 -1 0
vn 0 0 1
vn 0 0 -1
usemtl m_f4890b44-5021-8e3c-82f4-99291cf23399
f 2/1/1 1/2/1 3/3/1 4/4/1
f 7/5/2 5/6/2 6/7/2 8/8/2
f 5/9/3 1/10/3 2/11/3 6/12/3
f 4/13/4 3/14/4 7/15/4 8/16/4
f 3/17/5 1/18/5 5/19/5 7/20/5
f 6/21/6 2/22/6 4/23/6 8/24/6
o grass
v 0.125 0.0859375 0.125
v 0.125 0.0859375 -0.125
v 0.125 0.0625 0.125
v 0.125 0.0625 -0.125
v 0.0625 0.0859375 0.125
v 0.0625 0.0859375 -0.125
v 0.0625 0.0625 0.125
v 0.0625 0.0625 -0.125
vt 0.65625 1
vt 0.40625 1
vt 0.40625 0.9375
vt 0.65625 0.9375
vt 0.65625 0.859375
vt 0.65625 0.921875
vt 0.40625 0.921875
vt 0.40625 0.859375
vt 0 0.484375
vt 0.25 0.484375
vt 0.25 0.734375
vt 0 0.734375
vt 0.25 0.484375
vt 0.25 0.734375
vt 0 0.734375
vt 0 0.484375
vt 0.65625 0.78125
vt 0.65625 0.84375
vt 0.40625 0.84375
vt 0.40625 0.78125
vt 0.65625 0.765625
vt 0.40625 0.765625
vt 0.40625 0.703125
vt 0.65625 0.703125
vn 1 0 0
vn -1 0 0
vn 0 1 0
vn 0 -1 0
vn 0 0 1
vn 0 0 -1
usemtl m_f4890b44-5021-8e3c-82f4-99291cf23399
f 10/25/7 9/26/7 11/27/7 12/28/7
f 15/29/8 13/30/8 14/31/8 16/32/8
f 13/33/9 9/34/9 10/35/9 14/36/9
f 12/37/10 11/38/10 15/39/10 16/40/10
f 11/41/11 9/42/11 13/43/11 15/44/11
f 14/45/12 10/46/12 12/47/12 16/48/12
o grass
v -0.0625 0.0859375 0.125
v -0.0625 0.0859375 -0.125
v -0.0625 0.0625 0.125
v -0.0625 0.0625 -0.125
v -0.125 0.0859375 0.125
v -0.125 0.0859375 -0.125
v -0.125 0.0625 0.125
v -0.125 0.0625 -0.125
vt 0.65625 1
vt 0.40625 1
vt 0.40625 0.9375
vt 0.65625 0.9375
vt 0.65625 0.859375
vt 0.65625 0.921875
vt 0.40625 0.921875
vt 0.40625 0.859375
vt 0 0.484375
vt 0.25 0.484375
vt 0.25 0.734375
vt 0 0.734375
vt 0.25 0.484375
vt 0.25 0.734375
vt 0 0.734375
vt 0 0.484375
vt 0.65625 0.78125
vt 0.65625 0.84375
vt 0.40625 0.84375
vt 0.40625 0.78125
vt 0.65625 0.765625
vt 0.40625 0.765625
vt 0.40625 0.703125
vt 0.65625 0.703125
vn 1 0 0
vn -1 0 0
vn 0 1 0
vn 0 -1 0
vn 0 0 1
vn 0 0 -1
usemtl m_f4890b44-5021-8e3c-82f4-99291cf23399
f 18/49/13 17/50/13 19/51/13 20/52/13
f 23/53/14 21/54/14 22/55/14 24/56/14
f 21/57/15 17/58/15 18/59/15 22/60/15
f 20/61/16 19/62/16 23/63/16 24/64/16
f 19/65/17 17/66/17 21/67/17 23/68/17
f 22/69/18 18/70/18 20/71/18 24/72/18
o plane
v 0.0078125 0.0796875 0.046875
v 0.0078125 0.0796875 0.015625
v -0.0078125 0.0796875 0.046875
v -0.0078125 0.0796875 0.015625
vt 0.421875 0.53125
vt 0.421875 0.5625
vt 0.40625 0.5625
vt 0.40625 0.53125
vn 0 1 0
usemtl m_f4890b44-5021-8e3c-82f4-99291cf23399
f 25/73/19 26/74/19 28/75/19 27/76/19
o plane
v 0.0078125 0.0796875 -0.015625
v 0.0078125 0.0796875 -0.046875
v -0.0078125 0.0796875 -0.015625
v -0.0078125 0.0796875 -0.046875
vt 0.421875 0.53125
vt 0.421875 0.5625
vt 0.40625 0.5625
vt 0.40625 0.53125
vn 0 1 0
usemtl m_f4890b44-5021-8e3c-82f4-99291cf23399
f 29/77/20 30/78/20 32/79/20 31/80/20
o road
v 0.0625 0.078125 0.0625
v 0.0625 0.078125 -0.0625
v 0.0625 0.0625 0.0625
v 0.0625 0.0625 -0.0625
v -0.0625 0.078125 0.0625
v -0.0625 0.078125 -0.0625
v -0.0625 0.0625 0.0625
v -0.0625 0.0625 -0.0625
vt 0.65625 0.6875
vt 0.40625 0.6875
vt 0.40625 0.671875
vt 0.65625 0.671875
vt 0.65625 0.640625
vt 0.65625 0.65625
vt 0.40625 0.65625
vt 0.40625 0.640625
vt 0.265625 0.75
vt 0.390625 0.75
vt 0.390625 1
vt 0.265625 1
vt 0.390625 0.484375
vt 0.390625 0.734375
vt 0.265625 0.734375
vt 0.265625 0.484375
vt 0.53125 0.609375
vt 0.53125 0.625
vt 0.40625 0.625
vt 0.40625 0.609375
vt 0.53125 0.59375
vt 0.40625 0.59375
vt 0.40625 0.578125
vt 0.53125 0.578125
vn 1 0 0
vn -1 0 0
vn 0 1 0
vn 0 -1 0
vn 0 0 1
vn 0 0 -1
usemtl m_f4890b44-5021-8e3c-82f4-99291cf23399
f 34/81/21 33/82/21 35/83/21 36/84/21
f 39/85/22 37/86/22 38/87/22 40/88/22
f 37/89/23 33/90/23 34/91/23 38/92/23
f 36/93/24 35/94/24 39/95/24 40/96/24
f 35/97/25 33/98/25 37/99/25 39/100/25
f 38/101/26 34/102/26 36/103/26 40/104/26
o grass
v -0.06249999999999997 0.0859375 -0.0625
v 0.06250000000000003 0.0859375 -0.06250000000000003
v -0.06249999999999997 0.0625 -0.0625
v 0.06250000000000003 0.0625 -0.06250000000000003
v -0.062499999999999986 0.0859375 -0.125
v 0.0625 0.0859375 -0.12500000000000003
v -0.062499999999999986 0.0625 -0.125
v 0.0625 0.0625 -0.12500000000000003
vt 0.65625 1
vt 0.40625 1
vt 0.40625 0.9375
vt 0.65625 0.9375
vt 0.65625 0.859375
vt 0.65625 0.921875
vt 0.40625 0.921875
vt 0.40625 0.859375
vt 0 0.484375
vt 0.25 0.484375
vt 0.25 0.734375
vt 0 0.734375
vt 0.25 0.484375
vt 0.25 0.734375
vt 0 0.734375
vt 0 0.484375
vt 0.65625 0.78125
vt 0.65625 0.84375
vt 0.40625 0.84375
vt 0.40625 0.78125
vt 0.65625 0.765625
vt 0.40625 0.765625
vt 0.40625 0.703125
vt 0.65625 0.703125
vn 2.220446049250313e-16 0 1
vn -2.220446049250313e-16 0 -1
vn 0 1 0
vn 0 -1 0
vn -1 0 2.220446049250313e-16
vn 1 0 -2.220446049250313e-16
usemtl m_f4890b44-5021-8e3c-82f4-99291cf23399
f 42/105/27 41/106/27 43/107/27 44/108/27
f 47/109/28 45/110/28 46/111/28 48/112/28
f 45/113/29 41/114/29 42/115/29 46/116/29
f 44/117/30 43/118/30 47/119/30 48/120/30
f 43/121/31 41/122/31 45/123/31 47/124/31
f 46/125/32 42/126/32 44/127/32 48/128/32
o grass
v -0.06249999999999997 0.0859375 0.125
v 0.06250000000000003 0.0859375 0.12499999999999997
v -0.06249999999999997 0.0625 0.125
v 0.06250000000000003 0.0625 0.12499999999999997
v -0.062499999999999986 0.0859375 0.0625
v 0.0625 0.0859375 0.06249999999999997
v -0.062499999999999986 0.0625 0.0625
v 0.0625 0.0625 0.06249999999999997
vt 0.65625 1
vt 0.40625 1
vt 0.40625 0.9375
vt 0.65625 0.9375
vt 0.65625 0.859375
vt 0.65625 0.921875
vt 0.40625 0.921875
vt 0.40625 0.859375
vt 0 0.484375
vt 0.25 0.484375
vt 0.25 0.734375
vt 0 0.734375
vt 0.25 0.484375
vt 0.25 0.734375
vt 0 0.734375
vt 0 0.484375
vt 0.65625 0.78125
vt 0.65625 0.84375
vt 0.40625 0.84375
vt 0.40625 0.78125
vt 0.65625 0.765625
vt 0.40625 0.765625
vt 0.40625 0.703125
vt 0.65625 0.703125
vn 2.220446049250313e-16 0 1
vn -2.220446049250313e-16 0 -1
vn 0 1 0
vn 0 -1 0
vn -1 0 2.220446049250313e-16
vn 1 0 -2.220446049250313e-16
usemtl m_f4890b44-5021-8e3c-82f4-99291cf23399
f 50/129/33 49/130/33 51/131/33 52/132/33
f 55/133/34 53/134/34 54/135/34 56/136/34
f 53/137/35 49/138/35 50/139/35 54/140/35
f 52/141/36 51/142/36 55/143/36 56/144/36
f 51/145/37 49/146/37 53/147/37 55/148/37
f 54/149/38 50/150/38 52/151/38 56/152/38