<svg width="1640" height="480" xmlns="http://www.w3.org/2000/svg"><!-- @nachtfalter  Natrix 1.3.1-fix1--><path d="M0,80L80,0L1560,0L1640,80L1640,400L1560,480L80,480L0,400z" stroke="none" stroke-width="10" fill="#0a610a"   ></path><path d="M1440,200L1480,280L1560,200L1480,280L1480,360" stroke="#fff" stroke-width="60" fill="none"  stroke-linecap="square" ></path><path d="M160,240L240,240" stroke="#fff" stroke-width="60" fill="none"  stroke-linecap="square" ></path><path d="M120,300L160,120L240,140L280,300" stroke="#fff" stroke-width="60" fill="none"  stroke-linecap="square" ></path><path d="M400,320L360,280L360,200L400,200" stroke="#fff" stroke-width="60" fill="none"  stroke-linecap="square" ></path><path d="M920,239.999L959.999,200L1000.001,200L1040,239.999L1040,280.001L1000.001,320L959.999,320L920,280L920,400L920,200z" stroke="#fff" stroke-width="60" fill="none"  stroke-linecap="square" ></path><path d="M520,320L480,280L480,200L520,200" stroke="#fff" stroke-width="60" fill="none"  stroke-linecap="square" ></path><path d="M760,320L720,280L720,240L760,200L800,200L840,240L840,280L800,320z" stroke="#fff" stroke-width="60" fill="none"  stroke-linecap="square" ></path><path d="M1160,320L1120,280L1120,240L1160,200L1200,200L1240,240L1240,280L1200,320z" stroke="#fff" stroke-width="60" fill="none"  stroke-linecap="square" ></path><path d="M600,320L600,200L640,200" stroke="#fff" stroke-width="60" fill="none"  stroke-linecap="square" ></path><path d="M1320,200L1320,320L1360,360" stroke="#fff" stroke-width="60" fill="none"  stroke-linecap="square" ></path></svg>