<svg width="960" height="640" xmlns="http://www.w3.org/2000/svg"><!-- @nachtfalter  Natrix 1.3.1-fix1--><path d="M0,80L80,0L880,0L960,80L960,560L880,640L80,640L0,560z" stroke="none" stroke-width="10" fill="#0a610a"   ></path><path d="M640,400L680,480L760,400L680,480L680,560" stroke="#fff" stroke-width="60" fill="none"  stroke-linecap="square" ></path><path d="M160,200L240,200" stroke="#fff" stroke-width="60" fill="none"  stroke-linecap="square" ></path><path d="M120,260L160,80L240,100L280,260" stroke="#fff" stroke-width="60" fill="none"  stroke-linecap="square" ></path><path d="M400,280L360,240L360,160L400,160" stroke="#fff" stroke-width="60" fill="none"  stroke-linecap="square" ></path><path d="M120,439.999L159.999,400L200.001,400L240,439.999L240,480.001L200.001,520L159.999,520L120,480L120,600L120,400z" stroke="#fff" stroke-width="60" fill="none"  stroke-linecap="square" ></path><path d="M520,280L480,240L480,160L520,160" stroke="#fff" stroke-width="60" fill="none"  stroke-linecap="square" ></path><path d="M760,280L720,240L720,200L760,160L800,160L840,200L840,240L800,280z" stroke="#fff" stroke-width="60" fill="none"  stroke-linecap="square" ></path><path d="M360,520L320,480L320,440L360,400L400,400L440,440L440,480L400,520z" stroke="#fff" stroke-width="60" fill="none"  stroke-linecap="square" ></path><path d="M600,280L600,160L640,160" stroke="#fff" stroke-width="60" fill="none"  stroke-linecap="square" ></path><path d="M520,400L520,520L560,560" stroke="#fff" stroke-width="60" fill="none"  stroke-linecap="square" ></path></svg>