<svg width="180" height="180" xmlns="http://www.w3.org/2000/svg"><!-- @nachtfalter  Natrix 1.3.1-fix1--><path d="M67.5,11.25L112.5,11.25L157.5,45L168.75,90L157.5,135L112.5,168.75L67.5,168.75L22.5,135L11.25,90L22.5,45z" stroke="none" stroke-width="10" fill="#151580"   ></path><path d="M90,67.5L78.75,56.25L78.75,45L90,33.75L101.25,33.75L112.5,45L112.5,56.25L101.25,67.5L123.75,112.5L67.5,112.5z" stroke="none" stroke-width="10" fill="#272798"   ></path><path d="M67.5,90L56.25,78.75L56.25,67.5L67.5,56.25L78.75,56.25L90,67.5L90,78.75L78.75,90L101.25,135L45,135z" stroke="none" stroke-width="10" fill="#3b3bc6"   ></path><path d="M101.25,101.25L90,90L90,78.75L101.25,67.5L112.5,67.5L123.75,78.75L123.75,90L112.5,101.25L135,146.25L78.75,146.25z" stroke="none" stroke-width="10" fill="#3636b2"   ></path></svg>