<svg width="480" height="480" xmlns="http://www.w3.org/2000/svg"><!--Crée par @nachtfalter par Natrix-Test 2.1.0-pre3--><path d="M0,0L480,0L480,480L0,480z" stroke="none" stroke-width="10" fill="#0a610a"   ></path><path d="M0,480L60,420L60,300L120,240L180,240L210,210L270,210L300,240L360,240L420,300L420,420L480,480z" stroke="none" stroke-width="10" fill="#043c8a" stroke-linejoin="round"  ></path><path d="M30,180L30,150L45,135L75,135L90,150L90,180L60,195L45,195z" stroke="none" stroke-width="10" fill="#062e06"   ></path><path d="M240,105L240,75L270,60L285,60L300,75L300,105L285,120L255,120z" stroke="none" stroke-width="10" fill="#062e06"   ></path><path d="M390,135L390,120L405,105L435,105L450,120L450,150L435,165L405,165z" stroke="none" stroke-width="10" fill="#062e06"   ></path></svg>