# Made in Blockbench 4.12.4
mtllib materials.mtl

o grass
v 0.5 0.25 0.5
v 0.5 0.25 -0.5
v 0.5 0 0.5
v 0.5 0 -0.5
v -0.5 0.25 0.5
v -0.5 0.25 -0.5
v -0.5 0 0.5
v -0.5 0 -0.5
vt 0.01171875 0.99609375
vt 0.00390625 0.99609375
vt 0.00390625 0.98828125
vt 0.01171875 0.98828125
vt 0.02734375 0.99609375
vt 0.01953125 0.99609375
vt 0.01953125 0.98828125
vt 0.02734375 0.98828125
vt 0.04296875 0.99609375
vt 0.03515625 0.99609375
vt 0.03515625 0.98828125
vt 0.04296875 0.98828125
vt 0.05859375 0.99609375
vt 0.05078125 0.99609375
vt 0.05078125 0.98828125
vt 0.05859375 0.98828125
vt 0.07421875 0.99609375
vt 0.06640625 0.99609375
vt 0.06640625 0.98828125
vt 0.07421875 0.98828125
vt 0.08984375 0.99609375
vt 0.08203125 0.99609375
vt 0.08203125 0.98828125
vt 0.08984375 0.98828125
vn 1 0 0
vn -1 0 0
vn 0 1 0
vn 0 -1 0
vn 0 0 1
vn 0 0 -1
usemtl m_04f649f9-ee25-9e44-fc3e-c9145fb545c9
f 2/1/1 1/2/1 3/3/1 4/4/1
f 7/5/2 5/6/2 6/7/2 8/8/2
f 5/9/3 1/10/3 2/11/3 6/12/3
f 4/13/4 3/14/4 7/15/4 8/16/4
f 3/17/5 1/18/5 5/19/5 7/20/5
f 6/21/6 2/22/6 4/23/6 8/24/6
o plane
v 0.03125 0.31875 -0.3125
v 0.03125 0.31875 -0.4375
v -0.03125 0.31875 -0.3125
v -0.03125 0.31875 -0.4375
vt 0.125 0.75
vt 0.125 1
vt 0 1
vt 0 0.75
vn 0 1 0
usemtl m_1b117271-48d9-5f4c-7692-27328ba6fe47
f 9/25/7 10/26/7 12/27/7 11/28/7
o plane
v 0.03125 0.31875 -0.125
v 0.03125 0.31875 -0.25
v -0.03125 0.31875 -0.125
v -0.03125 0.31875 -0.25
vt 0.125 0.75
vt 0.125 1
vt 0 1
vt 0 0.75
vn 0 1 0
usemtl m_1b117271-48d9-5f4c-7692-27328ba6fe47
f 13/29/8 14/30/8 16/31/8 15/32/8
o road
v 0.25 0.3125 0.25
v 0.25 0.3125 -0.5
v 0.25 0.25 0.25
v 0.25 0.25 -0.5
v -0.25 0.3125 0.25
v -0.25 0.3125 -0.5
v -0.25 0.25 0.25
v -0.25 0.25 -0.5
vt 0.515625 1
vt 0.265625 1
vt 0.265625 0.9375
vt 0.515625 0.9375
vt 0.515625 0.859375
vt 0.515625 0.921875
vt 0.265625 0.921875
vt 0.265625 0.859375
vt 0 0.75
vt 0.25 0.75
vt 0.25 1
vt 0 1
vt 0.25 0.484375
vt 0.25 0.734375
vt 0 0.734375
vt 0 0.484375
vt 0.515625 0.78125
vt 0.515625 0.84375
vt 0.265625 0.84375
vt 0.265625 0.78125
vt 0.515625 0.765625
vt 0.265625 0.765625
vt 0.265625 0.703125
vt 0.515625 0.703125
vn 1 0 0
vn -1 0 0
vn 0 1 0
vn 0 -1 0
vn 0 0 1
vn 0 0 -1
usemtl m_65a067a6-8932-9c8c-3e60-1738b3690105
f 18/33/9 17/34/9 19/35/9 20/36/9
f 23/37/10 21/38/10 22/39/10 24/40/10
f 21/41/11 17/42/11 18/43/11 22/44/11
f 20/45/12 19/46/12 23/47/12 24/48/12
f 19/49/13 17/50/13 21/51/13 23/52/13
f 22/53/14 18/54/14 20/55/14 24/56/14