# Made in Blockbench 4.12.4
mtllib materials.mtl

o grass
v 0.5 0.25 0.5
v 0.5 0.25 -0.5
v 0.5 0 0.5
v 0.5 0 -0.5
v -0.5 0.25 0.5
v -0.5 0.25 -0.5
v -0.5 0 0.5
v -0.5 0 -0.5
vt 0.01171875 0.99609375
vt 0.00390625 0.99609375
vt 0.00390625 0.98828125
vt 0.01171875 0.98828125
vt 0.02734375 0.99609375
vt 0.01953125 0.99609375
vt 0.01953125 0.98828125
vt 0.02734375 0.98828125
vt 0.04296875 0.99609375
vt 0.03515625 0.99609375
vt 0.03515625 0.98828125
vt 0.04296875 0.98828125
vt 0.05859375 0.99609375
vt 0.05078125 0.99609375
vt 0.05078125 0.98828125
vt 0.05859375 0.98828125
vt 0.07421875 0.99609375
vt 0.06640625 0.99609375
vt 0.06640625 0.98828125
vt 0.07421875 0.98828125
vt 0.08984375 0.99609375
vt 0.08203125 0.99609375
vt 0.08203125 0.98828125
vt 0.08984375 0.98828125
vn 1 0 0
vn -1 0 0
vn 0 1 0
vn 0 -1 0
vn 0 0 1
vn 0 0 -1
usemtl m_04f649f9-ee25-9e44-fc3e-c9145fb545c9
f 2/1/1 1/2/1 3/3/1 4/4/1
f 7/5/2 5/6/2 6/7/2 8/8/2
f 5/9/3 1/10/3 2/11/3 6/12/3
f 4/13/4 3/14/4 7/15/4 8/16/4
f 3/17/5 1/18/5 5/19/5 7/20/5
f 6/21/6 2/22/6 4/23/6 8/24/6
o cuboid
v 0.25 0.625 0.25
v 0.25 0.625 -0.25
v 0.25 0.25 0.25
v 0.25 0.25 -0.25
v -0.25 0.625 0.25
v -0.25 0.625 -0.25
v -0.25 0.25 0.25
v -0.25 0.25 -0.25
vt 0.53125 0.46875
vt 0.53125 0.71875
vt 0.28125 0.71875
vt 0.28125 0.46875
vt 0.25 0.1875
vt 0.25 0.4375
vt 0 0.4375
vt 0 0.1875
vt 0.8125 1
vt 0.5625 1
vt 0.5625 0.75
vt 0.8125 0.75
vt 0.25 1
vt 0 1
vt 0 0.75
vt 0.25 0.75
vt 0.25 0.46875
vt 0.25 0.71875
vt 0 0.71875
vt 0 0.46875
vt 0.28125 0.75
vt 0.53125 0.75
vt 0.53125 1
vt 0.28125 1
vn 0 -1 0
vn 0 0 1
vn 0 0 -1
vn 1 0 0
vn -1 0 0
vn 0 1 0
usemtl m_9d32b6f3-2732-f665-0041-c1551f15b448
f 12/25/7 11/26/7 15/27/7 16/28/7
f 11/29/8 9/30/8 13/31/8 15/32/8
f 14/33/9 10/34/9 12/35/9 16/36/9
f 10/37/10 9/38/10 11/39/10 12/40/10
f 15/41/11 13/42/11 14/43/11 16/44/11
f 13/45/12 9/46/12 10/47/12 14/48/12
o plane
v 0.375 0.796875 0
v 0.375 0.546875 -0.375
v -0.375 0.796875 0
v -0.375 0.546875 -0.375
vt 0.5 0.5
vt 0.5 1
vt 0 1
vt 0 0.5
vn 0 0.8320502943378438 -0.5547001962252291
usemtl m_500b5a40-8218-bd4b-f1e7-1e9551c93d74
f 17/49/13 18/50/13 20/51/13 19/52/13
o plane
v 0.375 0.546875 0.375
v 0.375 0.796875 0
v -0.375 0.546875 0.375
v -0.375 0.796875 0
vt 0.5 0.5
vt 0.5 1
vt 0 1
vt 0 0.5
vn 0 0.8320502943378438 0.5547001962252291
usemtl m_500b5a40-8218-bd4b-f1e7-1e9551c93d74
f 21/53/14 22/54/14 24/55/14 23/56/14
o plane
v -0.25625 0.5 0.1875
v -0.25625 0.5 0.0625
v -0.25625 0.375 0.1875
v -0.25625 0.375 0.0625
vt 0.25 1
vt 0 1
vt 0 0.75
vt 0.25 0.75
vn -1 0 0
usemtl m_9e61bd5a-40dc-c112-f510-b0692954f682
f 25/57/15 26/58/15 28/59/15 27/60/15
o plane
v -0.25625 0.5 -0.0625
v -0.25625 0.5 -0.1875
v -0.25625 0.25 -0.0625
v -0.25625 0.25 -0.1875
vt 0.125 1
vt 0 1
vt 0 0.75
vt 0.125 0.75
vn -1 0 0
usemtl m_872fdc77-0729-69a1-59e4-382b528cb4ea
f 29/61/16 30/62/16 32/63/16 31/64/16
o plane
v 0.18750000000000006 0.5 0.25625
v 0.06250000000000006 0.5 0.25625
v 0.18750000000000006 0.375 0.25625
v 0.06250000000000006 0.375 0.25625
vt 0.25 1
vt 0 1
vt 0 0.75
vt 0.25 0.75
vn -2.220446049250313e-16 0 1
usemtl m_9e61bd5a-40dc-c112-f510-b0692954f682
f 33/65/17 34/66/17 36/67/17 35/68/17
o plane
v -0.062499999999999944 0.5 0.25625
v -0.18749999999999994 0.5 0.25625
v -0.062499999999999944 0.375 0.25625
v -0.18749999999999994 0.375 0.25625
vt 0.25 1
vt 0 1
vt 0 0.75
vt 0.25 0.75
vn -2.220446049250313e-16 0 1
usemtl m_9e61bd5a-40dc-c112-f510-b0692954f682
f 37/69/18 38/70/18 40/71/18 39/72/18
o plane
v 0.18750000000000006 0.5 -0.25625
v 0.06250000000000006 0.5 -0.25625
v 0.18750000000000006 0.375 -0.25625
v 0.06250000000000006 0.375 -0.25625
vt 0.25 1
vt 0 1
vt 0 0.75
vt 0.25 0.75
vn -2.220446049250313e-16 0 1
usemtl m_9e61bd5a-40dc-c112-f510-b0692954f682
f 41/73/19 42/74/19 44/75/19 43/76/19
o plane
v 0.25625 0.5 0.1875
v 0.25625 0.5 -0.1875
v 0.25625 0.375 0.1875
v 0.25625 0.375 -0.1875
vt 0.25 1
vt 0 1
vt 0 0.75
vt 0.25 0.75
vn -1 0 0
usemtl m_9e61bd5a-40dc-c112-f510-b0692954f682
f 45/77/20 46/78/20 48/79/20 47/80/20
o plane
v -0.25 0.796875 0
v -0.25 0.625 0.25
v -0.25 0.625 -0.25
vt 0 1
vt 0 0.875
vt 0.125 0.875
vn -1 0 0
usemtl m_9d32b6f3-2732-f665-0041-c1551f15b448
f 49/81/21 51/82/21 50/83/21
o plane
v 0.25 0.796875 0
v 0.25 0.625 0.25
v 0.25 0.625 -0.25
vt 0 1
vt 0 0.875
vt 0.125 0.875
vn -1 0 0
usemtl m_9d32b6f3-2732-f665-0041-c1551f15b448
f 52/84/22 54/85/22 53/86/22
o heatpump
v -0.0625 0.375 -0.3125
v -0.0625 0.375 -0.375
v -0.0625 0.25 -0.3125
v -0.0625 0.25 -0.375
v -0.1875 0.375 -0.3125
v -0.1875 0.375 -0.375
v -0.1875 0.25 -0.3125
v -0.1875 0.25 -0.375
vt 0.125 1
vt 0 1
vt 0 0.875
vt 0.125 0.875
vt 0.125 0.875
vt 0.125 1
vt 0 1
vt 0 0.875
vt 0 0.875
vt 0.125 0.875
vt 0.125 1
vt 0 1
vt 0.125 0.875
vt 0.125 1
vt 0 1
vt 0 0.875
vt 0.125 0.875
vt 0.125 1
vt 0 1
vt 0 0.875
vt 0.125 1
vt 0 1
vt 0 0.875
vt 0.125 0.875
vn 1 0 0
vn -1 0 0
vn 0 1 0
vn 0 -1 0
vn 0 0 1
vn 0 0 -1
usemtl m_2fb5e9ab-f309-c5e2-9cf6-fd2adb60a784
f 56/87/23 55/88/23 57/89/23 58/90/23
f 61/91/24 59/92/24 60/93/24 62/94/24
f 59/95/25 55/96/25 56/97/25 60/98/25
f 58/99/26 57/100/26 61/101/26 62/102/26
f 57/103/27 55/104/27 59/105/27 61/106/27
f 60/107/28 56/108/28 58/109/28 62/110/28