# Made in Blockbench 4.12.4
mtllib materials.mtl

o water
v 0.5 0.125 0.5
v 0.5 0.125 -0.5
v -0.5 0.125 0.5
v -0.5 0.125 -0.5
vt 0.25 0.75
vt 0.25 1
vt 0 1
vt 0 0.75
vn 0 1 0
usemtl m_dee8779c-fbfc-43f7-180a-3fe3f73c1a43
f 1/1/1 2/2/1 4/3/1 3/4/1
o water
v 0.5 -0.25 0.5
v 0.5 -0.25 -0.5
v -0.5 -0.25 0.5
v -0.5 -0.25 -0.5
vt 0.25 0.75
vt 0.25 1
vt 0 1
vt 0 0.75
vn 0 1 0
usemtl m_18e4cc5d-e6db-f6aa-372f-671d31dcf413
f 5/5/2 6/6/2 8/7/2 7/8/2
o grass
v 0.5 0.25 -0.25
v 0.5 0 0
v 0.25 0.25 -0.5
v 0.5 0.25 -0.5
v 0 0 -0.5
v 0.5 0 -0.5
vt 0.01171875 0.99609375
vt 0.00390625 0.99609375
vt 0.00390625 0.98828125
vt 0.01171875 0.98828125
vt 0.02734375 0.99609375
vt 0.01953125 0.99609375
vt 0.01953125 0.98828125
vt 0.02734375 0.98828125
vt 0.05078125 0.99609375
vt 0.05078125 0.98828125
vt 0.05859375 0.98828125
vt 0.07421875 0.99609375
vt 0.06640625 0.99609375
vt 0.06640625 0.98828125
vt 0.07421875 0.98828125
vt 0.04296875 0.99609375
vt 0.03515625 0.99609375
vt 0.04296875 0.98828125
vn 1 0 0
vn 0 0 -1
vn 0 -1 0
vn -0.5773502691896258 0.5773502691896258 0.5773502691896258
vn 0 1 0
usemtl m_04f649f9-ee25-9e44-fc3e-c9145fb545c9
f 12/9/3 9/10/3 10/11/3 14/12/3
f 13/13/4 11/14/4 12/15/4 14/16/4
f 10/17/5 13/18/5 14/19/5
f 10/20/6 9/21/6 11/22/6 13/23/6
f 11/24/7 9/25/7 12/26/7
o grass
v 0.5 0 0
v 0.5 -0.25 0.25
v 0 0 -0.5
v 0.5 0 -0.5
v -0.25 -0.25 -0.5
v 0.5 -0.25 -0.5
vt 0.01171875 0.99609375
vt 0.00390625 0.99609375
vt 0.00390625 0.98828125
vt 0.01171875 0.98828125
vt 0.02734375 0.99609375
vt 0.01953125 0.99609375
vt 0.01953125 0.98828125
vt 0.02734375 0.98828125
vt 0.05078125 0.99609375
vt 0.05078125 0.98828125
vt 0.05859375 0.98828125
vt 0.07421875 0.99609375
vt 0.06640625 0.99609375
vt 0.06640625 0.98828125
vt 0.07421875 0.98828125
vt 0.04296875 0.99609375
vt 0.03515625 0.99609375
vt 0.04296875 0.98828125
vn 1 0 0
vn 0 0 -1
vn 0 -1 0
vn -0.5773502691896258 0.5773502691896258 0.5773502691896258
vn 0 1 0
usemtl m_18e4cc5d-e6db-f6aa-372f-671d31dcf413
f 18/27/8 15/28/8 16/29/8 20/30/8
f 19/31/9 17/32/9 18/33/9 20/34/9
f 16/35/10 19/36/10 20/37/10
f 16/38/11 15/39/11 17/40/11 19/41/11
f 17/42/12 15/43/12 18/44/12