# Made in Blockbench 4.12.4
mtllib materials.mtl

o water
v 0.5 0.125 0.5
v 0.5 0.125 -0.5
v -0.5 0.125 0.5
v -0.5 0.125 -0.5
vt 0.25 0.75
vt 0.25 1
vt 0 1
vt 0 0.75
vn 0 1 0
usemtl m_dee8779c-fbfc-43f7-180a-3fe3f73c1a43
f 1/1/1 2/2/1 4/3/1 3/4/1
o dirt
v 0.5 -0.25 0.5
v 0.5 -0.25 -0.5
v -0.5 -0.25 0.5
v -0.5 -0.25 -0.5
vt 0.25 0.75
vt 0.25 1
vt 0 1
vt 0 0.75
vn 0 1 0
usemtl m_18e4cc5d-e6db-f6aa-372f-671d31dcf413
f 5/5/2 6/6/2 8/7/2 7/8/2
o beton
v -0.25 0.6875 0.5
v -0.25 0.4375 0.5
v -0.25 0.4375 -0.5
v -0.3125 0.4375 0.5
v -0.3125 0.4375 -0.5
v -0.25 0.6875 -0.5
v -0.3125 0.6875 0.5
v -0.3125 0.6875 -0.5
vt 0.5 1
vt 0 1
vt 0 0.875
vt 0.5 0.875
vt 0.28125 0.1875
vt 0.28125 0.6875
vt 0.15625 0.6875
vt 0.15625 0.1875
vt 0.4375 0.5625
vt 0.4375 0.6875
vt 0.3125 0.6875
vt 0.3125 0.5625
vt 0.4375 0.53125
vt 0.3125 0.53125
vt 0.3125 0.40625
vt 0.4375 0.40625
vt 0.25 0.875
vt 0.25 1
vt 0 1
vt 0 0.875
vt 0 0.1875
vt 0.125 0.1875
vt 0.125 0.6875
vt 0 0.6875
vn 1 0 0
vn 0 -1 0
vn 0 0 1
vn 0 0 -1
vn -1 0 0
vn 0 1 0
usemtl m_cac8ed46-0dbe-0ead-0c01-42900a078faf
f 14/9/3 9/10/3 10/11/3 11/12/3
f 11/13/4 10/14/4 12/15/4 13/16/4
f 10/17/5 9/18/5 15/19/5 12/20/5
f 16/21/6 14/22/6 11/23/6 13/24/6
f 12/25/7 15/26/7 16/27/7 13/28/7
f 15/29/8 9/30/8 14/31/8 16/32/8
o beton
v 0.3125 0.6875 0.5
v 0.3125 0.6875 -0.5
v 0.3125 0.4375 0.5
v 0.3125 0.4375 -0.5
v 0.25 0.6875 0.5
v 0.25 0.6875 -0.5
v 0.25 0.4375 0.5
v 0.25 0.4375 -0.5
vt 0.5 1
vt 0 1
vt 0 0.875
vt 0.5 0.875
vt 0.5 0.71875
vt 0.5 0.84375
vt 0 0.84375
vt 0 0.71875
vt 0 0.1875
vt 0.125 0.1875
vt 0.125 0.6875
vt 0 0.6875
vt 0.28125 0.1875
vt 0.28125 0.6875
vt 0.15625 0.6875
vt 0.15625 0.1875
vt 0.4375 0.5625
vt 0.4375 0.6875
vt 0.3125 0.6875
vt 0.3125 0.5625
vt 0.4375 0.53125
vt 0.3125 0.53125
vt 0.3125 0.40625
vt 0.4375 0.40625
vn 1 0 0
vn -1 0 0
vn 0 1 0
vn 0 -1 0
vn 0 0 1
vn 0 0 -1
usemtl m_cac8ed46-0dbe-0ead-0c01-42900a078faf
f 18/33/9 17/34/9 19/35/9 20/36/9
f 23/37/10 21/38/10 22/39/10 24/40/10
f 21/41/11 17/42/11 18/43/11 22/44/11
f 20/45/12 19/46/12 23/47/12 24/48/12
f 19/49/13 17/50/13 21/51/13 23/52/13
f 22/53/14 18/54/14 20/55/14 24/56/14
o beton
v 0.24999999999999994 0.4375000000000001 0.5
v 0.24999999999999994 0.4375000000000001 -0.5
v -0.25000000000000006 0.4375 0.5
v -0.25000000000000006 0.4375 -0.5
v 0.24999999999999994 0.5000000000000001 0.5
v 0.24999999999999994 0.5000000000000001 -0.5
v -0.25000000000000006 0.5 0.5
v -0.25000000000000006 0.5 -0.5
vt 0.5 1
vt 0 1
vt 0 0.875
vt 0.5 0.875
vt 0.5 0.71875
vt 0.5 0.84375
vt 0 0.84375
vt 0 0.71875
vt 0 0.1875
vt 0.125 0.1875
vt 0.125 0.6875
vt 0 0.6875
vt 0.28125 0.1875
vt 0.28125 0.6875
vt 0.15625 0.6875
vt 0.15625 0.1875
vt 0.4375 0.5625
vt 0.4375 0.6875
vt 0.3125 0.6875
vt 0.3125 0.5625
vt 0.4375 0.53125
vt 0.3125 0.53125
vt 0.3125 0.40625
vt 0.4375 0.40625
vn 2.220446049250313e-16 -1 0
vn -2.220446049250313e-16 1 0
vn 1 2.220446049250313e-16 0
vn -1 -2.220446049250313e-16 0
vn 0 0 1
vn 0 0 -1
usemtl m_cac8ed46-0dbe-0ead-0c01-42900a078faf
f 26/57/15 25/58/15 27/59/15 28/60/15
f 31/61/16 29/62/16 30/63/16 32/64/16
f 29/65/17 25/66/17 26/67/17 30/68/17
f 28/69/18 27/70/18 31/71/18 32/72/18
f 27/73/19 25/74/19 29/75/19 31/76/19
f 30/77/20 26/78/20 28/79/20 32/80/20
o beton
v 0.125 0.4375 0.125
v 0.125 -0.25 0.125
v 0.125 -0.25 -0.125
v -0.125 -0.25 0.125
v -0.125 -0.25 -0.125
v 0.125 0.4375 -0.125
v -0.125 0.4375 0.125
v -0.125 0.4375 -0.125
vt 0.5 1
vt 0 1
vt 0 0.875
vt 0.5 0.875
vt 0.28125 0.1875
vt 0.28125 0.6875
vt 0.15625 0.6875
vt 0.15625 0.1875
vt 0.4375 0.5625
vt 0.4375 0.6875
vt 0.3125 0.6875
vt 0.3125 0.5625
vt 0.4375 0.53125
vt 0.3125 0.53125
vt 0.3125 0.40625
vt 0.4375 0.40625
vt 0.25 0.875
vt 0.25 1
vt 0 1
vt 0 0.875
vt 0 0.1875
vt 0.125 0.1875
vt 0.125 0.6875
vt 0 0.6875
vn 1 0 0
vn 0 -1 0
vn 0 0 1
vn 0 0 -1
vn -1 0 0
vn 0 1 0
usemtl m_cac8ed46-0dbe-0ead-0c01-42900a078faf
f 38/81/21 33/82/21 34/83/21 35/84/21
f 35/85/22 34/86/22 36/87/22 37/88/22
f 34/89/23 33/90/23 39/91/23 36/92/23
f 40/93/24 38/94/24 35/95/24 37/96/24
f 36/97/25 39/98/25 40/99/25 37/100/25
f 39/101/26 33/102/26 38/103/26 40/104/26
o road
v 0.25 0.5625 0.5
v 0.25 0.5625 -0.5
v 0.25 0.5 0.5
v 0.25 0.5 -0.5
v -0.25 0.5625 0.5
v -0.25 0.5625 -0.5
v -0.25 0.5 0.5
v -0.25 0.5 -0.5
vt 0.515625 1
vt 0.265625 1
vt 0.265625 0.9375
vt 0.515625 0.9375
vt 0.515625 0.859375
vt 0.515625 0.921875
vt 0.265625 0.921875
vt 0.265625 0.859375
vt 0 0.75
vt 0.25 0.75
vt 0.25 1
vt 0 1
vt 0.25 0.484375
vt 0.25 0.734375
vt 0 0.734375
vt 0 0.484375
vt 0.515625 0.78125
vt 0.515625 0.84375
vt 0.265625 0.84375
vt 0.265625 0.78125
vt 0.515625 0.765625
vt 0.265625 0.765625
vt 0.265625 0.703125
vt 0.515625 0.703125
vn 1 0 0
vn -1 0 0
vn 0 1 0
vn 0 -1 0
vn 0 0 1
vn 0 0 -1
usemtl m_65a067a6-8932-9c8c-3e60-1738b3690105
f 42/105/27 41/106/27 43/107/27 44/108/27
f 47/109/28 45/110/28 46/111/28 48/112/28
f 45/113/29 41/114/29 42/115/29 46/116/29
f 44/117/30 43/118/30 47/119/30 48/120/30
f 43/121/31 41/122/31 45/123/31 47/124/31
f 46/125/32 42/126/32 44/127/32 48/128/32
o plane
v 0.03125 0.56875 0.1875
v 0.03125 0.56875 0.0625
v -0.03125 0.56875 0.1875
v -0.03125 0.56875 0.0625
vt 0.125 0.75
vt 0.125 1
vt 0 1
vt 0 0.75
vn 0 1 0
usemtl m_1b117271-48d9-5f4c-7692-27328ba6fe47
f 49/129/33 50/130/33 52/131/33 51/132/33
o plane
v 0.03125 0.56875 0.4375
v 0.03125 0.56875 0.3125
v -0.03125 0.56875 0.4375
v -0.03125 0.56875 0.3125
vt 0.125 0.75
vt 0.125 1
vt 0 1
vt 0 0.75
vn 0 1 0
usemtl m_1b117271-48d9-5f4c-7692-27328ba6fe47
f 53/133/34 54/134/34 56/135/34 55/136/34
o plane
v 0.03125 0.56875 -0.0625
v 0.03125 0.56875 -0.1875
v -0.03125 0.56875 -0.0625
v -0.03125 0.56875 -0.1875
vt 0.125 0.75
vt 0.125 1
vt 0 1
vt 0 0.75
vn 0 1 0
usemtl m_1b117271-48d9-5f4c-7692-27328ba6fe47
f 57/137/35 58/138/35 60/139/35 59/140/35
o plane
v 0.03125 0.56875 -0.3125
v 0.03125 0.56875 -0.4375
v -0.03125 0.56875 -0.3125
v -0.03125 0.56875 -0.4375
vt 0.125 0.75
vt 0.125 1
vt 0 1
vt 0 0.75
vn 0 1 0
usemtl m_1b117271-48d9-5f4c-7692-27328ba6fe47
f 61/141/36 62/142/36 64/143/36 63/144/36