# Made in Blockbench 4.12.4
mtllib materials.mtl

o grass
v 0.5 0.25 0.5
v 0.5 0.25 -0.5
v 0.5 0 0.5
v 0.5 0 -0.5
v -0.5 0.25 0.5
v -0.5 0.25 -0.5
v -0.5 0 0.5
v -0.5 0 -0.5
vt 0.01171875 0.99609375
vt 0.00390625 0.99609375
vt 0.00390625 0.98828125
vt 0.01171875 0.98828125
vt 0.02734375 0.99609375
vt 0.01953125 0.99609375
vt 0.01953125 0.98828125
vt 0.02734375 0.98828125
vt 0.04296875 0.99609375
vt 0.03515625 0.99609375
vt 0.03515625 0.98828125
vt 0.04296875 0.98828125
vt 0.05859375 0.99609375
vt 0.05078125 0.99609375
vt 0.05078125 0.98828125
vt 0.05859375 0.98828125
vt 0.07421875 0.99609375
vt 0.06640625 0.99609375
vt 0.06640625 0.98828125
vt 0.07421875 0.98828125
vt 0.08984375 0.99609375
vt 0.08203125 0.99609375
vt 0.08203125 0.98828125
vt 0.08984375 0.98828125
vn 1 0 0
vn -1 0 0
vn 0 1 0
vn 0 -1 0
vn 0 0 1
vn 0 0 -1
usemtl m_04f649f9-ee25-9e44-fc3e-c9145fb545c9
f 2/1/1 1/2/1 3/3/1 4/4/1
f 7/5/2 5/6/2 6/7/2 8/8/2
f 5/9/3 1/10/3 2/11/3 6/12/3
f 4/13/4 3/14/4 7/15/4 8/16/4
f 3/17/5 1/18/5 5/19/5 7/20/5
f 6/21/6 2/22/6 4/23/6 8/24/6
o cuboid
v 0.375 0.875 0.375
v 0.375 0.875 -0.375
v 0.375 0.25 0.375
v 0.375 0.25 -0.375
v -0.375 0.875 0.375
v -0.375 0.875 -0.375
v -0.375 0.25 0.375
v -0.375 0.25 -0.375
vt 0.375 0.625
vt 0.375 1
vt 0 1
vt 0 0.625
vt 0.78125 0.8125
vt 0.78125 1
vt 0.40625 1
vt 0.40625 0.8125
vt 0.78125 0.78125
vt 0.40625 0.78125
vt 0.40625 0.59375
vt 0.78125 0.59375
vt 0.78125 0.5625
vt 0.40625 0.5625
vt 0.40625 0.375
vt 0.78125 0.375
vt 0.78125 0.15625
vt 0.78125 0.34375
vt 0.40625 0.34375
vt 0.40625 0.15625
vt 0 0.5
vt 0.5 0.5
vt 0.5 1
vt 0 1
vn 0 -1 0
vn 0 0 1
vn 0 0 -1
vn 1 0 0
vn -1 0 0
vn 0 1 0
usemtl m_9b9af77f-33aa-1666-fba3-e4b086517442
f 12/25/7 11/26/7 15/27/7 16/28/7
f 11/29/8 9/30/8 13/31/8 15/32/8
f 14/33/9 10/34/9 12/35/9 16/36/9
f 10/37/10 9/38/10 11/39/10 12/40/10
f 15/41/11 13/42/11 14/43/11 16/44/11
usemtl m_500b5a40-8218-bd4b-f1e7-1e9551c93d74
f 13/45/12 9/46/12 10/47/12 14/48/12
o plane
v -0.38125 0.5 0.3125
v -0.38125 0.5 0.1875
v -0.38125 0.375 0.3125
v -0.38125 0.375 0.1875
vt 0.25 1
vt 0 1
vt 0 0.75
vt 0.25 0.75
vn -1 0 0
usemtl m_9e61bd5a-40dc-c112-f510-b0692954f682
f 17/49/13 18/50/13 20/51/13 19/52/13
o plane
v 0.06250000000000006 0.5 0.38125
v -0.062499999999999944 0.5 0.38125
v 0.06250000000000006 0.375 0.38125
v -0.062499999999999944 0.375 0.38125
vt 0.25 1
vt 0 1
vt 0 0.75
vt 0.25 0.75
vn -2.220446049250313e-16 0 1
usemtl m_9e61bd5a-40dc-c112-f510-b0692954f682
f 21/53/14 22/54/14 24/55/14 23/56/14
o plane
v 0.31250000000000006 0.5 -0.38125
v 0.18750000000000006 0.5 -0.38125
v 0.31250000000000006 0.375 -0.38125
v 0.18750000000000006 0.375 -0.38125
vt 0.25 1
vt 0 1
vt 0 0.75
vt 0.25 0.75
vn -2.220446049250313e-16 0 1
usemtl m_9e61bd5a-40dc-c112-f510-b0692954f682
f 25/57/15 26/58/15 28/59/15 27/60/15
o plane
v 0.38125 0.75 0.3125
v 0.38125 0.75 -0.0625
v 0.38125 0.625 0.3125
v 0.38125 0.625 -0.0625
vt 0.25 1
vt 0 1
vt 0 0.75
vt 0.25 0.75
vn -1 0 0
usemtl m_9e61bd5a-40dc-c112-f510-b0692954f682
f 29/61/16 30/62/16 32/63/16 31/64/16
o heatpump
v 0.3125 0.9375 -0.3125
v 0.1875 0.9375 -0.3125
v 0.3125 0.875 -0.3125
v 0.1875 0.875 -0.3125
v 0.3125 0.9375 -0.1875
v 0.1875 0.9375 -0.1875
v 0.3125 0.875 -0.1875
v 0.1875 0.875 -0.1875
vt 0.125 1
vt 0 1
vt 0 0.875
vt 0.125 0.875
vt 0.125 0.875
vt 0.125 1
vt 0 1
vt 0 0.875
vt 0 0.875
vt 0.125 0.875
vt 0.125 1
vt 0 1
vt 0.125 0.875
vt 0.125 1
vt 0 1
vt 0 0.875
vt 0.125 0.875
vt 0.125 1
vt 0 1
vt 0 0.875
vt 0.125 1
vt 0 1
vt 0 0.875
vt 0.125 0.875
vn 2.220446049250313e-16 0 -1
vn -2.220446049250313e-16 0 1
vn 0 1 0
vn 0 -1 0
vn 1 0 2.220446049250313e-16
vn -1 0 -2.220446049250313e-16
usemtl m_2fb5e9ab-f309-c5e2-9cf6-fd2adb60a784
f 34/65/17 33/66/17 35/67/17 36/68/17
f 39/69/18 37/70/18 38/71/18 40/72/18
f 37/73/19 33/74/19 34/75/19 38/76/19
f 36/77/20 35/78/20 39/79/20 40/80/20
f 35/81/21 33/82/21 37/83/21 39/84/21
f 38/85/22 34/86/22 36/87/22 40/88/22
o plane
v -0.18749999999999994 0.5 0.38125
v -0.31249999999999994 0.5 0.38125
v -0.18749999999999994 0.375 0.38125
v -0.31249999999999994 0.375 0.38125
vt 0.25 1
vt 0 1
vt 0 0.75
vt 0.25 0.75
vn -2.220446049250313e-16 0 1
usemtl m_9e61bd5a-40dc-c112-f510-b0692954f682
f 41/89/23 42/90/23 44/91/23 43/92/23
o plane
v 0.31250000000000006 0.5 0.38125
v 0.18750000000000006 0.5 0.38125
v 0.31250000000000006 0.375 0.38125
v 0.18750000000000006 0.375 0.38125
vt 0.25 1
vt 0 1
vt 0 0.75
vt 0.25 0.75
vn -2.220446049250313e-16 0 1
usemtl m_9e61bd5a-40dc-c112-f510-b0692954f682
f 45/93/24 46/94/24 48/95/24 47/96/24
o plane
v 0.38125 0.5 -0.1875
v 0.38125 0.5 -0.3125
v 0.38125 0.375 -0.1875
v 0.38125 0.375 -0.3125
vt 0.25 1
vt 0 1
vt 0 0.75
vt 0.25 0.75
vn -1 0 0
usemtl m_9e61bd5a-40dc-c112-f510-b0692954f682
f 49/97/25 50/98/25 52/99/25 51/100/25
o plane
v 0.06250000000000006 0.5 -0.38125
v -0.062499999999999944 0.5 -0.38125
v 0.06250000000000006 0.375 -0.38125
v -0.062499999999999944 0.375 -0.38125
vt 0.25 1
vt 0 1
vt 0 0.75
vt 0.25 0.75
vn -2.220446049250313e-16 0 1
usemtl m_9e61bd5a-40dc-c112-f510-b0692954f682
f 53/101/26 54/102/26 56/103/26 55/104/26
o plane
v -0.18749999999999994 0.5 -0.38125
v -0.31249999999999994 0.5 -0.38125
v -0.18749999999999994 0.375 -0.38125
v -0.31249999999999994 0.375 -0.38125
vt 0.25 1
vt 0 1
vt 0 0.75
vt 0.25 0.75
vn -2.220446049250313e-16 0 1
usemtl m_9e61bd5a-40dc-c112-f510-b0692954f682
f 57/105/27 58/106/27 60/107/27 59/108/27
o plane
v -0.38125 0.5 -0.1875
v -0.38125 0.5 -0.3125
v -0.38125 0.375 -0.1875
v -0.38125 0.375 -0.3125
vt 0.25 1
vt 0 1
vt 0 0.75
vt 0.25 0.75
vn -1 0 0
usemtl m_9e61bd5a-40dc-c112-f510-b0692954f682
f 61/109/28 62/110/28 64/111/28 63/112/28
o plane
v -0.38125 0.5 0.0625
v -0.38125 0.5 -0.0625
v -0.38125 0.25 0.0625
v -0.38125 0.25 -0.0625
vt 0.25 1
vt 0 1
vt 0 0.75
vt 0.25 0.75
vn -1 0 0
usemtl m_9e61bd5a-40dc-c112-f510-b0692954f682
f 65/113/29 66/114/29 68/115/29 67/116/29
o plane
v 0.31250000000000006 0.75 -0.38125
v 0.18750000000000006 0.75 -0.38125
v 0.31250000000000006 0.625 -0.38125
v 0.18750000000000006 0.625 -0.38125
vt 0.25 1
vt 0 1
vt 0 0.75
vt 0.25 0.75
vn -2.220446049250313e-16 0 1
usemtl m_9e61bd5a-40dc-c112-f510-b0692954f682
f 69/117/30 70/118/30 72/119/30 71/120/30
o plane
v 0.06250000000000006 0.75 -0.38125
v -0.062499999999999944 0.75 -0.38125
v 0.06250000000000006 0.625 -0.38125
v -0.062499999999999944 0.625 -0.38125
vt 0.25 1
vt 0 1
vt 0 0.75
vt 0.25 0.75
vn -2.220446049250313e-16 0 1
usemtl m_9e61bd5a-40dc-c112-f510-b0692954f682
f 73/121/31 74/122/31 76/123/31 75/124/31
o plane
v -0.18749999999999994 0.75 -0.38125
v -0.31249999999999994 0.75 -0.38125
v -0.18749999999999994 0.625 -0.38125
v -0.31249999999999994 0.625 -0.38125
vt 0.25 1
vt 0 1
vt 0 0.75
vt 0.25 0.75
vn -2.220446049250313e-16 0 1
usemtl m_9e61bd5a-40dc-c112-f510-b0692954f682
f 77/125/32 78/126/32 80/127/32 79/128/32
o plane
v 0.38125 0.75 -0.1875
v 0.38125 0.75 -0.3125
v 0.38125 0.625 -0.1875
v 0.38125 0.625 -0.3125
vt 0.25 1
vt 0 1
vt 0 0.75
vt 0.25 0.75
vn -1 0 0
usemtl m_9e61bd5a-40dc-c112-f510-b0692954f682
f 81/129/33 82/130/33 84/131/33 83/132/33
o plane
v 0.38125 0.5 0.0625
v 0.38125 0.5 -0.0625
v 0.38125 0.375 0.0625
v 0.38125 0.375 -0.0625
vt 0.25 1
vt 0 1
vt 0 0.75
vt 0.25 0.75
vn -1 0 0
usemtl m_9e61bd5a-40dc-c112-f510-b0692954f682
f 85/133/34 86/134/34 88/135/34 87/136/34
o plane
v 0.38125 0.5 0.3125
v 0.38125 0.5 0.1875
v 0.38125 0.375 0.3125
v 0.38125 0.375 0.1875
vt 0.25 1
vt 0 1
vt 0 0.75
vt 0.25 0.75
vn -1 0 0
usemtl m_9e61bd5a-40dc-c112-f510-b0692954f682
f 89/137/35 90/138/35 92/139/35 91/140/35
o plane
v 0.31250000000000006 0.75 0.38125
v 0.18750000000000006 0.75 0.38125
v 0.31250000000000006 0.625 0.38125
v 0.18750000000000006 0.625 0.38125
vt 0.25 1
vt 0 1
vt 0 0.75
vt 0.25 0.75
vn -2.220446049250313e-16 0 1
usemtl m_9e61bd5a-40dc-c112-f510-b0692954f682
f 93/141/36 94/142/36 96/143/36 95/144/36
o plane
v 0.06250000000000006 0.75 0.38125
v -0.062499999999999944 0.75 0.38125
v 0.06250000000000006 0.625 0.38125
v -0.062499999999999944 0.625 0.38125
vt 0.25 1
vt 0 1
vt 0 0.75
vt 0.25 0.75
vn -2.220446049250313e-16 0 1
usemtl m_9e61bd5a-40dc-c112-f510-b0692954f682
f 97/145/37 98/146/37 100/147/37 99/148/37
o plane
v -0.18749999999999994 0.75 0.38125
v -0.31249999999999994 0.75 0.38125
v -0.18749999999999994 0.625 0.38125
v -0.31249999999999994 0.625 0.38125
vt 0.25 1
vt 0 1
vt 0 0.75
vt 0.25 0.75
vn -2.220446049250313e-16 0 1
usemtl m_9e61bd5a-40dc-c112-f510-b0692954f682
f 101/149/38 102/150/38 104/151/38 103/152/38
o plane
v -0.38125 0.75 -0.1875
v -0.38125 0.75 -0.3125
v -0.38125 0.625 -0.1875
v -0.38125 0.625 -0.3125
vt 0.25 1
vt 0 1
vt 0 0.75
vt 0.25 0.75
vn -1 0 0
usemtl m_9e61bd5a-40dc-c112-f510-b0692954f682
f 105/153/39 106/154/39 108/155/39 107/156/39
o plane
v -0.38125 0.75 0.0625
v -0.38125 0.75 -0.0625
v -0.38125 0.625 0.0625
v -0.38125 0.625 -0.0625
vt 0.25 1
vt 0 1
vt 0 0.75
vt 0.25 0.75
vn -1 0 0
usemtl m_9e61bd5a-40dc-c112-f510-b0692954f682
f 109/157/40 110/158/40 112/159/40 111/160/40
o plane
v -0.38125 0.75 0.3125
v -0.38125 0.75 0.1875
v -0.38125 0.625 0.3125
v -0.38125 0.625 0.1875
vt 0.25 1
vt 0 1
vt 0 0.75
vt 0.25 0.75
vn -1 0 0
usemtl m_9e61bd5a-40dc-c112-f510-b0692954f682
f 113/161/41 114/162/41 116/163/41 115/164/41
o heatpump
v 0.3125 0.9375 -0.12499999999999999
v 0.1875 0.9375 -0.125
v 0.3125 0.875 -0.12499999999999999
v 0.1875 0.875 -0.125
v 0.3125 0.9375 1.3877787807814457e-17
v 0.1875 0.9375 -1.3877787807814457e-17
v 0.3125 0.875 1.3877787807814457e-17
v 0.1875 0.875 -1.3877787807814457e-17
vt 0.125 1
vt 0 1
vt 0 0.875
vt 0.125 0.875
vt 0.125 0.875
vt 0.125 1
vt 0 1
vt 0 0.875
vt 0 0.875
vt 0.125 0.875
vt 0.125 1
vt 0 1
vt 0.125 0.875
vt 0.125 1
vt 0 1
vt 0 0.875
vt 0.125 0.875
vt 0.125 1
vt 0 1
vt 0 0.875
vt 0.125 1
vt 0 1
vt 0 0.875
vt 0.125 0.875
vn 2.220446049250313e-16 0 -1
vn -2.220446049250313e-16 0 1
vn 0 1 0
vn 0 -1 0
vn 1 0 2.220446049250313e-16
vn -1 0 -2.220446049250313e-16
usemtl m_2fb5e9ab-f309-c5e2-9cf6-fd2adb60a784
f 118/165/42 117/166/42 119/167/42 120/168/42
f 123/169/43 121/170/43 122/171/43 124/172/43
f 121/173/44 117/174/44 118/175/44 122/176/44
f 120/177/45 119/178/45 123/179/45 124/180/45
f 119/181/46 117/182/46 121/183/46 123/184/46
f 122/185/47 118/186/47 120/187/47 124/188/47
o heatpump
v 0.125 0.9375 -0.12499999999999999
v 1.3877787807814457e-17 0.9375 -0.125
v 0.125 0.875 -0.12499999999999999
v 1.3877787807814457e-17 0.875 -0.125
v 0.12499999999999999 0.9375 1.3877787807814457e-17
v -1.3877787807814457e-17 0.9375 -1.3877787807814457e-17
v 0.12499999999999999 0.875 1.3877787807814457e-17
v -1.3877787807814457e-17 0.875 -1.3877787807814457e-17
vt 0.125 1
vt 0 1
vt 0 0.875
vt 0.125 0.875
vt 0.125 0.875
vt 0.125 1
vt 0 1
vt 0 0.875
vt 0 0.875
vt 0.125 0.875
vt 0.125 1
vt 0 1
vt 0.125 0.875
vt 0.125 1
vt 0 1
vt 0 0.875
vt 0.125 0.875
vt 0.125 1
vt 0 1
vt 0 0.875
vt 0.125 1
vt 0 1
vt 0 0.875
vt 0.125 0.875
vn 2.220446049250313e-16 0 -1
vn -2.220446049250313e-16 0 1
vn 0 1 0
vn 0 -1 0
vn 1 0 2.220446049250313e-16
vn -1 0 -2.220446049250313e-16
usemtl m_2fb5e9ab-f309-c5e2-9cf6-fd2adb60a784
f 126/189/48 125/190/48 127/191/48 128/192/48
f 131/193/49 129/194/49 130/195/49 132/196/49
f 129/197/50 125/198/50 126/199/50 130/200/50
f 128/201/51 127/202/51 131/203/51 132/204/51
f 127/205/52 125/206/52 129/207/52 131/208/52
f 130/209/53 126/210/53 128/211/53 132/212/53
o heatpump
v 0.125 0.9375 -0.3125
v 1.3877787807814457e-17 0.9375 -0.3125
v 0.125 0.875 -0.3125
v 1.3877787807814457e-17 0.875 -0.3125
v 0.12499999999999999 0.9375 -0.1875
v -1.3877787807814457e-17 0.9375 -0.1875
v 0.12499999999999999 0.875 -0.1875
v -1.3877787807814457e-17 0.875 -0.1875
vt 0.125 1
vt 0 1
vt 0 0.875
vt 0.125 0.875
vt 0.125 0.875
vt 0.125 1
vt 0 1
vt 0 0.875
vt 0 0.875
vt 0.125 0.875
vt 0.125 1
vt 0 1
vt 0.125 0.875
vt 0.125 1
vt 0 1
vt 0 0.875
vt 0.125 0.875
vt 0.125 1
vt 0 1
vt 0 0.875
vt 0.125 1
vt 0 1
vt 0 0.875
vt 0.125 0.875
vn 2.220446049250313e-16 0 -1
vn -2.220446049250313e-16 0 1
vn 0 1 0
vn 0 -1 0
vn 1 0 2.220446049250313e-16
vn -1 0 -2.220446049250313e-16
usemtl m_2fb5e9ab-f309-c5e2-9cf6-fd2adb60a784
f 134/213/54 133/214/54 135/215/54 136/216/54
f 139/217/55 137/218/55 138/219/55 140/220/55
f 137/221/56 133/222/56 134/223/56 138/224/56
f 136/225/57 135/226/57 139/227/57 140/228/57
f 135/229/58 133/230/58 137/231/58 139/232/58
f 138/233/59 134/234/59 136/235/59 140/236/59