# Made in Blockbench 4.12.4
mtllib materials.mtl

o grass
v 0.5 0.25 0.5
v 0.5 0.25 -0.5
v 0.5 0 0.5
v 0.5 0 -0.5
v -0.5 0.25 0.5
v -0.5 0.25 -0.5
v -0.5 0 0.5
v -0.5 0 -0.5
vt 0.01171875 0.99609375
vt 0.00390625 0.99609375
vt 0.00390625 0.98828125
vt 0.01171875 0.98828125
vt 0.02734375 0.99609375
vt 0.01953125 0.99609375
vt 0.01953125 0.98828125
vt 0.02734375 0.98828125
vt 0.04296875 0.99609375
vt 0.03515625 0.99609375
vt 0.03515625 0.98828125
vt 0.04296875 0.98828125
vt 0.05859375 0.99609375
vt 0.05078125 0.99609375
vt 0.05078125 0.98828125
vt 0.05859375 0.98828125
vt 0.07421875 0.99609375
vt 0.06640625 0.99609375
vt 0.06640625 0.98828125
vt 0.07421875 0.98828125
vt 0.08984375 0.99609375
vt 0.08203125 0.99609375
vt 0.08203125 0.98828125
vt 0.08984375 0.98828125
vn 1 0 0
vn -1 0 0
vn 0 1 0
vn 0 -1 0
vn 0 0 1
vn 0 0 -1
usemtl m_04f649f9-ee25-9e44-fc3e-c9145fb545c9
f 2/1/1 1/2/1 3/3/1 4/4/1
f 7/5/2 5/6/2 6/7/2 8/8/2
f 5/9/3 1/10/3 2/11/3 6/12/3
f 4/13/4 3/14/4 7/15/4 8/16/4
f 3/17/5 1/18/5 5/19/5 7/20/5
f 6/21/6 2/22/6 4/23/6 8/24/6
o bar
v 0.25 0.425 0.3125
v 0.25 0.40625 0.28125
v 0.25 0.25 0.3125
v 0.25 0.25 0.28125
v 0.21875 0.425 0.3125
v 0.21875 0.40625 0.28125
v 0.21875 0.25 0.3125
v 0.21875 0.25 0.28125
vt 0.5 1
vt 0 1
vt 0 0.96875
vt 0.5 0.96875
vt 0.5 0.90625
vt 0.5 0.9375
vt 0 0.9375
vt 0 0.90625
vt 0 0.375
vt 0.03125 0.375
vt 0.03125 0.875
vt 0 0.875
vt 0.09375 0.375
vt 0.09375 0.875
vt 0.0625 0.875
vt 0.0625 0.375
vt 0.15625 0.84375
vt 0.15625 0.875
vt 0.125 0.875
vt 0.125 0.84375
vt 0.15625 0.8125
vt 0.125 0.8125
vt 0.125 0.78125
vt 0.15625 0.78125
vn 1 0 0
vn -1 0 0
vn 0 0.8574929257125443 -0.5144957554275262
vn 0 -1 0
vn 0 0 1
vn 0 0 -1
usemtl m_a4149be3-1175-f4fe-f81a-04e2eb01b526
f 10/25/7 9/26/7 11/27/7 12/28/7
f 15/29/8 13/30/8 14/31/8 16/32/8
f 13/33/9 9/34/9 10/35/9 14/36/9
f 12/37/10 11/38/10 15/39/10 16/40/10
f 11/41/11 9/42/11 13/43/11 15/44/11
f 14/45/12 10/46/12 12/47/12 16/48/12
o plane
v 0.4375 0.50625 0.4375
v 0.4375 0.44375 0.3125
v 0.25 0.50625 0.4375
v 0.25 0.44375 0.3125
vt 1 0
vt 1 1
vt 0 1
vt 0 0
vn 0 0.8944271909999161 -0.44721359549995804
usemtl m_d36e3726-8112-59de-6133-6ad2707178ad
f 17/49/13 18/50/13 20/51/13 19/52/13
o plane
v 0.21875 0.50625 0.4375
v 0.21875 0.44375 0.3125
v 0.03125 0.50625 0.4375
v 0.03125 0.44375 0.3125
vt 1 0
vt 1 1
vt 0 1
vt 0 0
vn 0 0.8944271909999161 -0.44721359549995804
usemtl m_d36e3726-8112-59de-6133-6ad2707178ad
f 21/53/14 22/54/14 24/55/14 23/56/14
o plane
v 0.21875 0.428125 0.28125
v 0.21875 0.365625 0.15625
v 0.03125 0.428125 0.28125
v 0.03125 0.365625 0.15625
vt 1 0
vt 1 1
vt 0 1
vt 0 0
vn 0 0.8944271909999161 -0.44721359549995804
usemtl m_d36e3726-8112-59de-6133-6ad2707178ad
f 25/57/15 26/58/15 28/59/15 27/60/15
o plane
v 0.4375 0.428125 0.28125
v 0.4375 0.365625 0.15625
v 0.25 0.428125 0.28125
v 0.25 0.365625 0.15625
vt 1 0
vt 1 1
vt 0 1
vt 0 0
vn 0 0.8944271909999161 -0.44721359549995804
usemtl m_d36e3726-8112-59de-6133-6ad2707178ad
f 29/61/16 30/62/16 32/63/16 31/64/16
o plane
v 0.296875 0.453125 0.359375
v 0.296875 0.390625 0.234375
v 0.171875 0.453125 0.359375
v 0.171875 0.390625 0.234375
vt 0.15625 0.96875
vt 0.15625 1
vt 0 1
vt 0.03125 0.96875
vn 0 0.8944271909999161 -0.44721359549995804
usemtl m_a4149be3-1175-f4fe-f81a-04e2eb01b526
f 33/65/17 34/66/17 36/67/17 35/68/17
o plane
v -0.0625 0.50625 0.4375
v -0.0625 0.44375 0.3125
v -0.25 0.50625 0.4375
v -0.25 0.44375 0.3125
vt 1 0
vt 1 1
vt 0 1
vt 0 0
vn 0 0.8944271909999161 -0.44721359549995804
usemtl m_d36e3726-8112-59de-6133-6ad2707178ad
f 37/69/18 38/70/18 40/71/18 39/72/18
o plane
v -0.28125 0.50625 0.4375
v -0.28125 0.44375 0.3125
v -0.46875 0.50625 0.4375
v -0.46875 0.44375 0.3125
vt 1 0
vt 1 1
vt 0 1
vt 0 0
vn 0 0.8944271909999161 -0.44721359549995804
usemtl m_d36e3726-8112-59de-6133-6ad2707178ad
f 41/73/19 42/74/19 44/75/19 43/76/19
o plane
v -0.203125 0.453125 0.359375
v -0.203125 0.390625 0.234375
v -0.328125 0.453125 0.359375
v -0.328125 0.390625 0.234375
vt 0.15625 0.96875
vt 0.15625 1
vt 0 1
vt 0.03125 0.96875
vn 0 0.8944271909999161 -0.44721359549995804
usemtl m_a4149be3-1175-f4fe-f81a-04e2eb01b526
f 45/77/20 46/78/20 48/79/20 47/80/20
o plane
v -0.28125 0.428125 0.28125
v -0.28125 0.365625 0.15625
v -0.46875 0.428125 0.28125
v -0.46875 0.365625 0.15625
vt 1 0
vt 1 1
vt 0 1
vt 0 0
vn 0 0.8944271909999161 -0.44721359549995804
usemtl m_d36e3726-8112-59de-6133-6ad2707178ad
f 49/81/21 50/82/21 52/83/21 51/84/21
o plane
v -0.0625 0.428125 0.28125
v -0.0625 0.365625 0.15625
v -0.25 0.428125 0.28125
v -0.25 0.365625 0.15625
vt 1 0
vt 1 1
vt 0 1
vt 0 0
vn 0 0.8944271909999161 -0.44721359549995804
usemtl m_d36e3726-8112-59de-6133-6ad2707178ad
f 53/85/22 54/86/22 56/87/22 55/88/22
o bar
v -0.25 0.425 0.3125
v -0.25 0.40625 0.28125
v -0.25 0.25 0.3125
v -0.25 0.25 0.28125
v -0.28125 0.425 0.3125
v -0.28125 0.40625 0.28125
v -0.28125 0.25 0.3125
v -0.28125 0.25 0.28125
vt 0.5 1
vt 0 1
vt 0 0.96875
vt 0.5 0.96875
vt 0.5 0.90625
vt 0.5 0.9375
vt 0 0.9375
vt 0 0.90625
vt 0 0.375
vt 0.03125 0.375
vt 0.03125 0.875
vt 0 0.875
vt 0.09375 0.375
vt 0.09375 0.875
vt 0.0625 0.875
vt 0.0625 0.375
vt 0.15625 0.84375
vt 0.15625 0.875
vt 0.125 0.875
vt 0.125 0.84375
vt 0.15625 0.8125
vt 0.125 0.8125
vt 0.125 0.78125
vt 0.15625 0.78125
vn 1 0 0
vn -1 0 0
vn 0 0.8574929257125443 -0.5144957554275262
vn 0 -1 0
vn 0 0 1
vn 0 0 -1
usemtl m_a4149be3-1175-f4fe-f81a-04e2eb01b526
f 58/89/23 57/90/23 59/91/23 60/92/23
f 63/93/24 61/94/24 62/95/24 64/96/24
f 61/97/25 57/98/25 58/99/25 62/100/25
f 60/101/26 59/102/26 63/103/26 64/104/26
f 59/105/27 57/106/27 61/107/27 63/108/27
f 62/109/28 58/110/28 60/111/28 64/112/28
o plane
v -0.0625 0.50625 0.125
v -0.0625 0.44375 0
v -0.25 0.50625 0.125
v -0.25 0.44375 0
vt 1 0
vt 1 1
vt 0 1
vt 0 0
vn 0 0.8944271909999161 -0.44721359549995804
usemtl m_d36e3726-8112-59de-6133-6ad2707178ad
f 65/113/29 66/114/29 68/115/29 67/116/29
o plane
v -0.28125 0.50625 0.125
v -0.28125 0.44375 0
v -0.46875 0.50625 0.125
v -0.46875 0.44375 0
vt 1 0
vt 1 1
vt 0 1
vt 0 0
vn 0 0.8944271909999161 -0.44721359549995804
usemtl m_d36e3726-8112-59de-6133-6ad2707178ad
f 69/117/30 70/118/30 72/119/30 71/120/30
o plane
v -0.203125 0.453125 0.046875
v -0.203125 0.390625 -0.078125
v -0.328125 0.453125 0.046875
v -0.328125 0.390625 -0.078125
vt 0.15625 0.96875
vt 0.15625 1
vt 0 1
vt 0.03125 0.96875
vn 0 0.8944271909999161 -0.44721359549995804
usemtl m_a4149be3-1175-f4fe-f81a-04e2eb01b526
f 73/121/31 74/122/31 76/123/31 75/124/31
o plane
v -0.28125 0.428125 -0.03125
v -0.28125 0.365625 -0.15625
v -0.46875 0.428125 -0.03125
v -0.46875 0.365625 -0.15625
vt 1 0
vt 1 1
vt 0 1
vt 0 0
vn 0 0.8944271909999161 -0.44721359549995804
usemtl m_d36e3726-8112-59de-6133-6ad2707178ad
f 77/125/32 78/126/32 80/127/32 79/128/32
o plane
v -0.0625 0.428125 -0.03125
v -0.0625 0.365625 -0.15625
v -0.25 0.428125 -0.03125
v -0.25 0.365625 -0.15625
vt 1 0
vt 1 1
vt 0 1
vt 0 0
vn 0 0.8944271909999161 -0.44721359549995804
usemtl m_d36e3726-8112-59de-6133-6ad2707178ad
f 81/129/33 82/130/33 84/131/33 83/132/33
o bar
v -0.25 0.425 0
v -0.25 0.40625 -0.03125
v -0.25 0.25 0
v -0.25 0.25 -0.03125
v -0.28125 0.425 0
v -0.28125 0.40625 -0.03125
v -0.28125 0.25 0
v -0.28125 0.25 -0.03125
vt 0.5 1
vt 0 1
vt 0 0.96875
vt 0.5 0.96875
vt 0.5 0.90625
vt 0.5 0.9375
vt 0 0.9375
vt 0 0.90625
vt 0 0.375
vt 0.03125 0.375
vt 0.03125 0.875
vt 0 0.875
vt 0.09375 0.375
vt 0.09375 0.875
vt 0.0625 0.875
vt 0.0625 0.375
vt 0.15625 0.84375
vt 0.15625 0.875
vt 0.125 0.875
vt 0.125 0.84375
vt 0.15625 0.8125
vt 0.125 0.8125
vt 0.125 0.78125
vt 0.15625 0.78125
vn 1 0 0
vn -1 0 0
vn 0 0.8574929257125443 -0.5144957554275262
vn 0 -1 0
vn 0 0 1
vn 0 0 -1
usemtl m_a4149be3-1175-f4fe-f81a-04e2eb01b526
f 86/133/34 85/134/34 87/135/34 88/136/34
f 91/137/35 89/138/35 90/139/35 92/140/35
f 89/141/36 85/142/36 86/143/36 90/144/36
f 88/145/37 87/146/37 91/147/37 92/148/37
f 87/149/38 85/150/38 89/151/38 91/152/38
f 90/153/39 86/154/39 88/155/39 92/156/39
o plane
v 0.4375 0.50625 0.125
v 0.4375 0.44375 0
v 0.25 0.50625 0.125
v 0.25 0.44375 0
vt 1 0
vt 1 1
vt 0 1
vt 0 0
vn 0 0.8944271909999161 -0.44721359549995804
usemtl m_d36e3726-8112-59de-6133-6ad2707178ad
f 93/157/40 94/158/40 96/159/40 95/160/40
o plane
v 0.21875 0.50625 0.125
v 0.21875 0.44375 0
v 0.03125 0.50625 0.125
v 0.03125 0.44375 0
vt 1 0
vt 1 1
vt 0 1
vt 0 0
vn 0 0.8944271909999161 -0.44721359549995804
usemtl m_d36e3726-8112-59de-6133-6ad2707178ad
f 97/161/41 98/162/41 100/163/41 99/164/41
o plane
v 0.296875 0.453125 0.046875
v 0.296875 0.390625 -0.078125
v 0.171875 0.453125 0.046875
v 0.171875 0.390625 -0.078125
vt 0.15625 0.96875
vt 0.15625 1
vt 0 1
vt 0.03125 0.96875
vn 0 0.8944271909999161 -0.44721359549995804
usemtl m_a4149be3-1175-f4fe-f81a-04e2eb01b526
f 101/165/42 102/166/42 104/167/42 103/168/42
o plane
v 0.21875 0.428125 -0.03125
v 0.21875 0.365625 -0.15625
v 0.03125 0.428125 -0.03125
v 0.03125 0.365625 -0.15625
vt 1 0
vt 1 1
vt 0 1
vt 0 0
vn 0 0.8944271909999161 -0.44721359549995804
usemtl m_d36e3726-8112-59de-6133-6ad2707178ad
f 105/169/43 106/170/43 108/171/43 107/172/43
o plane
v 0.4375 0.428125 -0.03125
v 0.4375 0.365625 -0.15625
v 0.25 0.428125 -0.03125
v 0.25 0.365625 -0.15625
vt 1 0
vt 1 1
vt 0 1
vt 0 0
vn 0 0.8944271909999161 -0.44721359549995804
usemtl m_d36e3726-8112-59de-6133-6ad2707178ad
f 109/173/44 110/174/44 112/175/44 111/176/44
o bar
v 0.25 0.425 0
v 0.25 0.40625 -0.03125
v 0.25 0.25 0
v 0.25 0.25 -0.03125
v 0.21875 0.425 0
v 0.21875 0.40625 -0.03125
v 0.21875 0.25 0
v 0.21875 0.25 -0.03125
vt 0.5 1
vt 0 1
vt 0 0.96875
vt 0.5 0.96875
vt 0.5 0.90625
vt 0.5 0.9375
vt 0 0.9375
vt 0 0.90625
vt 0 0.375
vt 0.03125 0.375
vt 0.03125 0.875
vt 0 0.875
vt 0.09375 0.375
vt 0.09375 0.875
vt 0.0625 0.875
vt 0.0625 0.375
vt 0.15625 0.84375
vt 0.15625 0.875
vt 0.125 0.875
vt 0.125 0.84375
vt 0.15625 0.8125
vt 0.125 0.8125
vt 0.125 0.78125
vt 0.15625 0.78125
vn 1 0 0
vn -1 0 0
vn 0 0.8574929257125443 -0.5144957554275262
vn 0 -1 0
vn 0 0 1
vn 0 0 -1
usemtl m_a4149be3-1175-f4fe-f81a-04e2eb01b526
f 114/177/45 113/178/45 115/179/45 116/180/45
f 119/181/46 117/182/46 118/183/46 120/184/46
f 117/185/47 113/186/47 114/187/47 118/188/47
f 116/189/48 115/190/48 119/191/48 120/192/48
f 115/193/49 113/194/49 117/195/49 119/196/49
f 118/197/50 114/198/50 116/199/50 120/200/50
o plane
v 0.4375 0.50625 -0.1875
v 0.4375 0.44375 -0.3125
v 0.25 0.50625 -0.1875
v 0.25 0.44375 -0.3125
vt 1 0
vt 1 1
vt 0 1
vt 0 0
vn 0 0.8944271909999161 -0.44721359549995804
usemtl m_d36e3726-8112-59de-6133-6ad2707178ad
f 121/201/51 122/202/51 124/203/51 123/204/51
o plane
v 0.21875 0.50625 -0.1875
v 0.21875 0.44375 -0.3125
v 0.03125 0.50625 -0.1875
v 0.03125 0.44375 -0.3125
vt 1 0
vt 1 1
vt 0 1
vt 0 0
vn 0 0.8944271909999161 -0.44721359549995804
usemtl m_d36e3726-8112-59de-6133-6ad2707178ad
f 125/205/52 126/206/52 128/207/52 127/208/52
o plane
v 0.296875 0.453125 -0.265625
v 0.296875 0.390625 -0.390625
v 0.171875 0.453125 -0.265625
v 0.171875 0.390625 -0.390625
vt 0.15625 0.96875
vt 0.15625 1
vt 0 1
vt 0.03125 0.96875
vn 0 0.8944271909999161 -0.44721359549995804
usemtl m_a4149be3-1175-f4fe-f81a-04e2eb01b526
f 129/209/53 130/210/53 132/211/53 131/212/53
o plane
v 0.21875 0.428125 -0.34375
v 0.21875 0.365625 -0.46875
v 0.03125 0.428125 -0.34375
v 0.03125 0.365625 -0.46875
vt 1 0
vt 1 1
vt 0 1
vt 0 0
vn 0 0.8944271909999161 -0.44721359549995804
usemtl m_d36e3726-8112-59de-6133-6ad2707178ad
f 133/213/54 134/214/54 136/215/54 135/216/54
o plane
v 0.4375 0.428125 -0.34375
v 0.4375 0.365625 -0.46875
v 0.25 0.428125 -0.34375
v 0.25 0.365625 -0.46875
vt 1 0
vt 1 1
vt 0 1
vt 0 0
vn 0 0.8944271909999161 -0.44721359549995804
usemtl m_d36e3726-8112-59de-6133-6ad2707178ad
f 137/217/55 138/218/55 140/219/55 139/220/55
o bar
v 0.25 0.425 -0.3125
v 0.25 0.40625 -0.34375
v 0.25 0.25 -0.3125
v 0.25 0.25 -0.34375
v 0.21875 0.425 -0.3125
v 0.21875 0.40625 -0.34375
v 0.21875 0.25 -0.3125
v 0.21875 0.25 -0.34375
vt 0.5 1
vt 0 1
vt 0 0.96875
vt 0.5 0.96875
vt 0.5 0.90625
vt 0.5 0.9375
vt 0 0.9375
vt 0 0.90625
vt 0 0.375
vt 0.03125 0.375
vt 0.03125 0.875
vt 0 0.875
vt 0.09375 0.375
vt 0.09375 0.875
vt 0.0625 0.875
vt 0.0625 0.375
vt 0.15625 0.84375
vt 0.15625 0.875
vt 0.125 0.875
vt 0.125 0.84375
vt 0.15625 0.8125
vt 0.125 0.8125
vt 0.125 0.78125
vt 0.15625 0.78125
vn 1 0 0
vn -1 0 0
vn 0 0.8574929257125443 -0.5144957554275262
vn 0 -1 0
vn 0 0 1
vn 0 0 -1
usemtl m_a4149be3-1175-f4fe-f81a-04e2eb01b526
f 142/221/56 141/222/56 143/223/56 144/224/56
f 147/225/57 145/226/57 146/227/57 148/228/57
f 145/229/58 141/230/58 142/231/58 146/232/58
f 144/233/59 143/234/59 147/235/59 148/236/59
f 143/237/60 141/238/60 145/239/60 147/240/60
f 146/241/61 142/242/61 144/243/61 148/244/61
o plane
v -0.0625 0.50625 -0.1875
v -0.0625 0.44375 -0.3125
v -0.25 0.50625 -0.1875
v -0.25 0.44375 -0.3125
vt 1 0
vt 1 1
vt 0 1
vt 0 0
vn 0 0.8944271909999161 -0.44721359549995804
usemtl m_d36e3726-8112-59de-6133-6ad2707178ad
f 149/245/62 150/246/62 152/247/62 151/248/62
o plane
v -0.28125 0.50625 -0.1875
v -0.28125 0.44375 -0.3125
v -0.46875 0.50625 -0.1875
v -0.46875 0.44375 -0.3125
vt 1 0
vt 1 1
vt 0 1
vt 0 0
vn 0 0.8944271909999161 -0.44721359549995804
usemtl m_d36e3726-8112-59de-6133-6ad2707178ad
f 153/249/63 154/250/63 156/251/63 155/252/63
o plane
v -0.203125 0.453125 -0.265625
v -0.203125 0.390625 -0.390625
v -0.328125 0.453125 -0.265625
v -0.328125 0.390625 -0.390625
vt 0.15625 0.96875
vt 0.15625 1
vt 0 1
vt 0.03125 0.96875
vn 0 0.8944271909999161 -0.44721359549995804
usemtl m_a4149be3-1175-f4fe-f81a-04e2eb01b526
f 157/253/64 158/254/64 160/255/64 159/256/64
o plane
v -0.28125 0.428125 -0.34375
v -0.28125 0.365625 -0.46875
v -0.46875 0.428125 -0.34375
v -0.46875 0.365625 -0.46875
vt 1 0
vt 1 1
vt 0 1
vt 0 0
vn 0 0.8944271909999161 -0.44721359549995804
usemtl m_d36e3726-8112-59de-6133-6ad2707178ad
f 161/257/65 162/258/65 164/259/65 163/260/65
o plane
v -0.0625 0.428125 -0.34375
v -0.0625 0.365625 -0.46875
v -0.25 0.428125 -0.34375
v -0.25 0.365625 -0.46875
vt 1 0
vt 1 1
vt 0 1
vt 0 0
vn 0 0.8944271909999161 -0.44721359549995804
usemtl m_d36e3726-8112-59de-6133-6ad2707178ad
f 165/261/66 166/262/66 168/263/66 167/264/66
o bar
v -0.25 0.425 -0.3125
v -0.25 0.40625 -0.34375
v -0.25 0.25 -0.3125
v -0.25 0.25 -0.34375
v -0.28125 0.425 -0.3125
v -0.28125 0.40625 -0.34375
v -0.28125 0.25 -0.3125
v -0.28125 0.25 -0.34375
vt 0.5 1
vt 0 1
vt 0 0.96875
vt 0.5 0.96875
vt 0.5 0.90625
vt 0.5 0.9375
vt 0 0.9375
vt 0 0.90625
vt 0 0.375
vt 0.03125 0.375
vt 0.03125 0.875
vt 0 0.875
vt 0.09375 0.375
vt 0.09375 0.875
vt 0.0625 0.875
vt 0.0625 0.375
vt 0.15625 0.84375
vt 0.15625 0.875
vt 0.125 0.875
vt 0.125 0.84375
vt 0.15625 0.8125
vt 0.125 0.8125
vt 0.125 0.78125
vt 0.15625 0.78125
vn 1 0 0
vn -1 0 0
vn 0 0.8574929257125443 -0.5144957554275262
vn 0 -1 0
vn 0 0 1
vn 0 0 -1
usemtl m_a4149be3-1175-f4fe-f81a-04e2eb01b526
f 170/265/67 169/266/67 171/267/67 172/268/67
f 175/269/68 173/270/68 174/271/68 176/272/68
f 173/273/69 169/274/69 170/275/69 174/276/69
f 172/277/70 171/278/70 175/279/70 176/280/70
f 171/281/71 169/282/71 173/283/71 175/284/71
f 174/285/72 170/286/72 172/287/72 176/288/72