# Made in Blockbench 4.12.5
mtllib materials.mtl

o grass
v 0.125 0.0625 0.125
v 0.125 0.0625 -0.125
v 0.125 0 0.125
v 0.125 0 -0.125
v -0.125 0.0625 0.125
v -0.125 0.0625 -0.125
v -0.125 0 0.125
v -0.125 0 -0.125
vt 0.515625 0.875
vt 0.265625 0.875
vt 0.265625 0.8125
vt 0.515625 0.8125
vt 0.515625 0.734375
vt 0.515625 0.796875
vt 0.265625 0.796875
vt 0.265625 0.734375
vt 0.03125 0.515625
vt 0.234375 0.515625
vt 0.234375 0.703125
vt 0.03125 0.703125
vt 0.25 0.484375
vt 0.25 0.734375
vt 0 0.734375
vt 0 0.484375
vt 0.515625 0.65625
vt 0.515625 0.71875
vt 0.265625 0.71875
vt 0.265625 0.65625
vt 0.515625 0.640625
vt 0.265625 0.640625
vt 0.265625 0.578125
vt 0.515625 0.578125
vn 1 0 0
vn -1 0 0
vn 0 1 0
vn 0 -1 0
vn 0 0 1
vn 0 0 -1
usemtl m_e5398b8b-eefb-7885-b795-29731140f0ea
f 2/1/1 1/2/1 3/3/1 4/4/1
f 7/5/2 5/6/2 6/7/2 8/8/2
f 5/9/3 1/10/3 2/11/3 6/12/3
f 4/13/4 3/14/4 7/15/4 8/16/4
f 3/17/5 1/18/5 5/19/5 7/20/5
f 6/21/6 2/22/6 4/23/6 8/24/6
o cuboid
v 0.0625 0.15625 0.0625
v 0.0625 0.15625 -0.0625
v 0.0625 0.0625 0.0625
v 0.0625 0.0625 -0.0625
v -0.0625 0.15625 0.0625
v -0.0625 0.15625 -0.0625
v -0.0625 0.0625 0.0625
v -0.0625 0.0625 -0.0625
vt 0.390625 0.4375
vt 0.390625 0.5625
vt 0.265625 0.5625
vt 0.265625 0.4375
vt 0.59375 0.90625
vt 0.59375 1
vt 0.46875 1
vt 0.46875 0.90625
vt 0.125 0.46875
vt 0 0.46875
vt 0 0.375
vt 0.125 0.375
vt 0.65625 0.890625
vt 0.53125 0.890625
vt 0.53125 0.796875
vt 0.65625 0.796875
vt 0.65625 0.6875
vt 0.65625 0.78125
vt 0.53125 0.78125
vt 0.53125 0.6875
vt 0.40625 0.4375
vt 0.53125 0.4375
vt 0.53125 0.5625
vt 0.40625 0.5625
vn 0 -1 0
vn 0 0 1
vn 0 0 -1
vn 1 0 0
vn -1 0 0
vn 0 1 0
usemtl m_e5398b8b-eefb-7885-b795-29731140f0ea
f 12/25/7 11/26/7 15/27/7 16/28/7
f 11/29/8 9/30/8 13/31/8 15/32/8
f 14/33/9 10/34/9 12/35/9 16/36/9
f 10/37/10 9/38/10 11/39/10 12/40/10
f 15/41/11 13/42/11 14/43/11 16/44/11
f 13/45/12 9/46/12 10/47/12 14/48/12
o plane
v 0.09375 0.19921875 0
v 0.09375 0.13671875 -0.09375
v -0.09375 0.19921875 0
v -0.09375 0.13671875 -0.09375
vt 0.421875 0.90625
vt 0.421875 0.984375
vt 0.296875 0.984375
vt 0.296875 0.90625
vn 0 0.8320502943378438 -0.5547001962252291
usemtl m_e5398b8b-eefb-7885-b795-29731140f0ea
f 17/49/13 18/50/13 20/51/13 19/52/13
o plane
v 0.09375 0.13671875 0.09375
v 0.09375 0.19921875 0
v -0.09375 0.13671875 0.09375
v -0.09375 0.19921875 0
vt 0.421875 0.90625
vt 0.421875 0.984375
vt 0.296875 0.984375
vt 0.296875 0.90625
vn 0 0.8320502943378438 0.5547001962252291
usemtl m_e5398b8b-eefb-7885-b795-29731140f0ea
f 21/53/14 22/54/14 24/55/14 23/56/14
o plane
v -0.0640625 0.125 0.046875
v -0.0640625 0.125 0.015625
v -0.0640625 0.09375 0.046875
v -0.0640625 0.09375 0.015625
vt 0.21875 0.46875
vt 0.1875 0.46875
vt 0.1875 0.4375
vt 0.21875 0.4375
vn -1 0 0
usemtl m_e5398b8b-eefb-7885-b795-29731140f0ea
f 25/57/15 26/58/15 28/59/15 27/60/15
o plane
v -0.0640625 0.125 -0.015625
v -0.0640625 0.125 -0.046875
v -0.0640625 0.0625 -0.015625
v -0.0640625 0.0625 -0.046875
vt 0.171875 0.46875
vt 0.140625 0.46875
vt 0.140625 0.40625
vt 0.171875 0.40625
vn -1 0 0
usemtl m_e5398b8b-eefb-7885-b795-29731140f0ea
f 29/61/16 30/62/16 32/63/16 31/64/16
o plane
v 0.046875000000000014 0.125 0.0640625
v 0.015625000000000014 0.125 0.0640625
v 0.046875000000000014 0.09375 0.0640625
v 0.015625000000000014 0.09375 0.0640625
vt 0.21875 0.46875
vt 0.1875 0.46875
vt 0.1875 0.4375
vt 0.21875 0.4375
vn -2.220446049250313e-16 0 1
usemtl m_e5398b8b-eefb-7885-b795-29731140f0ea
f 33/65/17 34/66/17 36/67/17 35/68/17
o plane
v -0.015624999999999986 0.125 0.0640625
v -0.046874999999999986 0.125 0.0640625
v -0.015624999999999986 0.09375 0.0640625
v -0.046874999999999986 0.09375 0.0640625
vt 0.21875 0.46875
vt 0.1875 0.46875
vt 0.1875 0.4375
vt 0.21875 0.4375
vn -2.220446049250313e-16 0 1
usemtl m_e5398b8b-eefb-7885-b795-29731140f0ea
f 37/69/18 38/70/18 40/71/18 39/72/18
o plane
v 0.046875000000000014 0.125 -0.0640625
v 0.015625000000000014 0.125 -0.0640625
v 0.046875000000000014 0.09375 -0.0640625
v 0.015625000000000014 0.09375 -0.0640625
vt 0.21875 0.46875
vt 0.1875 0.46875
vt 0.1875 0.4375
vt 0.21875 0.4375
vn -2.220446049250313e-16 0 1
usemtl m_e5398b8b-eefb-7885-b795-29731140f0ea
f 41/73/19 42/74/19 44/75/19 43/76/19
o plane
v 0.0640625 0.125 0.046875
v 0.0640625 0.125 -0.046875
v 0.0640625 0.09375 0.046875
v 0.0640625 0.09375 -0.046875
vt 0.21875 0.46875
vt 0.1875 0.46875
vt 0.1875 0.4375
vt 0.21875 0.4375
vn -1 0 0
usemtl m_e5398b8b-eefb-7885-b795-29731140f0ea
f 45/77/20 46/78/20 48/79/20 47/80/20
o plane
v -0.0625 0.19921875 0
v -0.0625 0.15625 0.0625
v -0.0625 0.15625 -0.0625
vt 0.59375 0.671875
vt 0.53125 0.62890625
vt 0.65625 0.62890625
vn -1 0 0
usemtl m_e5398b8b-eefb-7885-b795-29731140f0ea
f 49/81/21 51/82/21 50/83/21
o plane
v 0.0625 0.19921875 0
v 0.0625 0.15625 0.0625
v 0.0625 0.15625 -0.0625
vt 0.59375 0.671875
vt 0.53125 0.62890625
vt 0.65625 0.62890625
vn -1 0 0
usemtl m_e5398b8b-eefb-7885-b795-29731140f0ea
f 52/84/22 54/85/22 53/86/22
o heatpump
v -0.015625 0.09375 -0.078125
v -0.015625 0.09375 -0.09375
v -0.015625 0.0625 -0.078125
v -0.015625 0.0625 -0.09375
v -0.046875 0.09375 -0.078125
v -0.046875 0.09375 -0.09375
v -0.046875 0.0625 -0.078125
v -0.046875 0.0625 -0.09375
vt 0.25 0.46875
vt 0.234375 0.46875
vt 0.234375 0.4375
vt 0.25 0.4375
vt 0.25 0.4375
vt 0.25 0.46875
vt 0.234375 0.46875
vt 0.234375 0.4375
vt 0.234375 0.4375
vt 0.25 0.4375
vt 0.25 0.46875
vt 0.234375 0.46875
vt 0.25 0.4375
vt 0.25 0.46875
vt 0.234375 0.46875
vt 0.234375 0.4375
vt 0.25 0.4375
vt 0.25 0.46875
vt 0.234375 0.46875
vt 0.234375 0.4375
vt 0.25 0.46875
vt 0.234375 0.46875
vt 0.234375 0.4375
vt 0.25 0.4375
vn 1 0 0
vn -1 0 0
vn 0 1 0
vn 0 -1 0
vn 0 0 1
vn 0 0 -1
usemtl m_e5398b8b-eefb-7885-b795-29731140f0ea
f 56/87/23 55/88/23 57/89/23 58/90/23
f 61/91/24 59/92/24 60/93/24 62/94/24
f 59/95/25 55/96/25 56/97/25 60/98/25
f 58/99/26 57/100/26 61/101/26 62/102/26
f 57/103/27 55/104/27 59/105/27 61/106/27
f 60/107/28 56/108/28 58/109/28 62/110/28