<svg width="480" height="480" xmlns="http://www.w3.org/2000/svg"><!--Crée par @nachtfalter par Natrix-Test 2.1.0-pre3--><path d="M0,0L480,0L480,480L0,480z" stroke="none" stroke-width="10" fill="#0a610a"   ></path><path d="M390,60L405,30L435,30L450,60L450,420L435,450L405,450L390,420z" stroke="none" stroke-width="10" fill="#392104"   ></path><path d="M420,360L435,375L420,390L405,375z" stroke="none" stroke-width="10" fill="#427a1a"   ></path><path d="M420,405L435,420L420,435L405,420z" stroke="none" stroke-width="10" fill="#427a1a"   ></path><path d="M420,45L435,60L420,75L405,60z" stroke="none" stroke-width="10" fill="#427a1a"   ></path><path d="M420,90L435,105L420,120L405,105z" stroke="none" stroke-width="10" fill="#427a1a"   ></path><path d="M420,135L435,150L420,165L405,150z" stroke="none" stroke-width="10" fill="#427a1a"   ></path><path d="M420,180L435,195L420,210L405,195z" stroke="none" stroke-width="10" fill="#427a1a"   ></path><path d="M420,225L435,240L420,255L405,240z" stroke="none" stroke-width="10" fill="#427a1a"   ></path><path d="M420,270L435,285L420,300L405,285z" stroke="none" stroke-width="10" fill="#427a1a"   ></path><path d="M420,315L435,330L420,345L405,330z" stroke="none" stroke-width="10" fill="#427a1a"   ></path><path d="M30,60L45,30L75,30L90,60L90,420L75,450L45,450L30,420z" stroke="none" stroke-width="10" fill="#392104"   ></path><path d="M60,360L75,375L60,390L45,375z" stroke="none" stroke-width="10" fill="#427a1a"   ></path><path d="M60,405L75,420L60,435L45,420z" stroke="none" stroke-width="10" fill="#427a1a"   ></path><path d="M60,45L75,60L60,75L45,60z" stroke="none" stroke-width="10" fill="#427a1a"   ></path><path d="M60,90L75,105L60,120L45,105z" stroke="none" stroke-width="10" fill="#427a1a"   ></path><path d="M60,135L75,150L60,165L45,150z" stroke="none" stroke-width="10" fill="#427a1a"   ></path><path d="M60,180L75,195L60,210L45,195z" stroke="none" stroke-width="10" fill="#427a1a"   ></path><path d="M60,225L75,240L60,255L45,240z" stroke="none" stroke-width="10" fill="#427a1a"   ></path><path d="M60,270L75,285L60,300L45,285z" stroke="none" stroke-width="10" fill="#427a1a"   ></path><path d="M60,315L75,330L60,345L45,330z" stroke="none" stroke-width="10" fill="#427a1a"   ></path><path d="M120,60L135,30L165,30L180,60L180,420L165,450L135,450L120,420z" stroke="none" stroke-width="10" fill="#392104"   ></path><path d="M150,360L165,375L150,390L135,375z" stroke="none" stroke-width="10" fill="#427a1a"   ></path><path d="M150,405L165,420L150,435L135,420z" stroke="none" stroke-width="10" fill="#427a1a"   ></path><path d="M150,45L165,60L150,75L135,60z" stroke="none" stroke-width="10" fill="#427a1a"   ></path><path d="M150,90L165,105L150,120L135,105z" stroke="none" stroke-width="10" fill="#427a1a"   ></path><path d="M150,135L165,150L150,165L135,150z" stroke="none" stroke-width="10" fill="#427a1a"   ></path><path d="M150,180L165,195L150,210L135,195z" stroke="none" stroke-width="10" fill="#427a1a"   ></path><path d="M150,225L165,240L150,255L135,240z" stroke="none" stroke-width="10" fill="#427a1a"   ></path><path d="M150,270L165,285L150,300L135,285z" stroke="none" stroke-width="10" fill="#427a1a"   ></path><path d="M150,315L165,330L150,345L135,330z" stroke="none" stroke-width="10" fill="#427a1a"   ></path><path d="M300,60L315,30L345,30L360,60L360,420L345,450L315,450L300,420z" stroke="none" stroke-width="10" fill="#392104"   ></path><path d="M330,360L345,375L330,390L315,375z" stroke="none" stroke-width="10" fill="#427a1a"   ></path><path d="M330,405L345,420L330,435L315,420z" stroke="none" stroke-width="10" fill="#427a1a"   ></path><path d="M330,45L345,60L330,75L315,60z" stroke="none" stroke-width="10" fill="#427a1a"   ></path><path d="M330,90L345,105L330,120L315,105z" stroke="none" stroke-width="10" fill="#427a1a"   ></path><path d="M330,135L345,150L330,165L315,150z" stroke="none" stroke-width="10" fill="#427a1a"   ></path><path d="M330,180L345,195L330,210L315,195z" stroke="none" stroke-width="10" fill="#427a1a"   ></path><path d="M330,225L345,240L330,255L315,240z" stroke="none" stroke-width="10" fill="#427a1a"   ></path><path d="M330,270L345,285L330,300L315,285z" stroke="none" stroke-width="10" fill="#427a1a"   ></path><path d="M330,315L345,330L330,345L315,330z" stroke="none" stroke-width="10" fill="#427a1a"   ></path><path d="M210,60L225,30L255,30L270,60L270,420L255,450L225,450L210,420z" stroke="none" stroke-width="10" fill="#392104"   ></path><path d="M240,360L255,375L240,390L225,375z" stroke="none" stroke-width="10" fill="#427a1a"   ></path><path d="M240,405L255,420L240,435L225,420z" stroke="none" stroke-width="10" fill="#427a1a"   ></path><path d="M240,45L255,60L240,75L225,60z" stroke="none" stroke-width="10" fill="#427a1a"   ></path><path d="M240,90L255,105L240,120L225,105z" stroke="none" stroke-width="10" fill="#427a1a"   ></path><path d="M240,135L255,150L240,165L225,150z" stroke="none" stroke-width="10" fill="#427a1a"   ></path><path d="M240,180L255,195L240,210L225,195z" stroke="none" stroke-width="10" fill="#427a1a"   ></path><path d="M240,225L255,240L240,255L225,240z" stroke="none" stroke-width="10" fill="#427a1a"   ></path><path d="M240,270L255,285L240,300L225,285z" stroke="none" stroke-width="10" fill="#427a1a"   ></path><path d="M240,315L255,330L240,345L225,330z" stroke="none" stroke-width="10" fill="#427a1a"   ></path></svg>