<svg width="480" height="480" xmlns="http://www.w3.org/2000/svg"><!--Crée par @nachtfalter par Natrix-Test 2.1.0-pre3--><path d="M0,0L480,0L480,480L0,480z" stroke="none" stroke-width="10" fill="#0a610a" stroke-linejoin="round"  ></path><path d="M375,420L375,390L390,375L405,375L435,390L435,420L420,435L390,435z" stroke="none" stroke-width="10" fill="#062e06"   ></path><path d="M0,120L480,120L480,360L330,360L300,390L300,480L180,480L180,390L150,360L0,360z" stroke="none" stroke-width="10" fill="#000"   ></path><path d="M225,90L225,75L240,45L270,45L285,60L285,90L270,105L240,105z" stroke="none" stroke-width="10" fill="#062e06"   ></path><path d="M30,420L30,390L45,375L75,375L90,405L90,420L75,435L45,435z" stroke="none" stroke-width="10" fill="#062e06"   ></path><path d="M390,60L390,45L405,30L435,30L450,45L450,75L435,90L405,90z" stroke="none" stroke-width="10" fill="#062e06"   ></path><path d="M45,90L45,60L60,45L90,45L105,60L105,90L90,105L75,105z" stroke="none" stroke-width="10" fill="#062e06"   ></path><path d="M90,240L30,240" stroke="#fff" stroke-width="15" fill="none"   ></path><path d="M450,240L390,240" stroke="#fff" stroke-width="15" fill="none"   ></path><path d="M330,240L270,240" stroke="#fff" stroke-width="15" fill="none"   ></path><path d="M210,240L150,240" stroke="#fff" stroke-width="15" fill="none"   ></path></svg>