<svg width="480" height="480" xmlns="http://www.w3.org/2000/svg"><!--Crée par @nachtfalter par Natrix-Test 2.1.0-pre3--><path d="M0,0L480,0L480,480L0,480z" stroke="none" stroke-width="10" fill="#131313" stroke-linejoin="round"  ></path><path d="M30,270L30,360" stroke="#5c4924" stroke-width="15" fill="none"   ></path><path d="M30,120L30,210" stroke="#5c4924" stroke-width="15" fill="none"   ></path><path d="M90,120L90,210" stroke="#5c4924" stroke-width="15" fill="none"   ></path><path d="M150,120L150,210" stroke="#5c4924" stroke-width="15" fill="none"   ></path><path d="M210,120L210,210" stroke="#5c4924" stroke-width="15" fill="none"   ></path><path d="M270,120L270,210" stroke="#5c4924" stroke-width="15" fill="none"   ></path><path d="M330,120L330,210" stroke="#5c4924" stroke-width="15" fill="none"   ></path><path d="M390,120L390,210" stroke="#5c4924" stroke-width="15" fill="none"   ></path><path d="M450,120L450,210" stroke="#5c4924" stroke-width="15" fill="none"   ></path><path d="M450,270L450,360" stroke="#5c4924" stroke-width="15" fill="none"   ></path><path d="M390,270L390,360" stroke="#5c4924" stroke-width="15" fill="none"   ></path><path d="M330,270L330,360" stroke="#5c4924" stroke-width="15" fill="none"   ></path><path d="M270,270L270,360" stroke="#5c4924" stroke-width="15" fill="none"   ></path><path d="M210,270L210,360" stroke="#5c4924" stroke-width="15" fill="none"   ></path><path d="M150,270L150,360" stroke="#5c4924" stroke-width="15" fill="none"   ></path><path d="M90,270L90,360" stroke="#5c4924" stroke-width="15" fill="none"   ></path><path d="M480,270L0,270" stroke="#2a2a2a" stroke-width="15" fill="none"   ></path><path d="M480,360L0,360" stroke="#2a2a2a" stroke-width="15" fill="none"   ></path><path d="M480,210L0,210" stroke="#2a2a2a" stroke-width="15" fill="none"   ></path><path d="M0,390L480,390L480,480L0,480z" stroke="none" stroke-width="10" fill="#898989" stroke-linejoin="round"  ></path><path d="M0,0L480,0L480,90L0,90z" stroke="none" stroke-width="10" fill="#898989" stroke-linejoin="round"  ></path><path d="M480,120L0,120" stroke="#2a2a2a" stroke-width="15" fill="none"   ></path><path d="M480,420L0,420" stroke="#fff" stroke-width="15" fill="none"   ></path><path d="M480,60L0,60" stroke="#fff" stroke-width="15" fill="none"   ></path></svg>