<svg width="480" height="480" xmlns="http://www.w3.org/2000/svg"><!--Crée par @nachtfalter par Natrix-Test 2.1.0-pre3--><path d="M0,0L480,0L480,240L0,240z" stroke="none" stroke-width="10" fill="#0a610a" stroke-linejoin="round"  ></path><path d="M0,240L90,240L150,180L150,0L330,0L330,180L390,240L480,240L480,480L0,480z" stroke="none" stroke-width="10" fill="#043c8a"   ></path><path d="M45,105L45,75L75,60L90,60L105,75L105,105L90,120L60,120z" stroke="none" stroke-width="10" fill="#062e06"   ></path><path d="M360,165L360,135L375,120L390,120L420,135L420,165L405,180L375,180z" stroke="none" stroke-width="10" fill="#062e06"   ></path><path d="M390,75L390,45L405,30L420,30L450,45L450,75L435,90L405,90z" stroke="none" stroke-width="10" fill="#062e06"   ></path></svg>