<svg width="480" height="480" xmlns="http://www.w3.org/2000/svg"><!--Crée par @nachtfalter par Natrix-Test 2.1.0-pre3--><path d="M0,0L480,0L480,480L0,480z" stroke="none" stroke-width="10" fill="#0a610a" stroke-linejoin="round"  ></path><path d="M390,435L390,405L405,390L435,390L450,420L450,435L435,450L405,450z" stroke="none" stroke-width="10" fill="#062e06"   ></path><path d="M210,405L210,375L240,360L255,360L270,375L270,405L255,420L225,420z" stroke="none" stroke-width="10" fill="#062e06"   ></path><path d="M390,75L390,60L405,30L435,30L450,45L450,75L435,90L405,90z" stroke="none" stroke-width="10" fill="#062e06"   ></path><path d="M30,75L30,45L45,30L75,30L90,45L90,60L75,90L45,90z" stroke="none" stroke-width="10" fill="#062e06"   ></path><path d="M60,255L60,225L75,210L90,210L120,225L120,255L105,270L75,270z" stroke="none" stroke-width="10" fill="#062e06"   ></path><path d="M30,420L30,405L45,390L75,390L90,405L90,435L75,450L45,450z" stroke="none" stroke-width="10" fill="#062e06"   ></path><path d="M150,0L330,0L330,90L390,150L480,150L480,330L270,330L150,210z" stroke="none" stroke-width="10" fill="#043c8a"   ></path></svg>