<svg width="480" height="480" xmlns="http://www.w3.org/2000/svg"><!--Crée par @nachtfalter par Natrix-Test 2.1.0-pre3--><path d="M0,0L480,0L480,480L0,480z" stroke="none" stroke-width="10" fill="#0a610a" stroke-linejoin="round"  ></path><path d="M240,0L240,480" stroke="#043c8a" stroke-width="180" fill="#043c8a" stroke-linejoin="round"  ></path><path d="M390,435L390,420L405,390L435,390L450,405L450,435L435,450L405,450z" stroke="none" stroke-width="10" fill="#062e06"   ></path><path d="M390,75L390,45L405,30L435,30L450,45L450,75L420,90L405,90z" stroke="none" stroke-width="10" fill="#062e06"   ></path><path d="M360,240L360,225L375,210L405,210L420,225L420,255L405,270L375,270z" stroke="none" stroke-width="10" fill="#062e06"   ></path><path d="M60,255L60,225L75,210L90,210L120,225L120,255L105,270L75,270z" stroke="none" stroke-width="10" fill="#062e06"   ></path><path d="M30,75L30,45L45,30L75,30L90,60L90,75L75,90L45,90z" stroke="none" stroke-width="10" fill="#062e06"   ></path><path d="M30,435L30,405L45,390L75,390L90,405L90,420L75,450L45,450z" stroke="none" stroke-width="10" fill="#062e06"   ></path></svg>