<svg width="480" height="480" xmlns="http://www.w3.org/2000/svg"><!--Crée par @nachtfalter par Natrix-Test 2.1.0-pre3--><path d="M0,0L480,0L480,480L0,480z" stroke="none" stroke-width="10" fill="#0a610a"   ></path><path d="M90,90L390,90L390,240L90,240z" stroke="none" stroke-width="10" fill="#810b0b"   ></path><path d="M90,240L390,240L390,390L90,390z" stroke="none" stroke-width="10" fill="#510d0d"   ></path><path d="M120,180L150,180L150,210L120,210z" stroke="none" stroke-width="10" fill="#510d0d"   ></path><path d="M315,120L375,120L375,210L315,210z" stroke="none" stroke-width="10" fill="#060645"   ></path><path d="M165,120L225,120L225,210L165,210z" stroke="none" stroke-width="10" fill="#060645"   ></path><path d="M240,120L300,120L300,210L240,210z" stroke="none" stroke-width="10" fill="#060645"   ></path><path d="M135,30L345,30L345,90L135,90z" stroke="none" stroke-width="10" fill="#311c08"   ></path><path d="M390,60L390,30L405,15L420,15L450,30L450,60L435,75L405,75z" stroke="none" stroke-width="10" fill="#062e06"   ></path><path d="M30,60L30,30L45,15L75,15L90,45L90,60L75,75L45,75z" stroke="none" stroke-width="10" fill="#062e06"   ></path><path d="M30,450L30,435L45,405L75,405L90,420L90,450L75,465L45,465z" stroke="none" stroke-width="10" fill="#062e06"   ></path><path d="M405,435L405,420L420,405L450,405L465,420L465,450L450,465L420,465z" stroke="none" stroke-width="10" fill="#062e06"   ></path><path d="M15,240L15,210L30,195L60,195L75,210L75,240L60,255L45,255z" stroke="none" stroke-width="10" fill="#062e06"   ></path></svg>