<svg width="480" height="480" xmlns="http://www.w3.org/2000/svg"><!--Crée par @nachtfalter par Natrix-Test 2.1.0-pre3--><path d="M0,0L480,0L480,480L0,480z" stroke="none" stroke-width="10" fill="#0a610a"   ></path><path d="M120,120L360,120L360,240L120,240z" stroke="none" stroke-width="10" fill="#86480a"   ></path><path d="M120,240L360,240L360,360L120,360z" stroke="none" stroke-width="10" fill="#56300a"   ></path><path d="M150,180L180,180L180,210L150,210z" stroke="none" stroke-width="10" fill="#56300a"   ></path><path d="M15,195L15,165L30,150L60,150L75,180L75,195L60,210L30,210z" stroke="none" stroke-width="10" fill="#062e06"   ></path><path d="M45,90L45,60L60,45L90,45L105,60L105,90L75,105L60,105z" stroke="none" stroke-width="10" fill="#062e06"   ></path><path d="M270,60L270,30L285,15L315,15L330,45L330,60L315,75L285,75z" stroke="none" stroke-width="10" fill="#062e06"   ></path><path d="M360,75L360,45L390,30L405,30L420,45L420,75L405,90L375,90z" stroke="none" stroke-width="10" fill="#062e06"   ></path><path d="M405,195L405,165L420,150L450,150L465,165L465,195L435,210L420,210z" stroke="none" stroke-width="10" fill="#062e06"   ></path><path d="M390,375L390,360L405,330L435,330L450,345L450,375L435,390L405,390z" stroke="none" stroke-width="10" fill="#062e06"   ></path><path d="M285,450L285,420L315,405L330,405L345,420L345,450L330,465L300,465z" stroke="none" stroke-width="10" fill="#062e06"   ></path><path d="M135,435L135,405L150,390L180,390L195,405L195,420L180,450L150,450z" stroke="none" stroke-width="10" fill="#062e06"   ></path><path d="M30,405L30,375L45,360L75,360L90,375L90,405L75,420L60,420z" stroke="none" stroke-width="10" fill="#062e06"   ></path><path d="M165,75L165,45L180,30L210,30L225,45L225,60L210,90L180,90z" stroke="none" stroke-width="10" fill="#062e06"   ></path><path d="M45,300L45,285L60,255L90,255L105,270L105,300L90,315L60,315z" stroke="none" stroke-width="10" fill="#062e06"   ></path></svg>