<svg width="480" height="480" xmlns="http://www.w3.org/2000/svg"><!--Crée par @nachtfalter par Natrix-Test 2.1.0-pre3--><path d="M0,0L480,0L480,480L0,480z" stroke="none" stroke-width="10" fill="#0a610a" stroke-linejoin="round"  ></path><path d="M360,480L120,480L60,360L0,330L0,120L480,120L480,330L420,360z" stroke="none" stroke-width="10" fill="#000"   ></path><path d="M180,330L300,330L240,420z" stroke="none" stroke-width="10" fill="#393936"   ></path><path d="M240,60L240,45L255,30L285,30L300,45L300,75L285,90L255,90z" stroke="none" stroke-width="10" fill="#062e06"   ></path><path d="M15,450L15,435L30,405L60,405L75,420L75,450L60,465L30,465z" stroke="none" stroke-width="10" fill="#062e06"   ></path><path d="M405,450L405,420L420,405L435,405L465,420L465,450L450,465L420,465z" stroke="none" stroke-width="10" fill="#062e06"   ></path><path d="M30,60L30,30L45,15L75,15L90,45L90,60L75,75L45,75z" stroke="none" stroke-width="10" fill="#062e06"   ></path><path d="M405,60L405,30L420,15L450,15L465,30L465,60L450,75L435,75z" stroke="none" stroke-width="10" fill="#062e06"   ></path><path d="M0,60L60,120L420,120L480,60L480,120L450,150L30,150L0,120z" stroke="none" stroke-width="10" fill="#393936"   ></path></svg>