<svg width="480" height="480" xmlns="http://www.w3.org/2000/svg"><!--Crée par @nachtfalter par Natrix-Test 2.1.0-pre3--><path d="M0,0L480,0L480,480L0,480z" stroke="none" stroke-width="10" fill="#0a610a"   ></path><path d="M90,180L105,195L105,210L90,225L75,225L60,210L60,195L75,180z" stroke="none" stroke-width="10" fill="#291811"   ></path><path d="M45,255L75,225L90,225L120,255L120,315L90,345L60,375L75,345L45,315z" stroke="none" stroke-width="10" fill="#291811"   ></path><path d="M90,195L105,210L90,210z" stroke="none" stroke-width="10" fill="#f998f1"   ></path><path d="M75,195L60,210L75,210z" stroke="none" stroke-width="10" fill="#f998f1"   ></path><path d="M240,45L255,60L255,75L240,90L225,90L210,75L210,60L225,45z" stroke="none" stroke-width="10" fill="#fff"   ></path><path d="M195,120L225,90L240,90L270,120L270,180L240,210L255,240L225,210L195,180z" stroke="none" stroke-width="10" fill="#fff"   ></path><path d="M225,60L210,75L225,75z" stroke="none" stroke-width="10" fill="#f998f1"   ></path><path d="M390,225L405,240L405,255L390,270L375,270L360,255L360,240L375,225z" stroke="none" stroke-width="10" fill="#fff"   ></path><path d="M345,300L375,270L390,270L420,300L420,360L390,390L360,420L375,390L345,360z" stroke="none" stroke-width="10" fill="#fff"   ></path><path d="M390,240L405,255L390,255z" stroke="none" stroke-width="10" fill="#f998f1"   ></path><path d="M375,240L360,255L375,255z" stroke="none" stroke-width="10" fill="#f998f1"   ></path><path d="M405,285L420,300L390,315L360,285z" stroke="none" stroke-width="10" fill="#291811"   ></path><path d="M240,60L255,75L240,75z" stroke="none" stroke-width="10" fill="#f998f1"   ></path><path d="M240,150L270,165L240,195L225,165z" stroke="none" stroke-width="10" fill="#291811"   ></path><path d="M210,120L225,135L195,150L195,120z" stroke="none" stroke-width="10" fill="#291811"   ></path><path d="M240,90L270,120L240,120L225,105z" stroke="none" stroke-width="10" fill="#291811"   ></path><path d="M405,330L420,360L390,390L390,360z" stroke="none" stroke-width="10" fill="#291811"   ></path><path d="M345,315L375,330L360,360L345,360z" stroke="none" stroke-width="10" fill="#291811"   ></path></svg>