<svg width="480" height="480" xmlns="http://www.w3.org/2000/svg"><!--Crée par @nachtfalter par Natrix-Test 2.1.0-pre3--><path d="M0,0L480,0L480,480L0,480z" stroke="none" stroke-width="10" fill="#0a610a"   ></path><path d="M60,360L60,300L180,300L210,330L210,390L180,420L120,420L120,360z" stroke="none" stroke-width="10" fill="#bdaa17"   ></path><path d="M450,450L450,30L30,30L30,450z" stroke="#1c1302" stroke-width="10" fill="none"   ></path><path d="M390,150L375,150L375,120L390,120z" stroke="none" stroke-width="10" fill="#3d2304"   ></path><path d="M300,240L285,240L285,210L300,210z" stroke="none" stroke-width="10" fill="#daaa25"   ></path><path d="M120,60L120,75L90,75L90,60z" stroke="none" stroke-width="10" fill="#3d2304"   ></path><path d="M180,135L180,150L150,150L150,135z" stroke="none" stroke-width="10" fill="#daaa25"   ></path><path d="M255,360L255,375L225,375L225,360z" stroke="none" stroke-width="10" fill="#3d2304"   ></path><path d="M390,315L390,330L360,330L360,315z" stroke="none" stroke-width="10" fill="#daaa25"   ></path><path d="M45,345L135,345L135,390L45,390z" stroke="none" stroke-width="10" fill="#810b0b"   ></path><path d="M90,240L75,240L75,210L90,210z" stroke="none" stroke-width="10" fill="#daaa25"   ></path><path d="M180,390L165,390L165,360L180,360z" stroke="none" stroke-width="10" fill="#3d2304"   ></path><path d="M45,390L135,390L135,435L45,435z" stroke="none" stroke-width="10" fill="#510d0d"   ></path></svg>