<svg width="480" height="480" xmlns="http://www.w3.org/2000/svg"><!--Crée par @nachtfalter par Natrix-Test 2.1.0-pre3--><path d="M0,0L480,0L480,480L0,480z" stroke="none" stroke-width="10" fill="#2a2a2a"   ></path><path d="M450,30L450,195L30,195L30,30z" stroke="none" stroke-width="30" fill="#174317"   ></path><path d="M105,120L105,165L60,165L60,120z" stroke="none" stroke-width="10" fill="#000"   ></path><path d="M60,360L90,360L90,450L60,450z" stroke="none" stroke-width="10" fill="#fff"   ></path><path d="M120,360L150,360L150,450L120,450z" stroke="none" stroke-width="10" fill="#fff"   ></path><path d="M180,360L210,360L210,450L180,450z" stroke="none" stroke-width="10" fill="#fff"   ></path><path d="M240,360L270,360L270,450L240,450z" stroke="none" stroke-width="10" fill="#fff"   ></path><path d="M300,360L330,360L330,450L300,450z" stroke="none" stroke-width="10" fill="#fff"   ></path><path d="M360,360L390,360L390,450L360,450z" stroke="none" stroke-width="10" fill="#fff"   ></path><path d="M390,360L420,360L420,450L390,450z" stroke="none" stroke-width="10" fill="#1c4f18"   ></path><path d="M330,360L360,360L360,450L330,450z" stroke="none" stroke-width="10" fill="#1c4f18"   ></path><path d="M270,360L300,360L300,450L270,450z" stroke="none" stroke-width="10" fill="#1c4f18"   ></path><path d="M210,360L240,360L240,450L210,450z" stroke="none" stroke-width="10" fill="#1c4f18"   ></path><path d="M150,360L180,360L180,450L150,450z" stroke="none" stroke-width="10" fill="#1c4f18"   ></path><path d="M90,360L120,360L120,450L90,450z" stroke="none" stroke-width="10" fill="#1c4f18"   ></path><path d="M30,360L60,360L60,450L30,450z" stroke="none" stroke-width="10" fill="#1c4f18"   ></path><path d="M420,360L450,360L450,450L420,450z" stroke="none" stroke-width="10" fill="#fff"   ></path><path d="M450,195L450,360L30,360L30,195z" stroke="none" stroke-width="30" fill="#102e0f"   ></path></svg>