<svg width="480" height="480" xmlns="http://www.w3.org/2000/svg"><!--Crée par @nachtfalter par Natrix-Test 2.1.0-pre3--><path d="M0,0L480,0L480,480L0,480z" stroke="none" stroke-width="10" fill="#0a610a" stroke-linejoin="round"  ></path><path d="M390,435L390,420L405,390L435,390L450,405L450,435L435,450L405,450z" stroke="none" stroke-width="10" fill="#062e06"   ></path><path d="M405,240L405,210L420,195L450,195L465,210L465,240L450,255L435,255z" stroke="none" stroke-width="10" fill="#062e06"   ></path><path d="M15,255L15,225L30,210L45,210L75,225L75,255L60,270L30,270z" stroke="none" stroke-width="10" fill="#062e06"   ></path><path d="M45,105L45,75L75,60L90,60L105,75L105,105L90,120L60,120z" stroke="none" stroke-width="10" fill="#062e06"   ></path><path d="M390,75L390,45L405,30L420,30L450,45L450,75L435,90L405,90z" stroke="none" stroke-width="10" fill="#062e06"   ></path><path d="M150,0L330,0L330,120L390,180L390,300L330,360L150,360L90,300L90,180L150,120z" stroke="none" stroke-width="10" fill="#043c8a"   ></path><path d="M30,435L30,405L45,390L75,390L90,405L90,420L75,450L45,450z" stroke="none" stroke-width="10" fill="#062e06"   ></path><path d="M210,420L210,390L225,375L255,375L270,390L270,420L255,435L240,435z" stroke="none" stroke-width="10" fill="#062e06"   ></path></svg>