<svg width="480" height="480" xmlns="http://www.w3.org/2000/svg"><!--Crée par @nachtfalter par Natrix-Test 2.1.0-pre3--><path d="M0,0L480,0L480,480L0,480z" stroke="none" stroke-width="10" fill="#0a610a" stroke-linejoin="round"  ></path><path d="M480,90L450,90L390,30L390,0L90,0L90,180L300,390L480,390z" stroke="none" stroke-width="10" fill="#131313" stroke-linejoin="round"  ></path><path d="M0,90L30,90L90,30L90,0L390,0L390,390L0,390z" stroke="none" stroke-width="10" fill="#131313" stroke-linejoin="round"  ></path><path d="M345,450L345,420L360,405L375,405L405,420L405,450L390,465L360,465z" stroke="none" stroke-width="10" fill="#062e06"   ></path><path d="M195,450L195,435L210,405L240,405L255,420L255,450L240,465L210,465z" stroke="none" stroke-width="10" fill="#062e06"   ></path><path d="M30,270L30,360" stroke="#5c4924" stroke-width="15" fill="none"   ></path><path d="M270,90L390,90" stroke="#5c4924" stroke-width="15" fill="none"   ></path><path d="M270,30L360,30" stroke="#5c4924" stroke-width="15" fill="none"   ></path><path d="M30,450L30,420L45,405L75,405L90,435L90,450L75,465L45,465z" stroke="none" stroke-width="10" fill="#062e06"   ></path><path d="M90,270L90,360" stroke="#5c4924" stroke-width="15" fill="none"   ></path><path d="M330,120L330,210" stroke="#5c4924" stroke-width="15" fill="none"   ></path><path d="M450,270L450,360" stroke="#5c4924" stroke-width="15" fill="none"   ></path><path d="M450,120L450,210" stroke="#5c4924" stroke-width="15" fill="none"   ></path><path d="M390,270L390,360" stroke="#5c4924" stroke-width="15" fill="none"   ></path><path d="M330,240L330,360" stroke="#5c4924" stroke-width="15" fill="none"   ></path><path d="M270,120L270,360" stroke="#5c4924" stroke-width="15" fill="none"   ></path><path d="M210,120L210,360" stroke="#5c4924" stroke-width="15" fill="none"   ></path><path d="M30,120L30,210" stroke="#5c4924" stroke-width="15" fill="none"   ></path><path d="M90,90L90,210" stroke="#5c4924" stroke-width="15" fill="none"   ></path><path d="M390,90L390,210" stroke="#5c4924" stroke-width="15" fill="none"   ></path><path d="M120,30L210,30" stroke="#5c4924" stroke-width="15" fill="none"   ></path><path d="M90,90L210,90" stroke="#5c4924" stroke-width="15" fill="none"   ></path><path d="M150,240L150,360" stroke="#5c4924" stroke-width="15" fill="none"   ></path><path d="M150,120L150,210" stroke="#5c4924" stroke-width="15" fill="none"   ></path><path d="M120,0L120,60L60,120L0,120" stroke="#2a2a2a" stroke-width="15" fill="none"   ></path><path d="M360,0L360,60L420,120L480,120" stroke="#2a2a2a" stroke-width="15" fill="none"   ></path><path d="M480,210L0,210" stroke="#2a2a2a" stroke-width="15" fill="none"   ></path><path d="M480,270L0,270" stroke="#2a2a2a" stroke-width="15" fill="none"   ></path><path d="M120,0L120,150L330,360L480,360" stroke="#2a2a2a" stroke-width="15" fill="none"   ></path><path d="M480,360L0,360" stroke="#2a2a2a" stroke-width="15" fill="none"   ></path><path d="M270,0L270,120L120,270L0,270" stroke="#2a2a2a" stroke-width="15" fill="none"   ></path><path d="M210,0L210,120L360,270L480,270" stroke="#2a2a2a" stroke-width="15" fill="none"   ></path><path d="M480,120L0,120" stroke="#2a2a2a" stroke-width="15" fill="none"   ></path><path d="M210,0L210,90L90,210L0,210" stroke="#2a2a2a" stroke-width="15" fill="none"   ></path><path d="M360,0L360,150L150,360L0,360" stroke="#2a2a2a" stroke-width="15" fill="none"   ></path><path d="M270,0L270,90L390,210L480,210" stroke="#2a2a2a" stroke-width="15" fill="none"   ></path></svg>