<svg width="480" height="480" xmlns="http://www.w3.org/2000/svg"><!--Crée par @nachtfalter par Natrix-Test 2.1.0-pre3--><path d="M0,0L480,0L480,480L0,480z" stroke="none" stroke-width="10" fill="#0a610a" stroke-linejoin="round"  ></path><path d="M0,90L30,90L90,30L90,0L390,0L390,180L180,390L0,390z" stroke="none" stroke-width="10" fill="#131313" stroke-linejoin="round"  ></path><path d="M240,150L300,210" stroke="#5c4924" stroke-width="15" fill="none"   ></path><path d="M345,450L345,420L360,405L375,405L405,420L405,450L390,465L360,465z" stroke="none" stroke-width="10" fill="#062e06"   ></path><path d="M225,390L225,375L240,345L270,345L285,360L285,390L270,405L240,405z" stroke="none" stroke-width="10" fill="#062e06"   ></path><path d="M360,270L360,240L375,225L405,225L420,255L420,270L405,285L375,285z" stroke="none" stroke-width="10" fill="#062e06"   ></path><path d="M30,270L30,360" stroke="#5c4924" stroke-width="15" fill="none"   ></path><path d="M30,120L30,210" stroke="#5c4924" stroke-width="15" fill="none"   ></path><path d="M60,120L90,210" stroke="#5c4924" stroke-width="15" fill="none"   ></path><path d="M90,90L150,150" stroke="#5c4924" stroke-width="15" fill="none"   ></path><path d="M120,60L210,90" stroke="#5c4924" stroke-width="15" fill="none"   ></path><path d="M120,30L210,30" stroke="#5c4924" stroke-width="15" fill="none"   ></path><path d="M270,30L360,30" stroke="#5c4924" stroke-width="15" fill="none"   ></path><path d="M270,90L360,90" stroke="#5c4924" stroke-width="15" fill="none"   ></path><path d="M150,240L210,300" stroke="#5c4924" stroke-width="15" fill="none"   ></path><path d="M270,120L360,150" stroke="#5c4924" stroke-width="15" fill="none"   ></path><path d="M210,180L270,240" stroke="#5c4924" stroke-width="15" fill="none"   ></path><path d="M180,210L240,270" stroke="#5c4924" stroke-width="15" fill="none"   ></path><path d="M120,270L150,360" stroke="#5c4924" stroke-width="15" fill="none"   ></path><path d="M90,270L90,360" stroke="#5c4924" stroke-width="15" fill="none"   ></path><path d="M30,450L30,420L45,405L75,405L90,435L90,450L75,465L45,465z" stroke="none" stroke-width="10" fill="#062e06"   ></path><path d="M210,0L210,90L90,210L0,210" stroke="#2a2a2a" stroke-width="15" fill="none"   ></path><path d="M120,0L120,60L60,120L0,120" stroke="#2a2a2a" stroke-width="15" fill="none"   ></path><path d="M270,0L270,120L120,270L0,270" stroke="#2a2a2a" stroke-width="15" fill="none"   ></path><path d="M360,0L360,150L150,360L0,360" stroke="#2a2a2a" stroke-width="15" fill="none"   ></path></svg>