<svg width="480" height="480" xmlns="http://www.w3.org/2000/svg"><!--Crée par @nachtfalter par Natrix-Test 2.1.0-pre3--><path d="M0,0L480,0L480,480L0,480z" stroke="none" stroke-width="10" fill="#0a610a" stroke-linejoin="round"  ></path><path d="M345,450L345,420L360,405L375,405L405,420L405,450L390,465L360,465z" stroke="none" stroke-width="10" fill="#062e06"   ></path><path d="M375,60L375,45L390,15L420,15L435,30L435,60L420,75L390,75z" stroke="none" stroke-width="10" fill="#062e06"   ></path><path d="M30,450L30,420L45,405L75,405L90,435L90,450L75,465L45,465z" stroke="none" stroke-width="10" fill="#062e06"   ></path><path d="M45,60L45,30L60,15L90,15L105,30L105,60L90,75L75,75z" stroke="none" stroke-width="10" fill="#062e06"   ></path><path d="M0,90L360,90L360,390L0,390z" stroke="none" stroke-width="10" fill="#131313" stroke-linejoin="round"  ></path><path d="M30,270L30,360" stroke="#5c4924" stroke-width="15" fill="none"   ></path><path d="M30,120L30,210" stroke="#5c4924" stroke-width="15" fill="none"   ></path><path d="M90,120L90,210" stroke="#5c4924" stroke-width="15" fill="none"   ></path><path d="M270,270L270,360" stroke="#5c4924" stroke-width="15" fill="none"   ></path><path d="M150,120L150,210" stroke="#5c4924" stroke-width="15" fill="none"   ></path><path d="M210,120L210,210" stroke="#5c4924" stroke-width="15" fill="none"   ></path><path d="M210,270L210,360" stroke="#5c4924" stroke-width="15" fill="none"   ></path><path d="M150,270L150,360" stroke="#5c4924" stroke-width="15" fill="none"   ></path><path d="M90,270L90,360" stroke="#5c4924" stroke-width="15" fill="none"   ></path><path d="M270,120L270,210" stroke="#5c4924" stroke-width="15" fill="none"   ></path><path d="M360,270L0,270" stroke="#2a2a2a" stroke-width="15" fill="none"   ></path><path d="M360,360L0,360" stroke="#2a2a2a" stroke-width="15" fill="none"   ></path><path d="M360,210L0,210" stroke="#2a2a2a" stroke-width="15" fill="none"   ></path><path d="M360,120L0,120" stroke="#2a2a2a" stroke-width="15" fill="none"   ></path><path d="M300,90L330,90L330,390L300,390z" stroke="none" stroke-width="10" fill="#342d16" stroke-linejoin="round"  ></path><path d="M270,330L300,330L300,360L270,360z" stroke="none" stroke-width="10" fill="#5f5d5d" stroke-linejoin="round"  ></path><path d="M270,180L300,180L300,210L270,210z" stroke="none" stroke-width="10" fill="#5f5d5d" stroke-linejoin="round"  ></path><path d="M270,270L300,270L300,300L270,300z" stroke="none" stroke-width="10" fill="#5f5d5d" stroke-linejoin="round"  ></path><path d="M270,120L300,120L300,150L270,150z" stroke="none" stroke-width="10" fill="#5f5d5d" stroke-linejoin="round"  ></path><path d="M330,270L420,270L420,300L330,300z" stroke="none" stroke-width="10" fill="#5c4924" stroke-linejoin="round"  ></path><path d="M330,330L420,330L420,360L330,360z" stroke="none" stroke-width="10" fill="#5c4924" stroke-linejoin="round"  ></path><path d="M330,120L420,120L420,150L330,150z" stroke="none" stroke-width="10" fill="#5c4924" stroke-linejoin="round"  ></path><path d="M330,180L420,180L420,210L330,210z" stroke="none" stroke-width="10" fill="#5c4924" stroke-linejoin="round"  ></path></svg>