<svg width="480" height="480" xmlns="http://www.w3.org/2000/svg"><!--Crée par @nachtfalter par Natrix-Test 2.1.0-pre3--><path d="M0,0L480,0L480,480L0,480z" stroke="none" stroke-width="10" fill="#0a610a"   ></path><path d="M330,30L450,30L450,90L330,90z" stroke="none" stroke-width="10" fill="#0a0a6d"   ></path><path d="M330,120L450,120L450,180L330,180z" stroke="none" stroke-width="10" fill="#0a0a6d"   ></path><path d="M330,390L450,390L450,450L330,450z" stroke="none" stroke-width="10" fill="#0a0a6d"   ></path><path d="M330,210L450,210L450,270L330,270z" stroke="none" stroke-width="10" fill="#0a0a6d"   ></path><path d="M30,120L150,120L150,180L30,180z" stroke="none" stroke-width="10" fill="#0a0a6d"   ></path><path d="M30,30L150,30L150,90L30,90z" stroke="none" stroke-width="10" fill="#0a0a6d"   ></path><path d="M30,210L150,210L150,270L30,270z" stroke="none" stroke-width="10" fill="#0a0a6d"   ></path><path d="M30,390L150,390L150,450L30,450z" stroke="none" stroke-width="10" fill="#0a0a6d"   ></path><path d="M180,120L300,120L300,180L180,180z" stroke="none" stroke-width="10" fill="#0a0a6d"   ></path><path d="M180,30L300,30L300,90L180,90z" stroke="none" stroke-width="10" fill="#0a0a6d"   ></path><path d="M180,210L300,210L300,270L180,270z" stroke="none" stroke-width="10" fill="#0a0a6d"   ></path><path d="M180,390L300,390L300,450L180,450z" stroke="none" stroke-width="10" fill="#0a0a6d"   ></path><path d="M30,300L150,300L150,360L30,360z" stroke="none" stroke-width="10" fill="#0a0a6d"   ></path><path d="M180,300L300,300L300,360L180,360z" stroke="none" stroke-width="10" fill="#0a0a6d"   ></path><path d="M330,300L450,300L450,360L330,360z" stroke="none" stroke-width="10" fill="#0a0a6d"   ></path></svg>