<svg width="480" height="480" xmlns="http://www.w3.org/2000/svg"><!--Crée par @nachtfalter par Natrix-Test 2.1.0-pre3--><path d="M0,0L480,0L480,240L0,240z" stroke="none" stroke-width="10" fill="#0a610a" stroke-linejoin="round"  ></path><path d="M0,240L90,240L120,120L150,90L150,0L330,0L330,90L360,120L390,240L480,240L480,480L0,480z" stroke="none" stroke-width="10" fill="#043c8a"   ></path><path d="M15,75L15,45L45,30L60,30L75,45L75,75L60,90L30,90z" stroke="none" stroke-width="10" fill="#062e06"   ></path><path d="M390,75L390,45L405,30L420,30L450,45L450,75L435,90L405,90z" stroke="none" stroke-width="10" fill="#062e06"   ></path><path d="M270,120L300,120L300,210L270,210z" stroke="none" stroke-width="10" fill="#393936"   ></path><path d="M0,210L480,210L480,240L0,240z" stroke="none" stroke-width="10" fill="#393936"   ></path><path d="M360,120L390,120L390,210L360,210z" stroke="none" stroke-width="10" fill="#393936"   ></path><path d="M180,120L210,120L210,210L180,210z" stroke="none" stroke-width="10" fill="#393936"   ></path><path d="M90,120L120,120L120,210L90,210z" stroke="none" stroke-width="10" fill="#393936"   ></path></svg>