<svg width="480" height="480" xmlns="http://www.w3.org/2000/svg"><!--Crée par @nachtfalter par Natrix-Test 2.1.0-pre3--><path d="M0,0L480,0L480,480L0,480z" stroke="none" stroke-width="10" fill="#0a610a" stroke-linejoin="round"  ></path><path d="M480,120L480,360L0,360L0,120z" stroke="none" stroke-width="10" fill="#000"   ></path><path d="M450,240L390,240" stroke="#fff" stroke-width="15" fill="none"   ></path><path d="M90,240L30,240" stroke="#fff" stroke-width="15" fill="none"   ></path><path d="M360,480L120,480L120,0L360,0z" stroke="none" stroke-width="10" fill="#000"   ></path><path d="M0,360L480,360L480,390L0,390z" stroke="none" stroke-width="10" fill="#393936"   ></path><path d="M0,90L480,90L480,120L0,120z" stroke="none" stroke-width="10" fill="#393936"   ></path><path d="M330,240L270,240" stroke="#fff" stroke-width="15" fill="none"   ></path><path d="M240,90L240,30" stroke="#fff" stroke-width="15" fill="none"   ></path><path d="M210,240L150,240" stroke="#fff" stroke-width="15" fill="none"   ></path><path d="M240,450L240,390" stroke="#fff" stroke-width="15" fill="none"   ></path></svg>