<svg width="480" height="480" xmlns="http://www.w3.org/2000/svg"><!--Crée par @nachtfalter par Natrix-Test 2.1.0-pre3--><path d="M0,0L480,0L480,480L0,480z" stroke="none" stroke-width="10" fill="#0a610a" stroke-linejoin="round"  ></path><path d="M120,180L180,120L300,120L360,180L360,300L300,360L180,360L120,300z" stroke="none" stroke-width="10" fill="#043c8a"   ></path><path d="M30,60L30,45L45,30L75,30L90,45L90,75L75,90L45,90z" stroke="none" stroke-width="10" fill="#062e06"   ></path><path d="M390,75L390,45L405,30L435,30L450,45L450,75L420,90L405,90z" stroke="none" stroke-width="10" fill="#062e06"   ></path><path d="M390,240L390,210L405,195L420,195L450,210L450,240L435,255L405,255z" stroke="none" stroke-width="10" fill="#062e06"   ></path><path d="M225,60L225,45L240,30L270,30L285,45L285,75L270,90L240,90z" stroke="none" stroke-width="10" fill="#062e06"   ></path><path d="M375,390L375,375L390,345L420,345L435,360L435,390L420,405L390,405z" stroke="none" stroke-width="10" fill="#062e06"   ></path><path d="M30,270L30,240L45,225L75,225L90,240L90,270L75,285L60,285z" stroke="none" stroke-width="10" fill="#062e06"   ></path><path d="M120,435L120,405L135,390L165,390L180,405L180,420L165,450L135,450z" stroke="none" stroke-width="10" fill="#062e06"   ></path></svg>