<svg width="480" height="480" xmlns="http://www.w3.org/2000/svg"><!--Crée par @nachtfalter par Natrix-Test 2.1.0-pre3--><path d="M0,0L480,0L480,480L0,480z" stroke="none" stroke-width="10" fill="#0a610a"   ></path><path d="M480,180L480,300L0,300L0,180z" stroke="none" stroke-width="10" fill="#241e0e"   ></path><path d="M120,0L360,0L360,480L120,480z" stroke="none" stroke-width="10" fill="#000"   ></path><path d="M240,30L240,90" stroke="#fff" stroke-width="15" fill="none"   ></path><path d="M240,390L240,450" stroke="#fff" stroke-width="15" fill="none"   ></path><path d="M30,60L30,45L45,30L75,30L90,45L90,75L75,90L45,90z" stroke="none" stroke-width="10" fill="#062e06"   ></path><path d="M30,435L30,405L45,390L75,390L90,420L90,435L75,450L45,450z" stroke="none" stroke-width="10" fill="#062e06"   ></path><path d="M390,75L390,45L405,30L420,30L450,45L450,75L435,90L405,90z" stroke="none" stroke-width="10" fill="#062e06"   ></path><path d="M390,435L390,405L405,390L435,390L450,405L450,435L435,450L420,450z" stroke="none" stroke-width="10" fill="#062e06"   ></path><path d="M330,150L330,330" stroke="#fff" stroke-width="30" fill="none"   ></path><path d="M270,150L270,330" stroke="#fff" stroke-width="30" fill="none"   ></path><path d="M210,150L210,330" stroke="#fff" stroke-width="30" fill="none"   ></path><path d="M150,150L150,330" stroke="#fff" stroke-width="30" fill="none"   ></path></svg>