# Made in Blockbench 4.12.4
mtllib materials.mtl

o water
v 0.125 0.03125 0.125
v 0.125 0.03125 -0.125
v -0.125 0.03125 0.125
v -0.125 0.03125 -0.125
vt 0.25 0.75
vt 0.25 1
vt 0 1
vt 0 0.75
vn 0 1 0
usemtl m_fa9348fa-f37f-1011-9252-dd9a5c0728dc
f 1/1/1 2/2/1 4/3/1 3/4/1
o dirt
v 0.125 -0.0625 0.125
v 0.125 -0.0625 -0.125
v -0.125 -0.0625 0.125
v -0.125 -0.0625 -0.125
vt 0.25 0.484375
vt 0.25 0.734375
vt 0 0.734375
vt 0 0.484375
vn 0 1 0
usemtl m_fa9348fa-f37f-1011-9252-dd9a5c0728dc
f 5/5/2 6/6/2 8/7/2 7/8/2
o grass
v 0.125 0.0625 -0.0625
v 0.125 0.0625 -0.125
v 0.125 0 0
v 0.125 0 -0.125
v 0 0.0625 -0.0625
v 0 0.0625 -0.125
v 0 0 0
v 0 0 -0.125
vt 0.125 0.46875
vt 0.0625 0.46875
vt 0 0.40625
vt 0.125 0.40625
vt 0.265625 0.40625
vt 0.203125 0.46875
vt 0.140625 0.46875
vt 0.140625 0.40625
vt 0.546875 0.859375
vt 0.671875 0.859375
vt 0.671875 0.921875
vt 0.546875 0.921875
vt 0.390625 0.671875
vt 0.390625 0.796875
vt 0.265625 0.796875
vt 0.265625 0.671875
vt 0.53125 0.625
vt 0.53125 0.71875
vt 0.40625 0.71875
vt 0.40625 0.625
vt 0.671875 0.921875
vt 0.546875 0.921875
vt 0.546875 0.859375
vt 0.671875 0.859375
vn 1 0 0
vn -1 0 0
vn 0 1 0
vn 0 -1 0
vn 0 0.7071067811865476 0.7071067811865476
vn 0 0 -1
usemtl m_fa9348fa-f37f-1011-9252-dd9a5c0728dc
f 10/9/3 9/10/3 11/11/3 12/12/3
f 15/13/4 13/14/4 14/15/4 16/16/4
f 13/17/5 9/18/5 10/19/5 14/20/5
f 12/21/6 11/22/6 15/23/6 16/24/6
f 11/25/7 9/26/7 13/27/7 15/28/7
f 14/29/8 10/30/8 12/31/8 16/32/8
o grass
v -0.06249999999999997 0.0625 0
v -0.12499999999999997 0.0625 -2.7755575615628914e-17
v 2.7755575615628914e-17 0 0
v -0.12499999999999997 0 -2.7755575615628914e-17
v -0.0625 0.0625 0.12499999999999999
v -0.125 0.0625 0.12499999999999997
v 0 0 0.125
v -0.125 0 0.12499999999999997
vt 0.125 0.46875
vt 0.0625 0.46875
vt 0 0.40625
vt 0.125 0.40625
vt 0.265625 0.40625
vt 0.203125 0.46875
vt 0.140625 0.46875
vt 0.140625 0.40625
vt 0.546875 0.859375
vt 0.671875 0.859375
vt 0.671875 0.921875
vt 0.546875 0.921875
vt 0.390625 0.671875
vt 0.390625 0.796875
vt 0.265625 0.796875
vt 0.265625 0.671875
vt 0.53125 0.625
vt 0.53125 0.71875
vt 0.40625 0.71875
vt 0.40625 0.625
vt 0.671875 0.921875
vt 0.546875 0.921875
vt 0.546875 0.859375
vt 0.671875 0.859375
vn 2.220446049250313e-16 0 -1
vn -2.220446049250313e-16 0 1
vn 0 1 0
vn 0 -1 0
vn 0.7071067811865476 0.7071067811865476 1.5700924586837752e-16
vn -1 0 -2.220446049250313e-16
usemtl m_fa9348fa-f37f-1011-9252-dd9a5c0728dc
f 18/33/9 17/34/9 19/35/9 20/36/9
f 23/37/10 21/38/10 22/39/10 24/40/10
f 21/41/11 17/42/11 18/43/11 22/44/11
f 20/45/12 19/46/12 23/47/12 24/48/12
f 19/49/13 17/50/13 21/51/13 23/52/13
f 22/53/14 18/54/14 20/55/14 24/56/14
o grass
v 0 0.0625 -0.0625
v 0 0.0625 -0.125
v 0 0 -0.125
v -0.0625 0.0625 0
v -0.125 0.0625 0
v 0 0 0
v -0.125 0 0
v -0.125 0.0625 -0.125
v -0.125 0.03125 -0.125
v -0.125 0 -0.125
vt 0.125 0.46875
vt 0.0625 0.46875
vt 0 0.40625
vt 0.125 0.40625
vt 0.265625 0.40625
vt 0.203125 0.46875
vt 0.140625 0.46875
vt 0.140625 0.40625
vt 0.375 0.734375
vt 0.375 0.796875
vt 0.3125 0.671875
vt 0.6875 0.609375
vt 0.5991109375 0.609375
vt 0.64330625 0.532828125
vt 0.671875 0.8125
vt 0.671875 0.84375
vt 0.546875 0.84375
vt 0.546875 0.78125
vt 0.328125 0.671875
vt 0.390625 0.796875
vt 0.265625 0.796875
vt 0.265625 0.65625
vt 0.265625 0.53125
vt 0.328125 0.53125
vt 0.53125 0.875
vt 0.53125 1
vt 0.40625 0.875
vt 0.53125 1
vt 0.40625 1
vt 0.40625 0.875
vt 0.546875 0.78125
vt 0.671875 0.78125
vt 0.671875 0.8125
vt 0.671875 0.765625
vt 0.546875 0.765625
vt 0.546875 0.734375
vt 0.671875 0.703125
vt 0.546875 0.703125
vt 0.671875 0.703125
vt 0.546875 0.734375
vn 1 0 0
vn 0 0 1
vn 0 1 0
vn 0.5773502691896258 0.5773502691896258 0.5773502691896258
vn 0 0 -1
vn 0 1 0
vn 0 1 0
vn 0 -1 0
vn 0 -1 0
vn 0 0 -1
vn -1 0 0
vn -1 0 0
usemtl m_fa9348fa-f37f-1011-9252-dd9a5c0728dc
f 26/57/15 25/58/15 30/59/15 27/60/15
f 30/61/16 28/62/16 29/63/16 31/64/16
f 25/65/17 26/66/17 28/67/17
f 25/68/18 28/69/18 30/70/18
f 33/71/19 32/72/19 26/73/19 27/74/19
f 28/75/20 26/76/20 32/77/20
f 32/78/21 29/79/21 28/80/21
f 27/81/22 30/82/22 34/83/22
f 30/84/23 31/85/23 34/86/23
f 27/87/24 34/88/24 33/89/24
f 29/90/25 32/91/25 33/92/25 31/93/25
f 34/94/26 31/95/26 33/96/26
o dirt
v 2.7755575615628914e-17 0 0
v -0.12499999999999997 0 -5.551115123125783e-17
v 0.06250000000000003 -0.0625 0
v -0.12499999999999997 -0.0625 -5.551115123125783e-17
v 0 0 0.12499999999999999
v -0.125 0 0.12499999999999996
v 0.0625 -0.0625 0.125
v -0.125 -0.0625 0.12499999999999996
vt 0.578125 0.59375
vt 0.453125 0.59375
vt 0.390625 0.53125
vt 0.578125 0.53125
vt 0.453125 0.453125
vt 0.390625 0.515625
vt 0.265625 0.515625
vt 0.265625 0.453125
vt 0.40625 0.734375
vt 0.53125 0.734375
vt 0.53125 0.859375
vt 0.40625 0.859375
vt 0.390625 0.8125
vt 0.390625 1
vt 0.265625 1
vt 0.265625 0.8125
vt 0.59375 0.421875
vt 0.59375 0.515625
vt 0.46875 0.515625
vt 0.46875 0.421875
vt 0.671875 0.6875
vt 0.546875 0.6875
vt 0.546875 0.625
vt 0.671875 0.625
vn 2.220446049250313e-16 0 -1
vn -2.220446049250313e-16 0 1
vn 0 1 0
vn 0 -1 0
vn 0.7071067811865476 0.7071067811865476 1.5700924586837752e-16
vn -1 0 -2.220446049250313e-16
usemtl m_fa9348fa-f37f-1011-9252-dd9a5c0728dc
f 36/97/27 35/98/27 37/99/27 38/100/27
f 41/101/28 39/102/28 40/103/28 42/104/28
f 39/105/29 35/106/29 36/107/29 40/108/29
f 38/109/30 37/110/30 41/111/30 42/112/30
f 37/113/31 35/114/31 39/115/31 41/116/31
f 40/117/32 36/118/32 38/119/32 42/120/32
o dirt
v 0.125 0 0
v 0.125 0 -0.125
v 0.125 -0.0625 0.0625
v 0.125 -0.0625 -0.125
v 0 0 0
v 0 0 -0.125
v 0 -0.0625 0.0625
v 0 -0.0625 -0.125
vt 0.578125 0.59375
vt 0.453125 0.59375
vt 0.390625 0.53125
vt 0.578125 0.53125
vt 0.453125 0.453125
vt 0.390625 0.515625
vt 0.265625 0.515625
vt 0.265625 0.453125
vt 0.40625 0.734375
vt 0.53125 0.734375
vt 0.53125 0.859375
vt 0.40625 0.859375
vt 0.390625 0.8125
vt 0.390625 1
vt 0.265625 1
vt 0.265625 0.8125
vt 0.59375 0.421875
vt 0.59375 0.515625
vt 0.46875 0.515625
vt 0.46875 0.421875
vt 0.671875 0.6875
vt 0.546875 0.6875
vt 0.546875 0.625
vt 0.671875 0.625
vn 1 0 0
vn -1 0 0
vn 0 1 0
vn 0 -1 0
vn 0 0.7071067811865476 0.7071067811865476
vn 0 0 -1
usemtl m_fa9348fa-f37f-1011-9252-dd9a5c0728dc
f 44/121/33 43/122/33 45/123/33 46/124/33
f 49/125/34 47/126/34 48/127/34 50/128/34
f 47/129/35 43/130/35 44/131/35 48/132/35
f 46/133/36 45/134/36 49/135/36 50/136/36
f 45/137/37 43/138/37 47/139/37 49/140/37
f 48/141/38 44/142/38 46/143/38 50/144/38
o dirt
v 0 0 0
v 0 0 -0.125
v 0 -0.0625 0
v 0 -0.0625 -0.125
v -0.125 0 0
v -0.125 0 -0.125
v -0.125 -0.0625 0
v -0.125 -0.0625 -0.125
vt 0.40625 0.4375
vt 0.28125 0.4375
vt 0.28125 0.375
vt 0.40625 0.375
vt 0.40625 0.375
vt 0.40625 0.4375
vt 0.28125 0.4375
vt 0.28125 0.375
vt 0.28125 0.375
vt 0.40625 0.375
vt 0.40625 0.4375
vt 0.28125 0.4375
vt 0.40625 0.375
vt 0.40625 0.4375
vt 0.28125 0.4375
vt 0.28125 0.375
vt 0.40625 0.375
vt 0.40625 0.4375
vt 0.28125 0.4375
vt 0.28125 0.375
vt 0.40625 0.4375
vt 0.28125 0.4375
vt 0.28125 0.375
vt 0.40625 0.375
vn 1 0 0
vn -1 0 0
vn 0 1 0
vn 0 -1 0
vn 0 0 1
vn 0 0 -1
usemtl m_fa9348fa-f37f-1011-9252-dd9a5c0728dc
f 52/145/39 51/146/39 53/147/39 54/148/39
f 57/149/40 55/150/40 56/151/40 58/152/40
f 55/153/41 51/154/41 52/155/41 56/156/41
f 54/157/42 53/158/42 57/159/42 58/160/42
f 53/161/43 51/162/43 55/163/43 57/164/43
f 56/165/44 52/166/44 54/167/44 58/168/44