# Made in Blockbench 4.12.5
mtllib materials.mtl

o grass
v 0.125 0.0625 0.125
v 0.125 0.0625 -0.125
v 0.125 0 0.125
v 0.125 0 -0.125
v -0.125 0.0625 0.125
v -0.125 0.0625 -0.125
v -0.125 0 0.125
v -0.125 0 -0.125
vt 0.65625 1
vt 0.40625 1
vt 0.40625 0.9375
vt 0.65625 0.9375
vt 0.65625 0.859375
vt 0.65625 0.921875
vt 0.40625 0.921875
vt 0.40625 0.859375
vt 0 0.484375
vt 0.25 0.484375
vt 0.25 0.734375
vt 0 0.734375
vt 0.25 0.484375
vt 0.25 0.734375
vt 0 0.734375
vt 0 0.484375
vt 0.65625 0.78125
vt 0.65625 0.84375
vt 0.40625 0.84375
vt 0.40625 0.78125
vt 0.65625 0.765625
vt 0.40625 0.765625
vt 0.40625 0.703125
vt 0.65625 0.703125
vn 1 0 0
vn -1 0 0
vn 0 1 0
vn 0 -1 0
vn 0 0 1
vn 0 0 -1
usemtl m_f4890b44-5021-8e3c-82f4-99291cf23399
f 2/1/1 1/2/1 3/3/1 4/4/1
f 7/5/2 5/6/2 6/7/2 8/8/2
f 5/9/3 1/10/3 2/11/3 6/12/3
f 4/13/4 3/14/4 7/15/4 8/16/4
f 3/17/5 1/18/5 5/19/5 7/20/5
f 6/21/6 2/22/6 4/23/6 8/24/6
o road
v 0.0625 0.078125 0.125
v 0.0625 0.078125 -0.125
v 0.0625 0.0625 0.125
v 0.0625 0.0625 -0.125
v -0.0625 0.078125 0.125
v -0.0625 0.078125 -0.125
v -0.0625 0.0625 0.125
v -0.0625 0.0625 -0.125
vt 0.65625 0.6875
vt 0.40625 0.6875
vt 0.40625 0.671875
vt 0.65625 0.671875
vt 0.65625 0.640625
vt 0.65625 0.65625
vt 0.40625 0.65625
vt 0.40625 0.640625
vt 0.265625 0.75
vt 0.390625 0.75
vt 0.390625 1
vt 0.265625 1
vt 0.390625 0.484375
vt 0.390625 0.734375
vt 0.265625 0.734375
vt 0.265625 0.484375
vt 0.53125 0.609375
vt 0.53125 0.625
vt 0.40625 0.625
vt 0.40625 0.609375
vt 0.53125 0.59375
vt 0.40625 0.59375
vt 0.40625 0.578125
vt 0.53125 0.578125
vn 1 0 0
vn -1 0 0
vn 0 1 0
vn 0 -1 0
vn 0 0 1
vn 0 0 -1
usemtl m_f4890b44-5021-8e3c-82f4-99291cf23399
f 10/25/7 9/26/7 11/27/7 12/28/7
f 15/29/8 13/30/8 14/31/8 16/32/8
f 13/33/9 9/34/9 10/35/9 14/36/9
f 12/37/10 11/38/10 15/39/10 16/40/10
f 11/41/11 9/42/11 13/43/11 15/44/11
f 14/45/12 10/46/12 12/47/12 16/48/12
o road
v -0.12499999999999999 0.078125 0.06250000000000003
v 0.06250000000000001 0.078125 0.062499999999999986
v -0.12499999999999999 0.0625 0.06250000000000003
v 0.06250000000000001 0.0625 0.062499999999999986
v -0.125 0.078125 -0.06249999999999997
v 0.062499999999999986 0.078125 -0.06250000000000001
v -0.125 0.0625 -0.06249999999999997
v 0.062499999999999986 0.0625 -0.06250000000000001
vt 0.65625 0.6875
vt 0.40625 0.6875
vt 0.40625 0.671875
vt 0.65625 0.671875
vt 0.65625 0.640625
vt 0.65625 0.65625
vt 0.40625 0.65625
vt 0.40625 0.640625
vt 0.265625 0.75
vt 0.390625 0.75
vt 0.390625 1
vt 0.265625 1
vt 0.390625 0.484375
vt 0.390625 0.734375
vt 0.265625 0.734375
vt 0.265625 0.484375
vt 0.53125 0.609375
vt 0.53125 0.625
vt 0.40625 0.625
vt 0.40625 0.609375
vt 0.53125 0.59375
vt 0.40625 0.59375
vt 0.40625 0.578125
vt 0.53125 0.578125
vn 2.220446049250313e-16 0 1
vn -2.220446049250313e-16 0 -1
vn 0 1 0
vn 0 -1 0
vn -1 0 2.220446049250313e-16
vn 1 0 -2.220446049250313e-16
usemtl m_f4890b44-5021-8e3c-82f4-99291cf23399
f 18/49/13 17/50/13 19/51/13 20/52/13
f 23/53/14 21/54/14 22/55/14 24/56/14
f 21/57/15 17/58/15 18/59/15 22/60/15
f 20/61/16 19/62/16 23/63/16 24/64/16
f 19/65/17 17/66/17 21/67/17 23/68/17
f 22/69/18 18/70/18 20/71/18 24/72/18
o grass
v 0.125 0.0859375 0.125
v 0.125 0.0859375 -0.125
v 0.125 0.0625 0.125
v 0.125 0.0625 -0.125
v 0.0625 0.0859375 0.125
v 0.0625 0.0859375 -0.125
v 0.0625 0.0625 0.125
v 0.0625 0.0625 -0.125
vt 0.65625 1
vt 0.40625 1
vt 0.40625 0.9375
vt 0.65625 0.9375
vt 0.65625 0.859375
vt 0.65625 0.921875
vt 0.40625 0.921875
vt 0.40625 0.859375
vt 0 0.484375
vt 0.25 0.484375
vt 0.25 0.734375
vt 0 0.734375
vt 0.25 0.484375
vt 0.25 0.734375
vt 0 0.734375
vt 0 0.484375
vt 0.65625 0.78125
vt 0.65625 0.84375
vt 0.40625 0.84375
vt 0.40625 0.78125
vt 0.65625 0.765625
vt 0.40625 0.765625
vt 0.40625 0.703125
vt 0.65625 0.703125
vn 1 0 0
vn -1 0 0
vn 0 1 0
vn 0 -1 0
vn 0 0 1
vn 0 0 -1
usemtl m_f4890b44-5021-8e3c-82f4-99291cf23399
f 26/73/19 25/74/19 27/75/19 28/76/19
f 31/77/20 29/78/20 30/79/20 32/80/20
f 29/81/21 25/82/21 26/83/21 30/84/21
f 28/85/22 27/86/22 31/87/22 32/88/22
f 27/89/23 25/90/23 29/91/23 31/92/23
f 30/93/24 26/94/24 28/95/24 32/96/24
o plane
v 0.0078125 0.0796875 0.109375
v 0.0078125 0.0796875 0.078125
v -0.0078125 0.0796875 0.109375
v -0.0078125 0.0796875 0.078125
vt 0.4375 0.515625
vt 0.4375 0.546875
vt 0.421875 0.546875
vt 0.421875 0.515625
vn 0 1 0
usemtl m_f4890b44-5021-8e3c-82f4-99291cf23399
f 33/97/25 34/98/25 36/99/25 35/100/25
o plane
v 0.0078125 0.0796875 0.046875
v 0.0078125 0.0796875 0.015625
v -0.0078125 0.0796875 0.046875
v -0.0078125 0.0796875 0.015625
vt 0.4375 0.515625
vt 0.4375 0.546875
vt 0.421875 0.546875
vt 0.421875 0.515625
vn 0 1 0
usemtl m_f4890b44-5021-8e3c-82f4-99291cf23399
f 37/101/26 38/102/26 40/103/26 39/104/26
o plane
v 0.0078125 0.0796875 -0.015625
v 0.0078125 0.0796875 -0.046875
v -0.0078125 0.0796875 -0.015625
v -0.0078125 0.0796875 -0.046875
vt 0.4375 0.515625
vt 0.4375 0.546875
vt 0.421875 0.546875
vt 0.421875 0.515625
vn 0 1 0
usemtl m_f4890b44-5021-8e3c-82f4-99291cf23399
f 41/105/27 42/106/27 44/107/27 43/108/27
o plane
v 0.0078125 0.0796875 -0.078125
v 0.0078125 0.0796875 -0.109375
v -0.0078125 0.0796875 -0.078125
v -0.0078125 0.0796875 -0.109375
vt 0.4375 0.515625
vt 0.4375 0.546875
vt 0.421875 0.546875
vt 0.421875 0.515625
vn 0 1 0
usemtl m_f4890b44-5021-8e3c-82f4-99291cf23399
f 45/109/28 46/110/28 48/111/28 47/112/28
o plane
v -0.109375 0.0796875 0.007812500000000007
v -0.078125 0.0796875 0.0078125
v -0.109375 0.0796875 -0.007812499999999993
v -0.078125 0.0796875 -0.0078125
vt 0.4375 0.515625
vt 0.4375 0.546875
vt 0.421875 0.546875
vt 0.421875 0.515625
vn 0 1 0
usemtl m_f4890b44-5021-8e3c-82f4-99291cf23399
f 49/113/29 50/114/29 52/115/29 51/116/29
o grass
v -0.0625 0.0859375 -0.046875
v -0.0625 0.0859375 -0.125
v -0.0625 0.0625 -0.046875
v -0.0625 0.0625 -0.125
v -0.125 0.0859375 -0.046875
v -0.125 0.0859375 -0.125
v -0.125 0.0625 -0.046875
v -0.125 0.0625 -0.125
vt 0.65625 1
vt 0.40625 1
vt 0.40625 0.9375
vt 0.65625 0.9375
vt 0.65625 0.859375
vt 0.65625 0.921875
vt 0.40625 0.921875
vt 0.40625 0.859375
vt 0 0.484375
vt 0.25 0.484375
vt 0.25 0.734375
vt 0 0.734375
vt 0.25 0.484375
vt 0.25 0.734375
vt 0 0.734375
vt 0 0.484375
vt 0.65625 0.78125
vt 0.65625 0.84375
vt 0.40625 0.84375
vt 0.40625 0.78125
vt 0.65625 0.765625
vt 0.40625 0.765625
vt 0.40625 0.703125
vt 0.65625 0.703125
vn 1 0 0
vn -1 0 0
vn 0 1 0
vn 0 -1 0
vn 0 0 1
vn 0 0 -1
usemtl m_f4890b44-5021-8e3c-82f4-99291cf23399
f 54/117/30 53/118/30 55/119/30 56/120/30
f 59/121/31 57/122/31 58/123/31 60/124/31
f 57/125/32 53/126/32 54/127/32 58/128/32
f 56/129/33 55/130/33 59/131/33 60/132/33
f 55/133/34 53/134/34 57/135/34 59/136/34
f 58/137/35 54/138/35 56/139/35 60/140/35
o grass
v -0.0625 0.0859375 0.125
v -0.0625 0.0859375 0.046875
v -0.0625 0.0625 0.125
v -0.0625 0.0625 0.046875
v -0.125 0.0859375 0.125
v -0.125 0.0859375 0.046875
v -0.125 0.0625 0.125
v -0.125 0.0625 0.046875
vt 0.65625 1
vt 0.40625 1
vt 0.40625 0.9375
vt 0.65625 0.9375
vt 0.65625 0.859375
vt 0.65625 0.921875
vt 0.40625 0.921875
vt 0.40625 0.859375
vt 0 0.484375
vt 0.25 0.484375
vt 0.25 0.734375
vt 0 0.734375
vt 0.25 0.484375
vt 0.25 0.734375
vt 0 0.734375
vt 0 0.484375
vt 0.65625 0.78125
vt 0.65625 0.84375
vt 0.40625 0.84375
vt 0.40625 0.78125
vt 0.65625 0.765625
vt 0.40625 0.765625
vt 0.40625 0.703125
vt 0.65625 0.703125
vn 1 0 0
vn -1 0 0
vn 0 1 0
vn 0 -1 0
vn 0 0 1
vn 0 0 -1
usemtl m_f4890b44-5021-8e3c-82f4-99291cf23399
f 62/141/36 61/142/36 63/143/36 64/144/36
f 67/145/37 65/146/37 66/147/37 68/148/37
f 65/149/38 61/150/38 62/151/38 66/152/38
f 64/153/39 63/154/39 67/155/39 68/156/39
f 63/157/40 61/158/40 65/159/40 67/160/40
f 66/161/41 62/162/41 64/163/41 68/164/41