# Made in Blockbench 4.12.5
mtllib materials.mtl

o grass
v -0.09374999999999997 0.06250000000000003 -0.125
v -0.12499999999999997 0.06250000000000003 -0.125
v -0.03124999999999998 2.2951200055325917e-17 -0.125
v -0.12499999999999997 2.2951200055325923e-17 -0.12500000000000003
v -0.09375000000000003 0.06249999999999996 0.125
v -0.12500000000000003 0.06249999999999996 0.125
v -0.031250000000000035 -3.825200009220986e-17 0.125
v -0.12500000000000003 -3.8252000092209855e-17 0.12499999999999997
vt 0.65625 0.765625
vt 0.59375 0.765625
vt 0.53125 0.703125
vt 0.65625 0.703125
vt 0.65625 0.625
vt 0.59375 0.6875
vt 0.53125 0.6875
vt 0.53125 0.625
vt 0.265625 0.4375
vt 0.515625 0.4375
vt 0.515625 0.5
vt 0.265625 0.5
vt 0.515625 0.875
vt 0.515625 1
vt 0.265625 1
vt 0.265625 0.875
vt 0.515625 0.625
vt 0.515625 0.71875
vt 0.265625 0.71875
vt 0.265625 0.625
vt 0.515625 0.5
vt 0.265625 0.5
vt 0.265625 0.4375
vt 0.515625 0.4375
vn 2.220446049250313e-16 2.448128005901431e-16 -1
vn -2.220446049250313e-16 -2.448128005901431e-16 1
vn -5.055555011315561e-33 1 2.448128005901431e-16
vn 5.055555011315561e-33 -1 -2.448128005901431e-16
vn 0.7071067811865476 0.7071067811865476 3.301180372869378e-16
vn -1 5.43593615876288e-32 -2.220446049250313e-16
usemtl m_5a195669-bbc7-928e-dedf-fda29c5bd932
f 2/1/1 1/2/1 3/3/1 4/4/1
f 7/5/2 5/6/2 6/7/2 8/8/2
f 5/9/3 1/10/3 2/11/3 6/12/3
f 4/13/4 3/14/4 7/15/4 8/16/4
f 3/17/5 1/18/5 5/19/5 7/20/5
f 6/21/6 2/22/6 4/23/6 8/24/6
o dirt
v 0.12500000000000003 2.7755575615628914e-17 -0.12499999999999996
v -0.12499999999999997 2.7755575615628914e-17 -0.125
v 0.12500000000000003 -0.06249999999999997 -0.12499999999999997
v -0.12499999999999997 -0.06249999999999997 -0.12500000000000003
v 0.12499999999999997 -2.7755575615628914e-17 0.12500000000000006
v -0.12500000000000003 -2.7755575615628914e-17 0.125
v 0.12499999999999997 -0.06250000000000003 0.12500000000000003
v -0.12500000000000003 -0.06250000000000003 0.12499999999999997
vt 0.71875 0.921875
vt 0.59375 0.921875
vt 0.53125 0.859375
vt 0.71875 0.859375
vt 0.71875 0.78125
vt 0.65625 0.84375
vt 0.53125 0.84375
vt 0.53125 0.78125
vt 0.265625 0.734375
vt 0.515625 0.734375
vt 0.515625 0.859375
vt 0.265625 0.859375
vt 0.515625 0.515625
vt 0.515625 0.609375
vt 0.265625 0.609375
vt 0.265625 0.515625
vt 0.78125 1
vt 0.53125 1
vt 0.53125 0.9375
vt 0.78125 0.9375
vn 2.220446049250313e-16 2.448128005901431e-16 -1
vn -2.220446049250313e-16 -2.448128005901431e-16 1
vn -5.055555011315561e-33 1 2.448128005901431e-16
vn 1 -5.43593615876288e-32 2.220446049250313e-16
vn -1 5.43593615876288e-32 -2.220446049250313e-16
usemtl m_5a195669-bbc7-928e-dedf-fda29c5bd932
f 10/25/7 9/26/7 11/27/7 12/28/7
f 15/29/8 13/30/8 14/31/8 16/32/8
f 13/33/9 9/34/9 10/35/9 14/36/9
f 11/37/10 9/38/10 13/39/10 15/40/10
f 14/41/11 10/42/11 12/43/11 16/44/11
o water
v 0.12500000000000003 0.03125000000000003 -0.12499999999999997
v -0.12499999999999997 0.03125000000000003 -0.12500000000000003
v 0.12499999999999997 0.03124999999999997 0.12500000000000003
v -0.12500000000000003 0.03124999999999997 0.12499999999999997
vt 0.25 0.75
vt 0.25 1
vt 0 1
vt 0 0.75
vn -5.055555011315561e-33 1 2.448128005901431e-16
usemtl m_5a195669-bbc7-928e-dedf-fda29c5bd932
f 17/45/12 18/46/12 20/47/12 19/48/12
o dirt
v 0.12500000000000003 -0.06249999999999997 -0.12499999999999997
v -0.12499999999999997 -0.06249999999999997 -0.12500000000000003
v 0.12499999999999997 -0.06250000000000003 0.12500000000000003
v -0.12500000000000003 -0.06250000000000003 0.12499999999999997
vt 0.515625 0.734375
vt 0.515625 0.859375
vt 0.265625 0.859375
vt 0.265625 0.734375
vn -5.055555011315561e-33 1 2.448128005901431e-16
usemtl m_5a195669-bbc7-928e-dedf-fda29c5bd932
f 21/49/13 22/50/13 24/51/13 23/52/13
o grass
v 0.09375000000000003 0.0625 0.12499999999999999
v 0.12500000000000003 0.0625 0.12499999999999997
v 0.03125000000000003 1.4569904915942775e-20 0.125
v 0.12500000000000003 1.4569904915942772e-20 0.12499999999999997
v 0.09374999999999997 0.0625 -0.125
v 0.12499999999999997 0.0625 -0.12500000000000003
v 0.031249999999999972 -1.4569904915942775e-20 -0.125
v 0.12499999999999997 -1.4569904915942778e-20 -0.12500000000000003
vt 0.65625 0.765625
vt 0.59375 0.765625
vt 0.53125 0.703125
vt 0.65625 0.703125
vt 0.65625 0.625
vt 0.59375 0.6875
vt 0.53125 0.6875
vt 0.53125 0.625
vt 0.265625 0.4375
vt 0.515625 0.4375
vt 0.515625 0.5
vt 0.265625 0.5
vt 0.515625 0.875
vt 0.515625 1
vt 0.265625 1
vt 0.265625 0.875
vt 0.515625 0.625
vt 0.515625 0.71875
vt 0.265625 0.71875
vt 0.265625 0.625
vt 0.515625 0.5
vt 0.265625 0.5
vt 0.265625 0.4375
vt 0.515625 0.4375
vn 2.220446049250313e-16 1.165592393275422e-19 1
vn -2.220446049250313e-16 -1.165592393275422e-19 -1
vn -1.8072259420058316e-36 1 -1.165592393275422e-19
vn 1.8072259420058316e-36 -1 1.165592393275422e-19
vn -0.7071067811865476 0.7071067811865476 1.5692682603983907e-16
vn 1 -2.588135024684628e-35 -2.220446049250313e-16
usemtl m_5a195669-bbc7-928e-dedf-fda29c5bd932
f 26/53/14 25/54/14 27/55/14 28/56/14
f 31/57/15 29/58/15 30/59/15 32/60/15
f 29/61/16 25/62/16 26/63/16 30/64/16
f 28/65/17 27/66/17 31/67/17 32/68/17
f 27/69/18 25/70/18 29/71/18 31/72/18
f 30/73/19 26/74/19 28/75/19 32/76/19